{
.appVersion = "3112";
classes = (
{
automatic = 1;
code = "A Aacute Acaron Acircumflex Adieresis Agrave Aring Atilde AE B C Ccedilla D Eth Dcaron E Eacute Ecircumflex Edieresis Egrave F G H I IJ Iacute Icircumflex Idieresis Igrave J K L M N Ntilde O Oacute Ocircumflex Odieresis Ograve Oslash Otilde OE P Thorn Q R S T U Uacute Ucircumflex Udieresis Ugrave V W X Y Yacute Z";
name = Uppercase;
}
);
copyright = "Copyright 2020 The Geologica Project Authors (https://github.com/monokromskriftforlag/geologisk)";
customParameters = (
{
name = "Family Alignment Zones";
value = (
"{1440, 30}",
"{1400, 30}",
"{990, 40}",
"{0, -30}",
"{-420, -30}"
);
},
{
name = "Has WWS Names";
value = 1;
},
{
name = "Use Typo Metrics";
value = 1;
},
{
name = fsType;
value = (
);
},
{
name = "Enforce Compatibility Check";
value = 1;
},
{
name = "Use Extension Kerning";
value = 1;
},
{
name = vendorID;
value = MNKR;
},
{
name = licenseURL;
value = "https://scripts.sil.org/OFL";
},
{
name = license;
value = "This Font Software is licensed under the SIL Open Font License, Version 1.1. This license is available with a FAQ at: https://scripts.sil.org/OFL";
}
);
date = "2022-01-19 21:39:54 +0000";
designer = "Sindre Bremnes, Frode Helland";
familyName = "GF Latin Core Old";
featurePrefixes = (
{
code = "languagesystem DFLT dflt;\012\012languagesystem latn dflt;\012languagesystem latn CAT;\012languagesystem latn ROM;\012languagesystem latn MOL;\012languagesystem latn KAZ;\012languagesystem latn TAT;\012languagesystem latn TRK;\012languagesystem latn CRT;\012languagesystem latn AZE;\012\012languagesystem cyrl dflt;\012languagesystem cyrl SRB;\012languagesystem cyrl MKD;\012languagesystem cyrl BGR;\012";
name = Languagesystems;
}
);
features = (
{
automatic = 1;
code = "feature sups;\012feature frac;\012feature ordn;\012";
name = aalt;
},
{
automatic = 1;
code = "lookup ccmp_Other_1 {\012	@CombiningTopAccents = [brevecomb];\012	sub [i]' @CombiningTopAccents by [idotless];\012} ccmp_Other_1;\012";

glyphs = (
{
color = 1;
glyphname = A;
lastChange = "2022-02-16 15:38:45 +0000";
layers = (
{
anchors = (
{
name = bottom;
position = "{650, 0}";
},
{
name = ogonek;
position = "{1288, 0}";
},
{
name = top;
position = "{650, 1400}";
},
{
name = topleft;
position = "{332, 1400}";
}
);
layerId = "38FA562F-EF2C-4367-983C-F15B205514DC";
paths = (
{
closed = 1;
nodes = (
"162 0 LINE",
"314 384 LINE",
"998 384 LINE",
"1158 0 LINE",
"1288 0 LINE",
"700 1400 LINE",
"600 1400 LINE",
"36 0 LINE"
);
},
{
closed = 1;
nodes = (
"646 1228 LINE",
"954 492 LINE",
"356 492 LINE"
);
}
);
width = 1324;
}
);
leftKerningGroup = A;
rightKerningGroup = A;
rightMetricsKey = "=|";
unicode = 0041;
},
{
color = 9;
glyphname = Aacute;
lastChange = "2022-02-16 15:38:40 +0000";
layers = (
{
anchors = (
{
name = bottom;
position = "{650, 0}";
},
{
name = ogonek;
position = "{1288, 0}";
},
{
name = top;
position = "{650, 1400}";
},
{
name = topleft;
position = "{332, 1400}";
}
);
layerId = "38FA562F-EF2C-4367-983C-F15B205514DC";
paths = (
{
closed = 1;
nodes = (
"162 0 LINE",
"314 384 LINE",
"998 384 LINE",
"1158 0 LINE",
"1288 0 LINE",
"700 1400 LINE",
"600 1400 LINE",
"36 0 LINE"
);
},
{
closed = 1;
nodes = (
"646 1228 LINE",
"954 492 LINE",
"356 492 LINE"
);
},
{
closed = 1;
nodes = (
"694 1594 LINE",
"896 1906 LINE",
"776 1906 LINE",
"586 1594 LINE"
);
}
);
width = 1324;
}
);
leftKerningGroup = A;
rightKerningGroup = A;
unicode = 00C1;
},
{
color = 9;
glyphname = Acircumflex;
lastChange = "2022-02-16 15:38:40 +0000";
layers = (
{
anchors = (
{
name = bottom;
position = "{650, 0}";
},
{
name = ogonek;
position = "{1288, 0}";
},
{
name = top;
position = "{650, 1850}";
},
{
name = top_right;
position = "{968, 1648}";
},
{
name = topleft;
position = "{332, 1400}";
}
);
layerId = "38FA562F-EF2C-4367-983C-F15B205514DC";
paths = (
{
closed = 1;
nodes = (
"162 0 LINE",
"314 384 LINE",
"998 384 LINE",
"1158 0 LINE",
"1288 0 LINE",
"700 1400 LINE",
"600 1400 LINE",
"36 0 LINE"
);
},
{
closed = 1;
nodes = (
"646 1228 LINE",
"954 492 LINE",
"356 492 LINE"
);
},
{
closed = 1;
nodes = (
"450 1594 LINE",
"656 1830 LINE",
"854 1594 LINE",
"974 1594 LINE",
"722 1906 LINE",
"596 1906 LINE",
"326 1594 LINE"
);
}
);
width = 1324;
}
);
leftKerningGroup = A;
rightKerningGroup = A;
unicode = 00C2;
},
{
color = 9;
glyphname = Adieresis;
lastChange = "2022-02-16 15:38:40 +0000";
layers = (
{
anchors = (
{
name = bottom;
position = "{650, 0}";
},
{
name = ogonek;
position = "{1288, 0}";
},
{
name = top;
position = "{650, 1706}";
},
{
name = topleft;
position = "{332, 1400}";
}
);
layerId = "38FA562F-EF2C-4367-983C-F15B205514DC";
paths = (
{
closed = 1;
nodes = (
"162 0 LINE",
"314 384 LINE",
"998 384 LINE",
"1158 0 LINE",
"1288 0 LINE",
"700 1400 LINE",
"600 1400 LINE",
"36 0 LINE"
);
},
{
closed = 1;
nodes = (
"646 1228 LINE",
"954 492 LINE",
"356 492 LINE"
);
},
{
closed = 1;
nodes = (
"518 1586 OFFCURVE",
"560 1628 OFFCURVE",
"560 1678 CURVE SMOOTH",
"560 1728 OFFCURVE",
"516 1768 OFFCURVE",
"464 1768 CURVE SMOOTH",
"412 1768 OFFCURVE",
"368 1728 OFFCURVE",
"368 1678 CURVE SMOOTH",
"368 1628 OFFCURVE",
"410 1586 OFFCURVE",
"464 1586 CURVE SMOOTH"
);
},
{
closed = 1;
nodes = (
"890 1586 OFFCURVE",
"934 1628 OFFCURVE",
"934 1678 CURVE SMOOTH",
"934 1728 OFFCURVE",
"890 1768 OFFCURVE",
"838 1768 CURVE SMOOTH",
"784 1768 OFFCURVE",
"742 1726 OFFCURVE",
"742 1678 CURVE SMOOTH",
"742 1628 OFFCURVE",
"784 1586 OFFCURVE",
"838 1586 CURVE SMOOTH"
);
}
);
width = 1324;
}
);
leftKerningGroup = A;
rightKerningGroup = A;
unicode = 00C4;
},
{
color = 9;
glyphname = Agrave;
lastChange = "2022-02-16 15:38:40 +0000";
layers = (
{
anchors = (
{
name = bottom;
position = "{650, 0}";
},
{
name = ogonek;
position = "{1288, 0}";
},
{
name = top;
position = "{650, 1400}";
},
{
name = topleft;
position = "{332, 1400}";
}
);
layerId = "38FA562F-EF2C-4367-983C-F15B205514DC";
paths = (
{
closed = 1;
nodes = (
"162 0 LINE",
"314 384 LINE",
"998 384 LINE",
"1158 0 LINE",
"1288 0 LINE",
"700 1400 LINE",
"600 1400 LINE",
"36 0 LINE"
);
},
{
closed = 1;
nodes = (
"646 1228 LINE",
"954 492 LINE",
"356 492 LINE"
);
},
{
closed = 1;
nodes = (
"732 1594 LINE",
"544 1906 LINE",
"418 1906 LINE",
"620 1594 LINE"
);
}
);
width = 1324;
}
);
leftKerningGroup = A;
rightKerningGroup = A;
unicode = 00C0;
},
{
color = 9;
glyphname = Aring;
lastChange = "2022-02-16 15:38:40 +0000";
layers = (
{
anchors = (
{
name = bottom;
position = "{650, 0}";
},
{
name = ogonek;
position = "{1288, 0}";
},
{
name = top;
position = "{650, 1888}";
},
{
name = topleft;
position = "{332, 1400}";
}
);
layerId = "38FA562F-EF2C-4367-983C-F15B205514DC";
paths = (
{
closed = 1;
nodes = (
"162 0 LINE",
"314 384 LINE",
"998 384 LINE",
"1158 0 LINE",
"1288 0 LINE",
"700 1400 LINE",
"600 1400 LINE",
"36 0 LINE"
);
},
{
closed = 1;
nodes = (
"646 1228 LINE",
"954 492 LINE",
"356 492 LINE"
);
},
{
closed = 1;
nodes = (
"800 1462 OFFCURVE",
"926 1578 OFFCURVE",
"926 1726 CURVE SMOOTH",
"926 1874 OFFCURVE",
"800 1990 OFFCURVE",
"650 1990 CURVE SMOOTH",
"502 1990 OFFCURVE",
"374 1874 OFFCURVE",
"374 1726 CURVE SMOOTH",
"374 1578 OFFCURVE",
"502 1462 OFFCURVE",
"650 1462 CURVE SMOOTH"
);
},
{
closed = 1;
nodes = (
"548 1554 OFFCURVE",
"470 1626 OFFCURVE",
"470 1726 CURVE SMOOTH",
"470 1826 OFFCURVE",
"548 1898 OFFCURVE",
"650 1898 CURVE SMOOTH",
"752 1898 OFFCURVE",
"830 1826 OFFCURVE",
"830 1726 CURVE SMOOTH",
"830 1626 OFFCURVE",
"752 1554 OFFCURVE",
"650 1554 CURVE SMOOTH"
);
}
);
width = 1324;
}
);
leftKerningGroup = A;
rightKerningGroup = A;
unicode = 00C5;
},
{
color = 9;
glyphname = Atilde;
lastChange = "2022-02-16 15:38:40 +0000";
layers = (
{
anchors = (
{
name = bottom;
position = "{650, 0}";
},
{
name = ogonek;
position = "{1288, 0}";
},
{
name = top;
position = "{650, 1760}";
},
{
name = topleft;
position = "{332, 1400}";
}
);
layerId = "38FA562F-EF2C-4367-983C-F15B205514DC";
paths = (
{
closed = 1;
nodes = (
"162 0 LINE",
"314 384 LINE",
"998 384 LINE",
"1158 0 LINE",
"1288 0 LINE",
"700 1400 LINE",
"600 1400 LINE",
"36 0 LINE"
);
},
{
closed = 1;
nodes = (
"646 1228 LINE",
"954 492 LINE",
"356 492 LINE"
);
},
{
closed = 1;
nodes = (
"402 1712 OFFCURVE",
"444 1750 OFFCURVE",
"500 1750 CURVE SMOOTH",
"590 1750 OFFCURVE",
"686 1654 OFFCURVE",
"798 1654 CURVE SMOOTH",
"886 1654 OFFCURVE",
"960 1716 OFFCURVE",
"1004 1820 CURVE",
"928 1866 LINE",
"900 1794 OFFCURVE",
"858 1750 OFFCURVE",
"800 1750 CURVE SMOOTH",
"710 1750 OFFCURVE",
"614 1848 OFFCURVE",
"500 1848 CURVE SMOOTH",
"408 1848 OFFCURVE",
"338 1780 OFFCURVE",
"296 1678 CURVE",
"372 1634 LINE"
);
}
);
width = 1324;
}
);
leftKerningGroup = A;
rightKerningGroup = A;
unicode = 00C3;
},
{
color = 9;
glyphname = AE;
lastChange = "2022-02-16 15:38:40 +0000";
layers = (
{
anchors = (
{
name = top;
position = "{1128, 1400}";
}
);
layerId = "38FA562F-EF2C-4367-983C-F15B205514DC";
paths = (
{
closed = 1;
nodes = (
"116 0 LINE",
"302 380 LINE",
"772 380 LINE",
"772 0 LINE",
"1592 0 LINE",
"1592 108 LINE",
"888 108 LINE",
"888 688 LINE",
"1516 688 LINE",
"1516 796 LINE",
"888 796 LINE",
"888 1292 LINE",
"1584 1292 LINE",
"1584 1400 LINE",
"702 1400 LINE",
"-10 0 LINE"
);
},
{
closed = 1;
nodes = (
"772 1312 LINE",
"772 484 LINE",
"348 484 LINE"
);
}
);
width = 1742;
}
);
leftKerningGroup = AE;
rightKerningGroup = E;
rightMetricsKey = E;
unicode = 00C6;
},
{
color = 1;
glyphname = B;
lastChange = "2022-02-16 15:38:45 +0000";
layers = (
{
layerId = "38FA562F-EF2C-4367-983C-F15B205514DC";
paths = (
{
closed = 1;
nodes = (
"650 0 LINE SMOOTH",
"920 0 OFFCURVE",
"1090 164 OFFCURVE",
"1090 376 CURVE SMOOTH",
"1090 568 OFFCURVE",
"964 694 OFFCURVE",
"808 736 CURVE",
"918 770 OFFCURVE",
"1046 910 OFFCURVE",
"1046 1048 CURVE SMOOTH",
"1046 1278 OFFCURVE",
"870 1400 OFFCURVE",
"618 1400 CURVE SMOOTH",
"200 1400 LINE",
"200 0 LINE"
);
},
{
closed = 1;
nodes = (
"316 670 LINE",
"604 670 LINE SMOOTH",
"858 670 OFFCURVE",
"974 572 OFFCURVE",
"974 386 CURVE SMOOTH",
"974 196 OFFCURVE",
"860 108 OFFCURVE",
"622 108 CURVE SMOOTH",
"316 108 LINE"
);
},
{
closed = 1;
nodes = (
"316 1292 LINE",
"592 1292 LINE SMOOTH",
"808 1292 OFFCURVE",
"930 1206 OFFCURVE",
"930 1046 CURVE SMOOTH",
"930 878 OFFCURVE",
"796 778 OFFCURVE",
"594 778 CURVE SMOOTH",
"316 778 LINE"
);
}
);
width = 1220;
}
);
leftKerningGroup = H;
leftMetricsKey = I;
rightKerningGroup = B;
unicode = 0042;
},
{
color = 1;
glyphname = C;
lastChange = "2022-02-16 15:38:45 +0000";
layers = (
{
anchors = (
{
name = bottom;
position = "{786, 0}";
},
{
name = top;
position = "{786, 1400}";
}
);
layerId = "38FA562F-EF2C-4367-983C-F15B205514DC";
paths = (
{
closed = 1;
nodes = (
"1016 -30 OFFCURVE",
"1180 18 OFFCURVE",
"1322 130 CURVE",
"1266 230 LINE",
"1146 124 OFFCURVE",
"1006 82 OFFCURVE",
"850 82 CURVE SMOOTH",
"474 82 OFFCURVE",
"232 308 OFFCURVE",
"232 702 CURVE SMOOTH",
"232 1082 OFFCURVE",
"472 1320 OFFCURVE",
"836 1320 CURVE SMOOTH",
"986 1320 OFFCURVE",
"1112 1280 OFFCURVE",
"1210 1198 CURVE",
"1278 1292 LINE",
"1172 1380 OFFCURVE",
"1018 1430 OFFCURVE",
"826 1430 CURVE SMOOTH",
"410 1430 OFFCURVE",
"112 1122 OFFCURVE",
"112 702 CURVE SMOOTH",
"112 264 OFFCURVE",
"392 -30 OFFCURVE",
"826 -30 CURVE SMOOTH"
);
}
);
width = 1392;
}
);
leftKerningGroup = O;
leftMetricsKey = O;
rightKerningGroup = C;
rightMetricsKey = "=c*1.1";
unicode = 0043;
},
{
color = 9;
glyphname = Ccedilla;
lastChange = "2022-02-16 15:38:40 +0000";
layers = (
{
anchors = (
{
name = bottom;
position = "{786, 0}";
},
{
name = top;
position = "{786, 1400}";
}
);
layerId = "38FA562F-EF2C-4367-983C-F15B205514DC";
paths = (
{
closed = 1;
nodes = (
"1016 -30 OFFCURVE",
"1180 18 OFFCURVE",
"1322 130 CURVE",
"1266 230 LINE",
"1146 124 OFFCURVE",
"1006 82 OFFCURVE",
"850 82 CURVE SMOOTH",
"474 82 OFFCURVE",
"232 308 OFFCURVE",
"232 702 CURVE SMOOTH",
"232 1082 OFFCURVE",
"472 1320 OFFCURVE",
"836 1320 CURVE SMOOTH",
"986 1320 OFFCURVE",
"1112 1280 OFFCURVE",
"1210 1198 CURVE",
"1278 1292 LINE",
"1172 1380 OFFCURVE",
"1018 1430 OFFCURVE",
"826 1430 CURVE SMOOTH",
"410 1430 OFFCURVE",
"112 1122 OFFCURVE",
"112 702 CURVE SMOOTH",
"112 264 OFFCURVE",
"392 -30 OFFCURVE",
"826 -30 CURVE SMOOTH"
);
},
{
closed = 1;
nodes = (
"864 -450 OFFCURVE",
"1004 -402 OFFCURVE",
"1004 -266 CURVE SMOOTH",
"1004 -160 OFFCURVE",
"910 -102 OFFCURVE",
"784 -94 CURVE",
"824 40 LINE",
"742 40 LINE",
"688 -126 LINE",
"722 -186 LINE",
"808 -174 OFFCURVE",
"896 -200 OFFCURVE",
"896 -270 CURVE SMOOTH",
"896 -336 OFFCURVE",
"826 -360 OFFCURVE",
"766 -360 CURVE SMOOTH",
"702 -360 OFFCURVE",
"628 -336 OFFCURVE",
"604 -308 CURVE",
"566 -394 LINE",
"622 -430 OFFCURVE",
"690 -450 OFFCURVE",
"770 -450 CURVE SMOOTH"
);
}
);
width = 1392;
}
);
leftKerningGroup = O;
rightKerningGroup = C;
unicode = 00C7;
},
{
color = 1;
glyphname = D;
lastChange = "2022-02-16 15:38:45 +0000";
layers = (
{
anchors = (
{
name = bar;
position = "{436, 742}";
},
{
name = top;
position = "{676, 1400}";
}
);
layerId = "38FA562F-EF2C-4367-983C-F15B205514DC";
paths = (
{
closed = 1;
nodes = (
"596 0 LINE SMOOTH",
"994 0 OFFCURVE",
"1284 294 OFFCURVE",
"1284 698 CURVE SMOOTH",
"1284 1108 OFFCURVE",
"994 1400 OFFCURVE",
"596 1400 CURVE SMOOTH",
"200 1400 LINE",
"200 0 LINE"
);
},
{
closed = 1;
nodes = (
"316 1292 LINE",
"558 1292 LINE SMOOTH",
"926 1292 OFFCURVE",
"1164 1056 OFFCURVE",
"1164 698 CURVE SMOOTH",
"1164 344 OFFCURVE",
"924 108 OFFCURVE",
"558 108 CURVE SMOOTH",
"316 108 LINE"
);
}
);
width = 1396;
}
);
leftKerningGroup = H;
leftMetricsKey = I;
rightKerningGroup = O;
rightMetricsKey = O;
unicode = 0044;
},
{
color = 9;
glyphname = Eth;
lastChange = "2022-02-16 15:38:40 +0000";
layers = (
{
anchors = (
{
name = bar;
position = "{476, 742}";
},
{
name = top;
position = "{716, 1400}";
}
);
layerId = "38FA562F-EF2C-4367-983C-F15B205514DC";
paths = (
{
closed = 1;
nodes = (
"888 698 LINE",
"888 786 LINE",
"64 786 LINE",
"64 698 LINE"
);
},
{
closed = 1;
nodes = (
"636 0 LINE SMOOTH",
"1034 0 OFFCURVE",
"1324 294 OFFCURVE",
"1324 698 CURVE SMOOTH",
"1324 1108 OFFCURVE",
"1034 1400 OFFCURVE",
"636 1400 CURVE SMOOTH",
"240 1400 LINE",
"240 0 LINE"
);
},
{
closed = 1;
nodes = (
"356 1292 LINE",
"598 1292 LINE SMOOTH",
"966 1292 OFFCURVE",
"1204 1056 OFFCURVE",
"1204 698 CURVE SMOOTH",
"1204 344 OFFCURVE",
"964 108 OFFCURVE",
"598 108 CURVE SMOOTH",
"356 108 LINE"
);
}
);
width = 1436;
}
);
leftKerningGroup = Eth;
widthMetricsKey = "=D+40";
rightKerningGroup = O;
rightMetricsKey = D;
unicode = 00D0;
},
{
color = 9;
glyphname = Dcaron;
lastChange = "2022-02-16 14:35:42 +0000";
layers = (
{
anchors = (
{
name = bar;
position = "{436, 742}";
},
{
name = top;
position = "{676, 1400}";
}
);
layerId = "38FA562F-EF2C-4367-983C-F15B205514DC";
paths = (
{
closed = 1;
nodes = (
"596 0 LINE SMOOTH",
"994 0 OFFCURVE",
"1284 294 OFFCURVE",
"1284 698 CURVE SMOOTH",
"1284 1108 OFFCURVE",
"994 1400 OFFCURVE",
"596 1400 CURVE SMOOTH",
"200 1400 LINE",
"200 0 LINE"
);
},
{
closed = 1;
nodes = (
"316 1292 LINE",
"558 1292 LINE SMOOTH",
"926 1292 OFFCURVE",
"1164 1056 OFFCURVE",
"1164 698 CURVE SMOOTH",
"1164 344 OFFCURVE",
"924 108 OFFCURVE",
"558 108 CURVE SMOOTH",
"316 108 LINE"
);
},
{
closed = 1;
nodes = (
"730 1594 LINE",
"1000 1906 LINE",
"876 1906 LINE",
"670 1670 LINE",
"472 1906 LINE",
"352 1906 LINE",
"606 1594 LINE"
);
}
);
width = 1396;
}
);
leftKerningGroup = Haccent;
rightKerningGroup = O;
unicode = 010E;
},
{
color = 1;
glyphname = E;
lastChange = "2022-02-16 15:38:45 +0000";
layers = (
{
anchors = (
{
name = bottom;
position = "{602, 0}";
},
{
name = ogonek;
position = "{1030, 0}";
},
{
name = top;
position = "{602, 1400}";
},
{
name = topleft;
position = "{120, 1400}";
}
);
layerId = "38FA562F-EF2C-4367-983C-F15B205514DC";
paths = (
{
closed = 1;
nodes = (
"1030 0 LINE",
"1030 108 LINE",
"316 108 LINE",
"316 688 LINE",
"944 688 LINE",
"944 796 LINE",
"316 796 LINE",
"316 1292 LINE",
"1024 1292 LINE",
"1024 1400 LINE",
"200 1400 LINE",
"200 0 LINE"
);
}
);
width = 1180;
}
);
leftKerningGroup = H;
leftMetricsKey = I;
rightKerningGroup = E;
unicode = 0045;
},
{
color = 9;
glyphname = Eacute;
lastChange = "2022-02-16 15:38:40 +0000";
layers = (
{
anchors = (
{
name = bottom;
position = "{602, 0}";
},
{
name = ogonek;
position = "{1030, 0}";
},
{
name = top;
position = "{602, 1400}";
},
{
name = topleft;
position = "{120, 1400}";
}
);
layerId = "38FA562F-EF2C-4367-983C-F15B205514DC";
paths = (
{
closed = 1;
nodes = (
"1030 0 LINE",
"1030 108 LINE",
"316 108 LINE",
"316 688 LINE",
"944 688 LINE",
"944 796 LINE",
"316 796 LINE",
"316 1292 LINE",
"1024 1292 LINE",
"1024 1400 LINE",
"200 1400 LINE",
"200 0 LINE"
);
},
{
closed = 1;
nodes = (
"646 1594 LINE",
"848 1906 LINE",
"728 1906 LINE",
"538 1594 LINE"
);
}
);
width = 1180;
}
);
leftKerningGroup = H;
rightKerningGroup = E;
unicode = 00C9;
},
{
color = 9;
glyphname = Ecircumflex;
lastChange = "2022-02-16 15:38:40 +0000";
layers = (
{
anchors = (
{
name = bottom;
position = "{602, 0}";
},
{
name = ogonek;
position = "{1030, 0}";
},
{
name = top;
position = "{602, 1850}";
},
{
name = top_right;
position = "{920, 1648}";
},
{
name = topleft;
position = "{120, 1400}";
}
);
layerId = "38FA562F-EF2C-4367-983C-F15B205514DC";
paths = (
{
closed = 1;
nodes = (
"1030 0 LINE",
"1030 108 LINE",
"316 108 LINE",
"316 688 LINE",
"944 688 LINE",
"944 796 LINE",
"316 796 LINE",
"316 1292 LINE",
"1024 1292 LINE",
"1024 1400 LINE",
"200 1400 LINE",
"200 0 LINE"
);
},
{
closed = 1;
nodes = (
"402 1594 LINE",
"608 1830 LINE",
"806 1594 LINE",
"926 1594 LINE",
"674 1906 LINE",
"548 1906 LINE",
"278 1594 LINE"
);
}
);
width = 1180;
}
);
leftKerningGroup = H;
rightKerningGroup = E;
unicode = 00CA;
},
{
color = 9;
glyphname = Edieresis;
lastChange = "2022-02-16 15:38:40 +0000";
layers = (
{
anchors = (
{
name = bottom;
position = "{602, 0}";
},
{
name = ogonek;
position = "{1030, 0}";
},
{
name = top;
position = "{602, 1706}";
},
{
name = topleft;
position = "{120, 1400}";
}
);
layerId = "38FA562F-EF2C-4367-983C-F15B205514DC";
paths = (
{
closed = 1;
nodes = (
"1030 0 LINE",
"1030 108 LINE",
"316 108 LINE",
"316 688 LINE",
"944 688 LINE",
"944 796 LINE",
"316 796 LINE",
"316 1292 LINE",
"1024 1292 LINE",
"1024 1400 LINE",
"200 1400 LINE",
"200 0 LINE"
);
},
{
closed = 1;
nodes = (
"470 1586 OFFCURVE",
"512 1628 OFFCURVE",
"512 1678 CURVE SMOOTH",
"512 1728 OFFCURVE",
"468 1768 OFFCURVE",
"416 1768 CURVE SMOOTH",
"364 1768 OFFCURVE",
"320 1728 OFFCURVE",
"320 1678 CURVE SMOOTH",
"320 1628 OFFCURVE",
"362 1586 OFFCURVE",
"416 1586 CURVE SMOOTH"
);
},
{
closed = 1;
nodes = (
"842 1586 OFFCURVE",
"886 1628 OFFCURVE",
"886 1678 CURVE SMOOTH",
"886 1728 OFFCURVE",
"842 1768 OFFCURVE",
"790 1768 CURVE SMOOTH",
"736 1768 OFFCURVE",
"694 1726 OFFCURVE",
"694 1678 CURVE SMOOTH",
"694 1628 OFFCURVE",
"736 1586 OFFCURVE",
"790 1586 CURVE SMOOTH"
);
}
);
width = 1180;
}
);
leftKerningGroup = Haccent;
rightKerningGroup = E;
unicode = 00CB;
},
{
color = 9;
glyphname = Egrave;
lastChange = "2022-02-16 15:38:40 +0000";
layers = (
{
anchors = (
{
name = bottom;
position = "{602, 0}";
},
{
name = ogonek;
position = "{1030, 0}";
},
{
name = top;
position = "{602, 1400}";
},
{
name = topleft;
position = "{120, 1400}";
}
);
layerId = "38FA562F-EF2C-4367-983C-F15B205514DC";
paths = (
{
closed = 1;
nodes = (
"1030 0 LINE",
"1030 108 LINE",
"316 108 LINE",
"316 688 LINE",
"944 688 LINE",
"944 796 LINE",
"316 796 LINE",
"316 1292 LINE",
"1024 1292 LINE",
"1024 1400 LINE",
"200 1400 LINE",
"200 0 LINE"
);
},
{
closed = 1;
nodes = (
"684 1594 LINE",
"496 1906 LINE",
"370 1906 LINE",
"572 1594 LINE"
);
}
);
width = 1180;
}
);
leftKerningGroup = H;
rightKerningGroup = E;
unicode = 00C8;
},
{
color = 1;
glyphname = F;
lastChange = "2022-02-16 15:38:45 +0000";
layers = (
{
layerId = "38FA562F-EF2C-4367-983C-F15B205514DC";
paths = (
{
closed = 1;
nodes = (
"316 0 LINE",
"316 668 LINE",
"948 668 LINE",
"948 776 LINE",
"316 776 LINE",
"316 1292 LINE",
"1008 1292 LINE",
"1008 1400 LINE",
"200 1400 LINE",
"200 0 LINE"
);
}
);
width = 1132;
}
);
leftKerningGroup = H;
leftMetricsKey = I;
rightKerningGroup = F;
unicode = 0046;
},
{
color = 1;
glyphname = G;
lastChange = "2022-02-16 15:38:45 +0000";
layers = (
{
anchors = (
{
name = bottom;
position = "{860, 0}";
},
{
name = top;
position = "{800, 1400}";
}
);
layerId = "38FA562F-EF2C-4367-983C-F15B205514DC";
paths = (
{
closed = 1;
nodes = (
"1010 -30 OFFCURVE",
"1226 16 OFFCURVE",
"1320 92 CURVE",
"1320 686 LINE",
"860 686 LINE",
"860 578 LINE",
"1208 578 LINE",
"1208 150 LINE",
"1150 112 OFFCURVE",
"1036 78 OFFCURVE",
"888 78 CURVE SMOOTH",
"492 78 OFFCURVE",
"232 310 OFFCURVE",
"232 700 CURVE SMOOTH",
"232 1078 OFFCURVE",
"478 1318 OFFCURVE",
"850 1318 CURVE SMOOTH",
"978 1318 OFFCURVE",
"1112 1284 OFFCURVE",
"1220 1216 CURVE",
"1276 1311 LINE",
"1167 1392 OFFCURVE",
"1014 1430 OFFCURVE",
"860 1430 CURVE SMOOTH",
"418 1430 OFFCURVE",
"112 1132 OFFCURVE",
"112 696 CURVE SMOOTH",
"112 262 OFFCURVE",
"432 -30 OFFCURVE",
"886 -30 CURVE SMOOTH"
);
}
);
width = 1500;
}
);
leftKerningGroup = O;
leftMetricsKey = O;
rightKerningGroup = G;
rightMetricsKey = "=I-20";
unicode = 0047;
},
{
color = 1;
glyphname = H;
lastChange = "2022-02-16 15:38:45 +0000";
layers = (
{
anchors = (
{
name = top;
position = "{718, 1400}";
},
{
name = topleft;
position = "{120, 1400}";
}
);
layerId = "38FA562F-EF2C-4367-983C-F15B205514DC";
paths = (
{
closed = 1;
nodes = (
"316 0 LINE",
"316 698 LINE",
"1120 698 LINE",
"1120 0 LINE",
"1236 0 LINE",
"1236 1400 LINE",
"1120 1400 LINE",
"1120 806 LINE",
"316 806 LINE",
"316 1400 LINE",
"200 1400 LINE",
"200 0 LINE"
);
}
);
width = 1436;
}
);
leftKerningGroup = H;
leftMetricsKey = I;
rightKerningGroup = H;
rightMetricsKey = "=|I";
unicode = 0048;
},
{
color = 1;
glyphname = I;
lastChange = "2022-02-16 15:38:45 +0000";
layers = (
{
anchors = (
{
name = bottom;
position = "{258, 0}";
},
{
name = ogonek;
position = "{316, 0}";
},
{
name = top;
position = "{258, 1400}";
},
{
name = topleft;
position = "{120, 1400}";
}
);
layerId = "38FA562F-EF2C-4367-983C-F15B205514DC";
paths = (
{
closed = 1;
nodes = (
"316 0 LINE",
"316 1400 LINE",
"200 1400 LINE",
"200 0 LINE"
);
}
);
width = 516;
}
);
leftKerningGroup = H;
rightKerningGroup = H;
rightMetricsKey = "=|";
unicode = 0049;
},
{
color = 9;
glyphname = Iacute;
lastChange = "2022-02-16 15:38:40 +0000";
layers = (
{
anchors = (
{
name = bottom;
position = "{258, 0}";
},
{
name = ogonek;
position = "{316, 0}";
},
{
name = top;
position = "{258, 1400}";
},
{
name = topleft;
position = "{120, 1400}";
}
);
layerId = "38FA562F-EF2C-4367-983C-F15B205514DC";
paths = (
{
closed = 1;
nodes = (
"316 0 LINE",
"316 1400 LINE",
"200 1400 LINE",
"200 0 LINE"
);
},
{
closed = 1;
nodes = (
"302 1610 LINE",
"476 1944 LINE",
"356 1944 LINE",
"196 1610 LINE"
);
}
);
width = 516;
}
);
leftKerningGroup = Idot;
rightKerningGroup = Iaccent;
unicode = 00CD;
},
{
color = 9;
glyphname = Icircumflex;
lastChange = "2022-02-16 15:38:40 +0000";
layers = (
{
anchors = (
{
name = bottom;
position = "{258, 0}";
},
{
name = ogonek;
position = "{316, 0}";
},
{
name = top;
position = "{258, 1884}";
},
{
name = top_right;
position = "{530, 1664}";
},
{
name = topleft;
position = "{120, 1400}";
}
);
layerId = "38FA562F-EF2C-4367-983C-F15B205514DC";
paths = (
{
closed = 1;
nodes = (
"316 0 LINE",
"316 1400 LINE",
"200 1400 LINE",
"200 0 LINE"
);
},
{
closed = 1;
nodes = (
"100 1610 LINE",
"262 1866 LINE",
"418 1610 LINE",
"536 1610 LINE",
"324 1944 LINE",
"206 1944 LINE",
"-18 1610 LINE"
);
}
);
width = 516;
}
);
leftKerningGroup = Iaccent;
rightKerningGroup = Iaccent;
unicode = 00CE;
},
{
color = 9;
glyphname = Idieresis;
lastChange = "2022-02-16 15:38:40 +0000";
layers = (
{
anchors = (
{
name = bottom;
position = "{258, 0}";
},
{
name = ogonek;
position = "{316, 0}";
},
{
name = top;
position = "{258, 1724}";
},
{
name = topleft;
position = "{120, 1400}";
}
);
layerId = "38FA562F-EF2C-4367-983C-F15B205514DC";
paths = (
{
closed = 1;
nodes = (
"316 0 LINE",
"316 1400 LINE",
"200 1400 LINE",
"200 0 LINE"
);
},
{
closed = 1;
nodes = (
"178 1602 OFFCURVE",
"220 1644 OFFCURVE",
"220 1696 CURVE SMOOTH",
"220 1748 OFFCURVE",
"178 1790 OFFCURVE",
"126 1790 CURVE SMOOTH",
"74 1790 OFFCURVE",
"32 1748 OFFCURVE",
"32 1696 CURVE SMOOTH",
"32 1644 OFFCURVE",
"74 1602 OFFCURVE",
"126 1602 CURVE SMOOTH"
);
},
{
closed = 1;
nodes = (
"442 1602 OFFCURVE",
"484 1644 OFFCURVE",
"484 1696 CURVE SMOOTH",
"484 1748 OFFCURVE",
"442 1790 OFFCURVE",
"390 1790 CURVE SMOOTH",
"338 1790 OFFCURVE",
"296 1748 OFFCURVE",
"296 1696 CURVE SMOOTH",
"296 1644 OFFCURVE",
"338 1602 OFFCURVE",
"390 1602 CURVE SMOOTH"
);
}
);
width = 516;
}
);
leftKerningGroup = Iaccent;
rightKerningGroup = Iaccent;
unicode = 00CF;
},
{
color = 9;
glyphname = Igrave;
lastChange = "2022-02-16 15:38:40 +0000";
layers = (
{
anchors = (
{
name = bottom;
position = "{258, 0}";
},
{
name = ogonek;
position = "{316, 0}";
},
{
name = top;
position = "{258, 1400}";
},
{
name = topleft;
position = "{120, 1400}";
}
);
layerId = "38FA562F-EF2C-4367-983C-F15B205514DC";
paths = (
{
closed = 1;
nodes = (
"316 0 LINE",
"316 1400 LINE",
"200 1400 LINE",
"200 0 LINE"
);
},
{
closed = 1;
nodes = (
"340 1594 LINE",
"152 1906 LINE",
"26 1906 LINE",
"228 1594 LINE"
);
}
);
width = 516;
}
);
leftKerningGroup = Iaccent;
rightKerningGroup = Idot;
unicode = 00CC;
},
{
color = 1;
glyphname = J;
lastChange = "2022-02-16 15:38:45 +0000";
layers = (
{
anchors = (
{
name = top;
position = "{694, 1400}";
}
);
layerId = "38FA562F-EF2C-4367-983C-F15B205514DC";
paths = (
{
closed = 1;
nodes = (
"604 -30 OFFCURVE",
"752 120 OFFCURVE",
"752 362 CURVE SMOOTH",
"752 1400 LINE",
"636 1400 LINE",
"636 366 LINE SMOOTH",
"636 160 OFFCURVE",
"530 78 OFFCURVE",
"326 78 CURVE SMOOTH",
"244 78 OFFCURVE",
"168 102 OFFCURVE",
"100 144 CURVE",
"51 44 LINE",
"144 -6 OFFCURVE",
"237 -30 OFFCURVE",
"336 -30 CURVE SMOOTH"
);
}
);
width = 950;
}
);
leftKerningGroup = J;
rightKerningGroup = U;
rightMetricsKey = "=I-2";
unicode = 004A;
},
{
color = 1;
glyphname = K;
lastChange = "2022-02-16 15:38:45 +0000";
layers = (
{
anchors = (
{
name = bottom;
position = "{692, 0}";
}
);
layerId = "38FA562F-EF2C-4367-983C-F15B205514DC";
paths = (
{
closed = 1;
nodes = (
"316 0 LINE",
"316 394 LINE",
"554 684 LINE",
"1072 0 LINE",
"1224 0 LINE",
"630 776 LINE",
"1136 1400 LINE",
"998 1400 LINE",
"316 564 LINE",
"316 1400 LINE",
"200 1400 LINE",
"200 0 LINE"
);
}
);
width = 1314;
}
);
leftKerningGroup = H;
leftMetricsKey = I;
rightKerningGroup = K;
unicode = 004B;
},
{
color = 1;
glyphname = L;
lastChange = "2022-02-16 15:38:45 +0000";
layers = (
{
anchors = (
{
name = bottom;
position = "{588, 0}";
},
{
name = caron;
position = "{316, 1440}";
},
{
name = top;
position = "{258, 1400}";
}
);
layerId = "38FA562F-EF2C-4367-983C-F15B205514DC";
paths = (
{
closed = 1;
nodes = (
"974 0 LINE",
"974 108 LINE",
"316 108 LINE",
"316 1400 LINE",
"200 1400 LINE",
"200 0 LINE"
);
}
);
width = 1054;
}
);
leftKerningGroup = H;
leftMetricsKey = I;
rightKerningGroup = L;
unicode = 004C;
},
{
color = 1;
glyphname = M;
lastChange = "2022-02-16 15:38:45 +0000";
layers = (
{
layerId = "38FA562F-EF2C-4367-983C-F15B205514DC";
paths = (
{
closed = 1;
nodes = (
"306 0 LINE",
"306 1228 LINE",
"290 1220 LINE",
"840 340 LINE",
"946 340 LINE",
"1494 1220 LINE",
"1468 1228 LINE",
"1468 0 LINE",
"1584 0 LINE",
"1584 1400 LINE",
"1476 1400 LINE",
"882 424 LINE",
"924 424 LINE",
"314 1400 LINE",
"200 1400 LINE",
"200 0 LINE"
);
}
);
width = 1784;
}
);
leftKerningGroup = H;
leftMetricsKey = I;
rightKerningGroup = H;
rightMetricsKey = I;
unicode = 004D;
},
{
color = 1;
glyphname = N;
lastChange = "2022-02-16 15:38:45 +0000";
layers = (
{
anchors = (
{
name = bottom;
position = "{726, 0}";
},
{
name = top;
position = "{726, 1400}";
}
);
guideLines = (
{
angle = 270;
position = "{568, 406}";
},
{
angle = 90;
position = "{158, 297}";
}
);
layerId = "38FA562F-EF2C-4367-983C-F15B205514DC";
paths = (
{
closed = 1;
nodes = (
"316 0 LINE",
"316 1188 LINE",
"1152 0 LINE",
"1252 0 LINE",
"1252 1400 LINE",
"1136 1400 LINE",
"1136 224 LINE",
"300 1400 LINE",
"200 1400 LINE",
"200 0 LINE"
);
}
);
width = 1452;
}
);
leftKerningGroup = H;
leftMetricsKey = I;
rightKerningGroup = H;
rightMetricsKey = I;
unicode = 004E;
},
{
color = 9;
glyphname = Ntilde;
lastChange = "2022-02-16 15:38:40 +0000";
layers = (
{
anchors = (
{
name = bottom;
position = "{726, 0}";
},
{
name = top;
position = "{726, 1760}";
}
);
layerId = "38FA562F-EF2C-4367-983C-F15B205514DC";
paths = (
{
closed = 1;
nodes = (
"316 0 LINE",
"316 1188 LINE",
"1152 0 LINE",
"1252 0 LINE",
"1252 1400 LINE",
"1136 1400 LINE",
"1136 224 LINE",
"300 1400 LINE",
"200 1400 LINE",
"200 0 LINE"
);
},
{
closed = 1;
nodes = (
"478 1712 OFFCURVE",
"520 1750 OFFCURVE",
"576 1750 CURVE SMOOTH",
"666 1750 OFFCURVE",
"762 1654 OFFCURVE",
"874 1654 CURVE SMOOTH",
"962 1654 OFFCURVE",
"1036 1716 OFFCURVE",
"1080 1820 CURVE",
"1004 1866 LINE",
"976 1794 OFFCURVE",
"934 1750 OFFCURVE",
"876 1750 CURVE SMOOTH",
"786 1750 OFFCURVE",
"690 1848 OFFCURVE",
"576 1848 CURVE SMOOTH",
"484 1848 OFFCURVE",
"414 1780 OFFCURVE",
"372 1678 CURVE",
"448 1634 LINE"
);
}
);
width = 1452;
}
);
leftKerningGroup = H;
rightKerningGroup = H;
unicode = 00D1;
},
{
color = 1;
glyphname = O;
lastChange = "2022-02-16 15:38:45 +0000";
layers = (
{
anchors = (
{
name = bottom;
position = "{838, 0}";
},
{
name = horn;
position = "{1240, 1400}";
},
{
name = ogonek;
position = "{1050, 0}";
},
{
name = top;
position = "{838, 1400}";
},
{
name = topleft;
position = "{152, 1400}";
}
);
layerId = "38FA562F-EF2C-4367-983C-F15B205514DC";
paths = (
{
closed = 1;
nodes = (
"1246 -30 OFFCURVE",
"1564 286 OFFCURVE",
"1564 700 CURVE SMOOTH",
"1564 1108 OFFCURVE",
"1246 1430 OFFCURVE",
"838 1430 CURVE SMOOTH",
"426 1430 OFFCURVE",
"112 1116 OFFCURVE",
"112 700 CURVE SMOOTH",
"112 286 OFFCURVE",
"426 -30 OFFCURVE",
"838 -30 CURVE SMOOTH"
);
},
{
closed = 1;
nodes = (
"502 82 OFFCURVE",
"232 328 OFFCURVE",
"232 700 CURVE SMOOTH",
"232 1072 OFFCURVE",
"502 1318 OFFCURVE",
"838 1318 CURVE SMOOTH",
"1174 1318 OFFCURVE",
"1444 1072 OFFCURVE",
"1444 700 CURVE SMOOTH",
"1444 328 OFFCURVE",
"1174 82 OFFCURVE",
"838 82 CURVE SMOOTH"
);
}
);
width = 1676;
}
);
leftKerningGroup = O;
rightKerningGroup = O;
rightMetricsKey = "=|";
unicode = 004F;
},
{
color = 9;
glyphname = Oacute;
lastChange = "2022-02-16 15:38:40 +0000";
layers = (
{
anchors = (
{
name = bottom;
position = "{838, 0}";
},
{
name = horn;
position = "{1240, 1400}";
},
{
name = ogonek;
position = "{1050, 0}";
},
{
name = top;
position = "{838, 1400}";
},
{
name = topleft;
position = "{152, 1400}";
}
);
layerId = "38FA562F-EF2C-4367-983C-F15B205514DC";
paths = (
{
closed = 1;
nodes = (
"1246 -30 OFFCURVE",
"1564 286 OFFCURVE",
"1564 700 CURVE SMOOTH",
"1564 1108 OFFCURVE",
"1246 1430 OFFCURVE",
"838 1430 CURVE SMOOTH",
"426 1430 OFFCURVE",
"112 1116 OFFCURVE",
"112 700 CURVE SMOOTH",
"112 286 OFFCURVE",
"426 -30 OFFCURVE",
"838 -30 CURVE SMOOTH"
);
},
{
closed = 1;
nodes = (
"502 82 OFFCURVE",
"232 328 OFFCURVE",
"232 700 CURVE SMOOTH",
"232 1072 OFFCURVE",
"502 1318 OFFCURVE",
"838 1318 CURVE SMOOTH",
"1174 1318 OFFCURVE",
"1444 1072 OFFCURVE",
"1444 700 CURVE SMOOTH",
"1444 328 OFFCURVE",
"1174 82 OFFCURVE",
"838 82 CURVE SMOOTH"
);
},
{
closed = 1;
nodes = (
"882 1594 LINE",
"1084 1906 LINE",
"964 1906 LINE",
"774 1594 LINE"
);
}
);
width = 1676;
}
);
leftKerningGroup = O;
rightKerningGroup = O;
unicode = 00D3;
},
{
color = 9;
glyphname = Ocircumflex;
lastChange = "2022-02-16 15:38:40 +0000";
layers = (
{
anchors = (
{
name = bottom;
position = "{838, 0}";
},
{
name = horn;
position = "{1240, 1400}";
},
{
name = ogonek;
position = "{1050, 0}";
},
{
name = top;
position = "{838, 1850}";
},
{
name = top_right;
position = "{1156, 1648}";
},
{
name = topleft;
position = "{152, 1400}";
}
);
layerId = "38FA562F-EF2C-4367-983C-F15B205514DC";
paths = (
{
closed = 1;
nodes = (
"1246 -30 OFFCURVE",
"1564 286 OFFCURVE",
"1564 700 CURVE SMOOTH",
"1564 1108 OFFCURVE",
"1246 1430 OFFCURVE",
"838 1430 CURVE SMOOTH",
"426 1430 OFFCURVE",
"112 1116 OFFCURVE",
"112 700 CURVE SMOOTH",
"112 286 OFFCURVE",
"426 -30 OFFCURVE",
"838 -30 CURVE SMOOTH"
);
},
{
closed = 1;
nodes = (
"502 82 OFFCURVE",
"232 328 OFFCURVE",
"232 700 CURVE SMOOTH",
"232 1072 OFFCURVE",
"502 1318 OFFCURVE",
"838 1318 CURVE SMOOTH",
"1174 1318 OFFCURVE",
"1444 1072 OFFCURVE",
"1444 700 CURVE SMOOTH",
"1444 328 OFFCURVE",
"1174 82 OFFCURVE",
"838 82 CURVE SMOOTH"
);
},
{
closed = 1;
nodes = (
"638 1594 LINE",
"844 1830 LINE",
"1042 1594 LINE",
"1162 1594 LINE",
"910 1906 LINE",
"784 1906 LINE",
"514 1594 LINE"
);
}
);
width = 1676;
}
);
leftKerningGroup = O;
rightKerningGroup = O;
unicode = 00D4;
},
{
color = 9;
glyphname = Odieresis;
lastChange = "2022-02-16 15:38:40 +0000";
layers = (
{
anchors = (
{
name = bottom;
position = "{838, 0}";
},
{
name = horn;
position = "{1240, 1400}";
},
{
name = ogonek;
position = "{1050, 0}";
},
{
name = top;
position = "{838, 1706}";
},
{
name = topleft;
position = "{152, 1400}";
}
);
layerId = "38FA562F-EF2C-4367-983C-F15B205514DC";
paths = (
{
closed = 1;
nodes = (
"1246 -30 OFFCURVE",
"1564 286 OFFCURVE",
"1564 700 CURVE SMOOTH",
"1564 1108 OFFCURVE",
"1246 1430 OFFCURVE",
"838 1430 CURVE SMOOTH",
"426 1430 OFFCURVE",
"112 1116 OFFCURVE",
"112 700 CURVE SMOOTH",
"112 286 OFFCURVE",
"426 -30 OFFCURVE",
"838 -30 CURVE SMOOTH"
);
},
{
closed = 1;
nodes = (
"502 82 OFFCURVE",
"232 328 OFFCURVE",
"232 700 CURVE SMOOTH",
"232 1072 OFFCURVE",
"502 1318 OFFCURVE",
"838 1318 CURVE SMOOTH",
"1174 1318 OFFCURVE",
"1444 1072 OFFCURVE",
"1444 700 CURVE SMOOTH",
"1444 328 OFFCURVE",
"1174 82 OFFCURVE",
"838 82 CURVE SMOOTH"
);
},
{
closed = 1;
nodes = (
"706 1586 OFFCURVE",
"748 1628 OFFCURVE",
"748 1678 CURVE SMOOTH",
"748 1728 OFFCURVE",
"704 1768 OFFCURVE",
"652 1768 CURVE SMOOTH",
"600 1768 OFFCURVE",
"556 1728 OFFCURVE",
"556 1678 CURVE SMOOTH",
"556 1628 OFFCURVE",
"598 1586 OFFCURVE",
"652 1586 CURVE SMOOTH"
);
},
{
closed = 1;
nodes = (
"1078 1586 OFFCURVE",
"1122 1628 OFFCURVE",
"1122 1678 CURVE SMOOTH",
"1122 1728 OFFCURVE",
"1078 1768 OFFCURVE",
"1026 1768 CURVE SMOOTH",
"972 1768 OFFCURVE",
"930 1726 OFFCURVE",
"930 1678 CURVE SMOOTH",
"930 1628 OFFCURVE",
"972 1586 OFFCURVE",
"1026 1586 CURVE SMOOTH"
);
}
);
width = 1676;
}
);
leftKerningGroup = O;
rightKerningGroup = O;
unicode = 00D6;
},
{
color = 9;
glyphname = Ograve;
lastChange = "2022-02-16 15:38:40 +0000";
layers = (
{
anchors = (
{
name = bottom;
position = "{838, 0}";
},
{
name = horn;
position = "{1240, 1400}";
},
{
name = ogonek;
position = "{1050, 0}";
},
{
name = top;
position = "{838, 1400}";
},
{
name = topleft;
position = "{152, 1400}";
}
);
layerId = "38FA562F-EF2C-4367-983C-F15B205514DC";
paths = (
{
closed = 1;
nodes = (
"1246 -30 OFFCURVE",
"1564 286 OFFCURVE",
"1564 700 CURVE SMOOTH",
"1564 1108 OFFCURVE",
"1246 1430 OFFCURVE",
"838 1430 CURVE SMOOTH",
"426 1430 OFFCURVE",
"112 1116 OFFCURVE",
"112 700 CURVE SMOOTH",
"112 286 OFFCURVE",
"426 -30 OFFCURVE",
"838 -30 CURVE SMOOTH"
);
},
{
closed = 1;
nodes = (
"502 82 OFFCURVE",
"232 328 OFFCURVE",
"232 700 CURVE SMOOTH",
"232 1072 OFFCURVE",
"502 1318 OFFCURVE",
"838 1318 CURVE SMOOTH",
"1174 1318 OFFCURVE",
"1444 1072 OFFCURVE",
"1444 700 CURVE SMOOTH",
"1444 328 OFFCURVE",
"1174 82 OFFCURVE",
"838 82 CURVE SMOOTH"
);
},
{
closed = 1;
nodes = (
"920 1594 LINE",
"732 1906 LINE",
"606 1906 LINE",
"808 1594 LINE"
);
}
);
width = 1676;
}
);
leftKerningGroup = O;
rightKerningGroup = O;
unicode = 00D2;
},
{
color = 9;
glyphname = Oslash;
lastChange = "2022-02-16 15:38:40 +0000";
layers = (
{
anchors = (
{
name = top;
position = "{838, 1400}";
}
);
layerId = "38FA562F-EF2C-4367-983C-F15B205514DC";
paths = (
{
closed = 1;
nodes = (
"412 102 LINE",
"530 18 OFFCURVE",
"676 -30 OFFCURVE",
"838 -30 CURVE SMOOTH",
"1246 -30 OFFCURVE",
"1564 286 OFFCURVE",
"1564 700 CURVE SMOOTH",
"1564 908 OFFCURVE",
"1482 1094 OFFCURVE",
"1346 1226 CURVE",
"1472 1378 LINE",
"1392 1450 LINE",
"1264 1296 LINE",
"1144 1380 OFFCURVE",
"998 1430 OFFCURVE",
"838 1430 CURVE SMOOTH",
"426 1430 OFFCURVE",
"112 1116 OFFCURVE",
"112 700 CURVE SMOOTH",
"112 488 OFFCURVE",
"194 304 OFFCURVE",
"328 172 CURVE",
"204 22 LINE",
"284 -50 LINE"
);
},
{
closed = 1;
nodes = (
"296 366 OFFCURVE",
"232 518 OFFCURVE",
"232 700 CURVE SMOOTH",
"232 1072 OFFCURVE",
"502 1318 OFFCURVE",
"838 1318 CURVE SMOOTH",
"970 1318 OFFCURVE",
"1094 1280 OFFCURVE",
"1192 1210 CURVE",
"402 260 LINE"
);
},
{
closed = 1;
nodes = (
"706 82 OFFCURVE",
"582 120 OFFCURVE",
"484 190 CURVE",
"1274 1140 LINE",
"1380 1034 OFFCURVE",
"1444 882 OFFCURVE",
"1444 700 CURVE SMOOTH",
"1444 328 OFFCURVE",
"1174 82 OFFCURVE",
"838 82 CURVE SMOOTH"
);
}
);
width = 1676;
}
);
leftKerningGroup = Oslash;
widthMetricsKey = O;
rightKerningGroup = Oslash;
unicode = 00D8;
},
{
color = 9;
glyphname = Otilde;
lastChange = "2022-02-16 15:38:40 +0000";
layers = (
{
anchors = (
{
name = bottom;
position = "{838, 0}";
},
{
name = horn;
position = "{1240, 1400}";
},
{
name = ogonek;
position = "{1050, 0}";
},
{
name = top;
position = "{838, 1760}";
},
{
name = topleft;
position = "{152, 1400}";
}
);
layerId = "38FA562F-EF2C-4367-983C-F15B205514DC";
paths = (
{
closed = 1;
nodes = (
"1246 -30 OFFCURVE",
"1564 286 OFFCURVE",
"1564 700 CURVE SMOOTH",
"1564 1108 OFFCURVE",
"1246 1430 OFFCURVE",
"838 1430 CURVE SMOOTH",
"426 1430 OFFCURVE",
"112 1116 OFFCURVE",
"112 700 CURVE SMOOTH",
"112 286 OFFCURVE",
"426 -30 OFFCURVE",
"838 -30 CURVE SMOOTH"
);
},
{
closed = 1;
nodes = (
"502 82 OFFCURVE",
"232 328 OFFCURVE",
"232 700 CURVE SMOOTH",
"232 1072 OFFCURVE",
"502 1318 OFFCURVE",
"838 1318 CURVE SMOOTH",
"1174 1318 OFFCURVE",
"1444 1072 OFFCURVE",
"1444 700 CURVE SMOOTH",
"1444 328 OFFCURVE",
"1174 82 OFFCURVE",
"838 82 CURVE SMOOTH"
);
},
{
closed = 1;
nodes = (
"590 1712 OFFCURVE",
"632 1750 OFFCURVE",
"688 1750 CURVE SMOOTH",
"778 1750 OFFCURVE",
"874 1654 OFFCURVE",
"986 1654 CURVE SMOOTH",
"1074 1654 OFFCURVE",
"1148 1716 OFFCURVE",
"1192 1820 CURVE",
"1116 1866 LINE",
"1088 1794 OFFCURVE",
"1046 1750 OFFCURVE",
"988 1750 CURVE SMOOTH",
"898 1750 OFFCURVE",
"802 1848 OFFCURVE",
"688 1848 CURVE SMOOTH",
"596 1848 OFFCURVE",
"526 1780 OFFCURVE",
"484 1678 CURVE",
"560 1634 LINE"
);
}
);
width = 1676;
}
);
leftKerningGroup = O;
rightKerningGroup = O;
unicode = 00D5;
},
{
color = 9;
glyphname = OE;
lastChange = "2022-02-16 15:38:40 +0000";
layers = (
{
layerId = "38FA562F-EF2C-4367-983C-F15B205514DC";
paths = (
{
closed = 1;
nodes = (
"1106 -30 OFFCURVE",
"1338 114 OFFCURVE",
"1460 336 CURVE",
"1444 358 LINE",
"1444 0 LINE",
"2274 0 LINE",
"2274 108 LINE",
"1560 108 LINE",
"1560 688 LINE",
"2188 688 LINE",
"2188 796 LINE",
"1560 796 LINE",
"1560 1292 LINE",
"2268 1292 LINE",
"2268 1400 LINE",
"1444 1400 LINE",
"1444 1040 LINE",
"1460 1062 LINE",
"1338 1284 OFFCURVE",
"1106 1430 OFFCURVE",
"832 1430 CURVE SMOOTH",
"424 1430 OFFCURVE",
"112 1116 OFFCURVE",
"112 700 CURVE SMOOTH",
"112 286 OFFCURVE",
"424 -30 OFFCURVE",
"832 -30 CURVE SMOOTH"
);
},
{
closed = 1;
nodes = (
"502 82 OFFCURVE",
"232 328 OFFCURVE",
"232 700 CURVE SMOOTH",
"232 1072 OFFCURVE",
"502 1318 OFFCURVE",
"838 1318 CURVE SMOOTH",
"1174 1318 OFFCURVE",
"1444 1072 OFFCURVE",
"1444 700 CURVE SMOOTH",
"1444 328 OFFCURVE",
"1174 82 OFFCURVE",
"838 82 CURVE SMOOTH"
);
}
);
width = 2424;
}
);
leftKerningGroup = O;
leftMetricsKey = O;
rightKerningGroup = E;
rightMetricsKey = E;
unicode = 0152;
},
{
color = 1;
glyphname = P;
lastChange = "2022-02-16 15:38:45 +0000";
layers = (
{
layerId = "38FA562F-EF2C-4367-983C-F15B205514DC";
paths = (
{
closed = 1;
nodes = (
"316 0 LINE",
"316 604 LINE",
"650 604 LINE SMOOTH",
"958 604 OFFCURVE",
"1130 742 OFFCURVE",
"1130 1000 CURVE SMOOTH",
"1130 1250 OFFCURVE",
"936 1400 OFFCURVE",
"652 1400 CURVE SMOOTH",
"200 1400 LINE",
"200 0 LINE"
);
},
{
closed = 1;
nodes = (
"316 1292 LINE",
"666 1292 LINE SMOOTH",
"882 1292 OFFCURVE",
"1014 1176 OFFCURVE",
"1014 996 CURVE SMOOTH",
"1014 810 OFFCURVE",
"886 712 OFFCURVE",
"664 712 CURVE SMOOTH",
"316 712 LINE"
);
}
);
width = 1220;
}
);
leftKerningGroup = H;
leftMetricsKey = I;
rightKerningGroup = P;
unicode = 0050;
},
{
color = 9;
glyphname = Thorn;
lastChange = "2022-02-16 15:38:40 +0000";
layers = (
{
layerId = "38FA562F-EF2C-4367-983C-F15B205514DC";
paths = (
{
closed = 1;
nodes = (
"316 0 LINE",
"316 322 LINE",
"670 322 LINE SMOOTH",
"978 322 OFFCURVE",
"1150 460 OFFCURVE",
"1150 718 CURVE SMOOTH",
"1150 968 OFFCURVE",
"956 1118 OFFCURVE",
"672 1118 CURVE SMOOTH",
"316 1118 LINE",
"316 1400 LINE",
"200 1400 LINE",
"200 0 LINE"
);
},
{
closed = 1;
nodes = (
"316 1010 LINE",
"686 1010 LINE SMOOTH",
"902 1010 OFFCURVE",
"1034 894 OFFCURVE",
"1034 714 CURVE SMOOTH",
"1034 528 OFFCURVE",
"906 430 OFFCURVE",
"684 430 CURVE SMOOTH",
"316 430 LINE"
);
}
);
width = 1230;
}
);
leftKerningGroup = H;
leftMetricsKey = H;
rightKerningGroup = Thorn;
rightMetricsKey = o;
unicode = 00DE;
},
{
color = 1;
glyphname = Q;
lastChange = "2022-02-16 15:38:45 +0000";
layers = (
{
layerId = "38FA562F-EF2C-4367-983C-F15B205514DC";
paths = (
{
closed = 1;
nodes = (
"1492 18 LINE",
"1354 180 LINE",
"1484 312 OFFCURVE",
"1564 494 OFFCURVE",
"1564 700 CURVE SMOOTH",
"1564 1108 OFFCURVE",
"1246 1430 OFFCURVE",
"838 1430 CURVE SMOOTH",
"426 1430 OFFCURVE",
"112 1116 OFFCURVE",
"112 700 CURVE SMOOTH",
"112 286 OFFCURVE",
"426 -30 OFFCURVE",
"838 -30 CURVE SMOOTH",
"1006 -30 OFFCURVE",
"1158 24 OFFCURVE",
"1280 114 CURVE",
"1418 -50 LINE"
);
},
{
closed = 1;
nodes = (
"502 82 OFFCURVE",
"232 328 OFFCURVE",
"232 700 CURVE SMOOTH",
"232 1072 OFFCURVE",
"502 1318 OFFCURVE",
"838 1318 CURVE SMOOTH",
"1174 1318 OFFCURVE",
"1444 1072 OFFCURVE",
"1444 700 CURVE SMOOTH",
"1444 522 OFFCURVE",
"1382 374 OFFCURVE",
"1282 266 CURVE",
"1036 548 LINE",
"962 480 LINE",
"1206 200 LINE",
"1104 124 OFFCURVE",
"978 82 OFFCURVE",
"838 82 CURVE SMOOTH"
);
}
);
width = 1676;
}
);
leftKerningGroup = O;
leftMetricsKey = O;
widthMetricsKey = O;
rightKerningGroup = Q;
unicode = 0051;
},
{
color = 1;
glyphname = R;
lastChange = "2022-02-16 15:38:45 +0000";
layers = (
{
anchors = (
{
name = bottom;
position = "{684, 0}";
},
{
name = top;
position = "{618, 1400}";
}
);
layerId = "38FA562F-EF2C-4367-983C-F15B205514DC";
paths = (
{
closed = 1;
nodes = (
"316 0 LINE",
"316 614 LINE",
"574 614 LINE",
"1036 0 LINE",
"1184 0 LINE",
"716 616 LINE",
"968 640 OFFCURVE",
"1124 786 OFFCURVE",
"1124 998 CURVE SMOOTH",
"1124 1240 OFFCURVE",
"958 1400 OFFCURVE",
"690 1400 CURVE SMOOTH",
"200 1400 LINE",
"200 0 LINE"
);
},
{
closed = 1;
nodes = (
"316 1292 LINE",
"680 1292 LINE SMOOTH",
"904 1292 OFFCURVE",
"1008 1174 OFFCURVE",
"1008 998 CURVE SMOOTH",
"1008 828 OFFCURVE",
"878 722 OFFCURVE",
"656 722 CURVE SMOOTH",
"316 722 LINE"
);
}
);
width = 1284;
}
);
leftKerningGroup = H;
leftMetricsKey = I;
rightKerningGroup = R;
unicode = 0052;
},
{
color = 1;
glyphname = S;
lastChange = "2022-02-16 15:38:45 +0000";
layers = (
{
anchors = (
{
name = bottom;
position = "{622, 0}";
},
{
name = top;
position = "{636, 1400}";
}
);
layerId = "38FA562F-EF2C-4367-983C-F15B205514DC";
paths = (
{
closed = 1;
nodes = (
"940 -30 OFFCURVE",
"1110 128 OFFCURVE",
"1110 360 CURVE SMOOTH",
"1110 548 OFFCURVE",
"1000 658 OFFCURVE",
"768 726 CURVE SMOOTH",
"586 780 LINE SMOOTH",
"342 852 OFFCURVE",
"272 926 OFFCURVE",
"272 1050 CURVE SMOOTH",
"272 1228 OFFCURVE",
"416 1324 OFFCURVE",
"624 1324 CURVE SMOOTH",
"760 1324 OFFCURVE",
"894 1282 OFFCURVE",
"990 1208 CURVE",
"1055 1299 LINE",
"958 1378 OFFCURVE",
"811 1430 OFFCURVE",
"646 1430 CURVE SMOOTH",
"362 1430 OFFCURVE",
"164 1284 OFFCURVE",
"164 1042 CURVE SMOOTH",
"164 864 OFFCURVE",
"274 758 OFFCURVE",
"516 686 CURVE SMOOTH",
"684 636 LINE SMOOTH",
"928 564 OFFCURVE",
"1002 480 OFFCURVE",
"1002 352 CURVE SMOOTH",
"1002 172 OFFCURVE",
"852 78 OFFCURVE",
"624 78 CURVE SMOOTH",
"468 78 OFFCURVE",
"326 122 OFFCURVE",
"216 204 CURVE",
"152 108 LINE",
"266 18 OFFCURVE",
"446 -30 OFFCURVE",
"622 -30 CURVE SMOOTH"
);
}
);
width = 1234;
}
);
leftKerningGroup = S;
rightKerningGroup = S;
unicode = 0053;
},
{
color = 1;
glyphname = T;
lastChange = "2022-02-16 15:38:45 +0000";
layers = (
{
anchors = (
{
name = bar;
position = "{542, 722}";
},
{
name = bottom;
position = "{542, 0}";
},
{
name = top;
position = "{542, 1400}";
}
);
layerId = "38FA562F-EF2C-4367-983C-F15B205514DC";
paths = (
{
closed = 1;
nodes = (
"600 0 LINE",
"600 1292 LINE",
"1014 1292 LINE",
"1014 1400 LINE",
"70 1400 LINE",
"70 1292 LINE",
"484 1292 LINE",
"484 0 LINE"
);
}
);
width = 1084;
}
);
leftKerningGroup = T;
rightKerningGroup = T;
unicode = 0054;
},
{
color = 1;
glyphname = U;
lastChange = "2022-02-16 15:38:45 +0000";
layers = (
{
anchors = (
{
name = bottom;
position = "{722, 0}";
},
{
name = horn;
position = "{1254, 1400}";
},
{
name = ogonek;
position = "{1038, 0}";
},
{
name = top;
position = "{722, 1400}";
}
);
guideLines = (
{
angle = 90;
position = "{1138, 0}";
}
);
layerId = "38FA562F-EF2C-4367-983C-F15B205514DC";
paths = (
{
closed = 1;
nodes = (
"1078 -30 OFFCURVE",
"1254 218 OFFCURVE",
"1254 516 CURVE SMOOTH",
"1254 1400 LINE",
"1138 1400 LINE",
"1138 532 LINE SMOOTH",
"1138 230 OFFCURVE",
"974 82 OFFCURVE",
"722 82 CURVE SMOOTH",
"470 82 OFFCURVE",
"306 230 OFFCURVE",
"306 532 CURVE SMOOTH",
"306 1400 LINE",
"190 1400 LINE",
"190 516 LINE SMOOTH",
"190 218 OFFCURVE",
"366 -30 OFFCURVE",
"722 -30 CURVE SMOOTH"
);
}
);
width = 1444;
}
);
leftKerningGroup = U;
leftMetricsKey = "=I/1.05";
rightKerningGroup = U;
rightMetricsKey = "=|";
unicode = 0055;
},
{
color = 9;
glyphname = Uacute;
lastChange = "2022-02-16 15:38:40 +0000";
layers = (
{
anchors = (
{
name = bottom;
position = "{722, 0}";
},
{
name = horn;
position = "{1254, 1400}";
},
{
name = ogonek;
position = "{1038, 0}";
},
{
name = top;
position = "{722, 1400}";
}
);
layerId = "38FA562F-EF2C-4367-983C-F15B205514DC";
paths = (
{
closed = 1;
nodes = (
"1078 -30 OFFCURVE",
"1254 218 OFFCURVE",
"1254 516 CURVE SMOOTH",
"1254 1400 LINE",
"1138 1400 LINE",
"1138 532 LINE SMOOTH",
"1138 230 OFFCURVE",
"974 82 OFFCURVE",
"722 82 CURVE SMOOTH",
"470 82 OFFCURVE",
"306 230 OFFCURVE",
"306 532 CURVE SMOOTH",
"306 1400 LINE",
"190 1400 LINE",
"190 516 LINE SMOOTH",
"190 218 OFFCURVE",
"366 -30 OFFCURVE",
"722 -30 CURVE SMOOTH"
);
},
{
closed = 1;
nodes = (
"766 1594 LINE",
"968 1906 LINE",
"848 1906 LINE",
"658 1594 LINE"
);
}
);
width = 1444;
}
);
leftKerningGroup = U;
rightKerningGroup = U;
unicode = 00DA;
},
{
color = 9;
glyphname = Ucircumflex;
lastChange = "2022-02-16 15:38:40 +0000";
layers = (
{
anchors = (
{
name = bottom;
position = "{722, 0}";
},
{
name = horn;
position = "{1254, 1400}";
},
{
name = ogonek;
position = "{1038, 0}";
},
{
name = top;
position = "{722, 1850}";
},
{
name = top_right;
position = "{1040, 1648}";
}
);
layerId = "38FA562F-EF2C-4367-983C-F15B205514DC";
paths = (
{
closed = 1;
nodes = (
"1078 -30 OFFCURVE",
"1254 218 OFFCURVE",
"1254 516 CURVE SMOOTH",
"1254 1400 LINE",
"1138 1400 LINE",
"1138 532 LINE SMOOTH",
"1138 230 OFFCURVE",
"974 82 OFFCURVE",
"722 82 CURVE SMOOTH",
"470 82 OFFCURVE",
"306 230 OFFCURVE",
"306 532 CURVE SMOOTH",
"306 1400 LINE",
"190 1400 LINE",
"190 516 LINE SMOOTH",
"190 218 OFFCURVE",
"366 -30 OFFCURVE",
"722 -30 CURVE SMOOTH"
);
},
{
closed = 1;
nodes = (
"522 1594 LINE",
"728 1830 LINE",
"926 1594 LINE",
"1046 1594 LINE",
"794 1906 LINE",
"668 1906 LINE",
"398 1594 LINE"
);
}
);
width = 1444;
}
);
leftKerningGroup = U;
rightKerningGroup = U;
unicode = 00DB;
},
{
color = 9;
glyphname = Udieresis;
lastChange = "2022-02-16 15:38:40 +0000";
layers = (
{
anchors = (
{
name = bottom;
position = "{722, 0}";
},
{
name = horn;
position = "{1254, 1400}";
},
{
name = ogonek;
position = "{1038, 0}";
},
{
name = top;
position = "{722, 1706}";
}
);
layerId = "38FA562F-EF2C-4367-983C-F15B205514DC";
paths = (
{
closed = 1;
nodes = (
"1078 -30 OFFCURVE",
"1254 218 OFFCURVE",
"1254 516 CURVE SMOOTH",
"1254 1400 LINE",
"1138 1400 LINE",
"1138 532 LINE SMOOTH",
"1138 230 OFFCURVE",
"974 82 OFFCURVE",
"722 82 CURVE SMOOTH",
"470 82 OFFCURVE",
"306 230 OFFCURVE",
"306 532 CURVE SMOOTH",
"306 1400 LINE",
"190 1400 LINE",
"190 516 LINE SMOOTH",
"190 218 OFFCURVE",
"366 -30 OFFCURVE",
"722 -30 CURVE SMOOTH"
);
},
{
closed = 1;
nodes = (
"590 1586 OFFCURVE",
"632 1628 OFFCURVE",
"632 1678 CURVE SMOOTH",
"632 1728 OFFCURVE",
"588 1768 OFFCURVE",
"536 1768 CURVE SMOOTH",
"484 1768 OFFCURVE",
"440 1728 OFFCURVE",
"440 1678 CURVE SMOOTH",
"440 1628 OFFCURVE",
"482 1586 OFFCURVE",
"536 1586 CURVE SMOOTH"
);
},
{
closed = 1;
nodes = (
"962 1586 OFFCURVE",
"1006 1628 OFFCURVE",
"1006 1678 CURVE SMOOTH",
"1006 1728 OFFCURVE",
"962 1768 OFFCURVE",
"910 1768 CURVE SMOOTH",
"856 1768 OFFCURVE",
"814 1726 OFFCURVE",
"814 1678 CURVE SMOOTH",
"814 1628 OFFCURVE",
"856 1586 OFFCURVE",
"910 1586 CURVE SMOOTH"
);
}
);
width = 1444;
}
);
leftKerningGroup = U;
rightKerningGroup = U;
unicode = 00DC;
},
{
color = 9;
glyphname = Ugrave;
lastChange = "2022-02-16 15:38:40 +0000";
layers = (
{
anchors = (
{
name = bottom;
position = "{722, 0}";
},
{
name = horn;
position = "{1254, 1400}";
},
{
name = ogonek;
position = "{1038, 0}";
},
{
name = top;
position = "{722, 1400}";
}
);
layerId = "38FA562F-EF2C-4367-983C-F15B205514DC";
paths = (
{
closed = 1;
nodes = (
"1078 -30 OFFCURVE",
"1254 218 OFFCURVE",
"1254 516 CURVE SMOOTH",
"1254 1400 LINE",
"1138 1400 LINE",
"1138 532 LINE SMOOTH",
"1138 230 OFFCURVE",
"974 82 OFFCURVE",
"722 82 CURVE SMOOTH",
"470 82 OFFCURVE",
"306 230 OFFCURVE",
"306 532 CURVE SMOOTH",
"306 1400 LINE",
"190 1400 LINE",
"190 516 LINE SMOOTH",
"190 218 OFFCURVE",
"366 -30 OFFCURVE",
"722 -30 CURVE SMOOTH"
);
},
{
closed = 1;
nodes = (
"804 1594 LINE",
"616 1906 LINE",
"490 1906 LINE",
"692 1594 LINE"
);
}
);
width = 1444;
}
);
leftKerningGroup = U;
rightKerningGroup = U;
unicode = 00D9;
},
{
color = 1;
glyphname = V;
lastChange = "2022-02-16 15:38:45 +0000";
layers = (
{
layerId = "38FA562F-EF2C-4367-983C-F15B205514DC";
paths = (
{
closed = 1;
nodes = (
"690 0 LINE",
"1226 1400 LINE",
"1100 1400 LINE",
"642 176 LINE",
"160 1400 LINE",
"30 1400 LINE",
"590 0 LINE"
);
}
);
width = 1256;
}
);
leftKerningGroup = V;
rightKerningGroup = V;
rightMetricsKey = "=|";
unicode = 0056;
},
{
color = 1;
glyphname = W;
lastChange = "2022-02-16 15:38:45 +0000";
layers = (
{
anchors = (
{
name = top;
position = "{1002, 1400}";
}
);
layerId = "38FA562F-EF2C-4367-983C-F15B205514DC";
paths = (
{
closed = 1;
nodes = (
"630 0 LINE",
"1004 1218 LINE",
"1372 0 LINE",
"1520 0 LINE",
"1936 1400 LINE",
"1814 1400 LINE",
"1446 128 LINE",
"1070 1400 LINE",
"936 1400 LINE",
"558 126 LINE",
"190 1400 LINE",
"64 1400 LINE",
"482 0 LINE"
);
}
);
width = 2000;
}
);
leftKerningGroup = V;
rightKerningGroup = V;
unicode = 0057;
},
{
color = 1;
glyphname = X;
lastChange = "2022-02-16 15:38:45 +0000";
layers = (
{
layerId = "38FA562F-EF2C-4367-983C-F15B205514DC";
paths = (
{
closed = 1;
nodes = (
"208 0 LINE",
"632 640 LINE",
"1078 0 LINE",
"1214 0 LINE",
"716 716 LINE",
"1196 1400 LINE",
"1066 1400 LINE",
"638 800 LINE",
"244 1400 LINE",
"108 1400 LINE",
"552 722 LINE",
"78 0 LINE"
);
}
);
width = 1292;
}
);
leftKerningGroup = X;
rightKerningGroup = X;
rightMetricsKey = "=|";
unicode = 0058;
},
{
color = 1;
glyphname = Y;
lastChange = "2022-02-16 15:38:45 +0000";
layers = (
{
anchors = (
{
name = bottom;
position = "{590, 0}";
},
{
name = top;
position = "{590, 1400}";
},
{
name = topleft;
position = "{-20, 1400}";
}
);
layerId = "38FA562F-EF2C-4367-983C-F15B205514DC";
paths = (
{
closed = 1;
nodes = (
"648 0 LINE",
"648 624 LINE",
"1146 1400 LINE",
"1010 1400 LINE",
"594 738 LINE",
"174 1400 LINE",
"34 1400 LINE",
"532 624 LINE",
"532 0 LINE"
);
}
);
width = 1180;
}
);
leftKerningGroup = Y;
rightKerningGroup = Y;
rightMetricsKey = "=|";
unicode = 0059;
},
{
color = 9;
glyphname = Yacute;
lastChange = "2022-02-16 15:38:40 +0000";
layers = (
{
anchors = (
{
name = bottom;
position = "{590, 0}";
},
{
name = top;
position = "{590, 1400}";
},
{
name = topleft;
position = "{-20, 1400}";
}
);
layerId = "38FA562F-EF2C-4367-983C-F15B205514DC";
paths = (
{
closed = 1;
nodes = (
"648 0 LINE",
"648 624 LINE",
"1146 1400 LINE",
"1010 1400 LINE",
"594 738 LINE",
"174 1400 LINE",
"34 1400 LINE",
"532 624 LINE",
"532 0 LINE"
);
},
{
closed = 1;
nodes = (
"634 1594 LINE",
"836 1906 LINE",
"716 1906 LINE",
"526 1594 LINE"
);
}
);
width = 1180;
}
);
leftKerningGroup = Y;
rightKerningGroup = Y;
unicode = 00DD;
},
{
color = 1;
glyphname = Z;
lastChange = "2022-02-16 15:38:45 +0000";
layers = (
{
anchors = (
{
name = top;
position = "{586, 1400}";
}
);
layerId = "38FA562F-EF2C-4367-983C-F15B205514DC";
paths = (
{
closed = 1;
nodes = (
"1062 0 LINE",
"1062 108 LINE",
"246 108 LINE",
"1054 1302 LINE",
"1054 1400 LINE",
"128 1400 LINE",
"128 1292 LINE",
"916 1292 LINE",
"106 98 LINE",
"106 0 LINE"
);
}
);
width = 1156;
}
);
leftKerningGroup = Z;
rightKerningGroup = Z;
unicode = 005A;
},
{
color = 1;
glyphname = a;
lastChange = "2022-02-16 15:38:45 +0000";
layers = (
{
anchors = (
{
name = bottom;
position = "{495, 0}";
},
{
name = ogonek;
position = "{891, 0}";
},
{
name = top;
position = "{495, 960}";
}
);
layerId = "38FA562F-EF2C-4367-983C-F15B205514DC";
paths = (
{
closed = 1;
nodes = (
"579 -30 OFFCURVE",
"709 24 OFFCURVE",
"779 126 CURVE",
"779 0 LINE",
"891 0 LINE",
"891 644 LINE SMOOTH",
"891 874 OFFCURVE",
"759 1000 OFFCURVE",
"497 1000 CURVE SMOOTH",
"391 1000 OFFCURVE",
"268 975 OFFCURVE",
"154 892 CURVE",
"195 792 LINE",
"293 864 OFFCURVE",
"393 892 OFFCURVE",
"495 892 CURVE SMOOTH",
"673 892 OFFCURVE",
"779 798 OFFCURVE",
"779 644 CURVE SMOOTH",
"779 350 LINE SMOOTH",
"779 194 OFFCURVE",
"637 78 OFFCURVE",
"449 78 CURVE SMOOTH",
"299 78 OFFCURVE",
"211 150 OFFCURVE",
"211 270 CURVE SMOOTH",
"211 406 OFFCURVE",
"359 516 OFFCURVE",
"831 458 CURVE",
"825 558 LINE",
"289 618 OFFCURVE",
"99 468 OFFCURVE",
"99 270 CURVE SMOOTH",
"99 90 OFFCURVE",
"223 -30 OFFCURVE",
"433 -30 CURVE SMOOTH"
);
}
);
width = 1048;
}
);
leftKerningGroup = a;
rightKerningGroup = n;
rightMetricsKey = "=n-3";
unicode = 0061;
},
{
color = 9;
glyphname = aacute;
lastChange = "2022-02-16 15:38:40 +0000";
layers = (
{
anchors = (
{
name = bottom;
position = "{495, 0}";
},
{
name = ogonek;
position = "{891, 0}";
},
{
name = top;
position = "{495, 960}";
}
);
layerId = "38FA562F-EF2C-4367-983C-F15B205514DC";
paths = (
{
closed = 1;
nodes = (
"579 -30 OFFCURVE",
"709 24 OFFCURVE",
"779 126 CURVE",
"779 0 LINE",
"891 0 LINE",
"891 644 LINE SMOOTH",
"891 874 OFFCURVE",
"759 1000 OFFCURVE",
"497 1000 CURVE SMOOTH",
"391 1000 OFFCURVE",
"268 975 OFFCURVE",
"154 892 CURVE",
"195 792 LINE",
"293 864 OFFCURVE",
"393 892 OFFCURVE",
"495 892 CURVE SMOOTH",
"673 892 OFFCURVE",
"779 798 OFFCURVE",
"779 644 CURVE SMOOTH",
"779 350 LINE SMOOTH",
"779 194 OFFCURVE",
"637 78 OFFCURVE",
"449 78 CURVE SMOOTH",
"299 78 OFFCURVE",
"211 150 OFFCURVE",
"211 270 CURVE SMOOTH",
"211 406 OFFCURVE",
"359 516 OFFCURVE",
"831 458 CURVE",
"825 558 LINE",
"289 618 OFFCURVE",
"99 468 OFFCURVE",
"99 270 CURVE SMOOTH",
"99 90 OFFCURVE",
"223 -30 OFFCURVE",
"433 -30 CURVE SMOOTH"
);
},
{
closed = 1;
nodes = (
"539 1170 LINE",
"733 1504 LINE",
"613 1504 LINE",
"431 1170 LINE"
);
}
);
width = 1048;
}
);
leftKerningGroup = a;
rightKerningGroup = naccent;
unicode = 00E1;
},
{
color = 9;
glyphname = acircumflex;
lastChange = "2022-02-16 15:38:40 +0000";
layers = (
{
anchors = (
{
name = bottom;
position = "{495, 0}";
},
{
name = ogonek;
position = "{891, 0}";
},
{
name = top;
position = "{495, 1444}";
},
{
name = top_right;
position = "{803, 1224}";
}
);
layerId = "38FA562F-EF2C-4367-983C-F15B205514DC";
paths = (
{
closed = 1;
nodes = (
"579 -30 OFFCURVE",
"709 24 OFFCURVE",
"779 126 CURVE",
"779 0 LINE",
"891 0 LINE",
"891 644 LINE SMOOTH",
"891 874 OFFCURVE",
"759 1000 OFFCURVE",
"497 1000 CURVE SMOOTH",
"391 1000 OFFCURVE",
"268 975 OFFCURVE",
"154 892 CURVE",
"195 792 LINE",
"293 864 OFFCURVE",
"393 892 OFFCURVE",
"495 892 CURVE SMOOTH",
"673 892 OFFCURVE",
"779 798 OFFCURVE",
"779 644 CURVE SMOOTH",
"779 350 LINE SMOOTH",
"779 194 OFFCURVE",
"637 78 OFFCURVE",
"449 78 CURVE SMOOTH",
"299 78 OFFCURVE",
"211 150 OFFCURVE",
"211 270 CURVE SMOOTH",
"211 406 OFFCURVE",
"359 516 OFFCURVE",
"831 458 CURVE",
"825 558 LINE",
"289 618 OFFCURVE",
"99 468 OFFCURVE",
"99 270 CURVE SMOOTH",
"99 90 OFFCURVE",
"223 -30 OFFCURVE",
"433 -30 CURVE SMOOTH"
);
},
{
closed = 1;
nodes = (
"303 1170 LINE",
"501 1426 LINE",
"689 1170 LINE",
"809 1170 LINE",
"565 1504 LINE",
"441 1504 LINE",
"181 1170 LINE"
);
}
);
width = 1048;
}
);
leftKerningGroup = aaccent;
rightKerningGroup = naccent;
unicode = 00E2;
},
{
color = 9;
glyphname = adieresis;
lastChange = "2022-02-16 15:38:40 +0000";
layers = (
{
anchors = (
{
name = bottom;
position = "{495, 0}";
},
{
name = ogonek;
position = "{891, 0}";
},
{
name = top;
position = "{495, 1284}";
}
);
layerId = "38FA562F-EF2C-4367-983C-F15B205514DC";
paths = (
{
closed = 1;
nodes = (
"579 -30 OFFCURVE",
"709 24 OFFCURVE",
"779 126 CURVE",
"779 0 LINE",
"891 0 LINE",
"891 644 LINE SMOOTH",
"891 874 OFFCURVE",
"759 1000 OFFCURVE",
"497 1000 CURVE SMOOTH",
"391 1000 OFFCURVE",
"268 975 OFFCURVE",
"154 892 CURVE",
"195 792 LINE",
"293 864 OFFCURVE",
"393 892 OFFCURVE",
"495 892 CURVE SMOOTH",
"673 892 OFFCURVE",
"779 798 OFFCURVE",
"779 644 CURVE SMOOTH",
"779 350 LINE SMOOTH",
"779 194 OFFCURVE",
"637 78 OFFCURVE",
"449 78 CURVE SMOOTH",
"299 78 OFFCURVE",
"211 150 OFFCURVE",
"211 270 CURVE SMOOTH",
"211 406 OFFCURVE",
"359 516 OFFCURVE",
"831 458 CURVE",
"825 558 LINE",
"289 618 OFFCURVE",
"99 468 OFFCURVE",
"99 270 CURVE SMOOTH",
"99 90 OFFCURVE",
"223 -30 OFFCURVE",
"433 -30 CURVE SMOOTH"
);
},
{
closed = 1;
nodes = (
"365 1162 OFFCURVE",
"407 1204 OFFCURVE",
"407 1256 CURVE SMOOTH",
"407 1308 OFFCURVE",
"365 1350 OFFCURVE",
"313 1350 CURVE SMOOTH",
"261 1350 OFFCURVE",
"219 1308 OFFCURVE",
"219 1256 CURVE SMOOTH",
"219 1204 OFFCURVE",
"261 1162 OFFCURVE",
"313 1162 CURVE SMOOTH"
);
},
{
closed = 1;
nodes = (
"729 1162 OFFCURVE",
"771 1204 OFFCURVE",
"771 1256 CURVE SMOOTH",
"771 1308 OFFCURVE",
"729 1350 OFFCURVE",
"677 1350 CURVE SMOOTH",
"625 1350 OFFCURVE",
"583 1308 OFFCURVE",
"583 1256 CURVE SMOOTH",
"583 1204 OFFCURVE",
"625 1162 OFFCURVE",
"677 1162 CURVE SMOOTH"
);
}
);
width = 1048;
}
);
leftKerningGroup = aaccent;
rightKerningGroup = naccent;
unicode = 00E4;
},
{
color = 9;
glyphname = agrave;
lastChange = "2022-02-16 15:38:40 +0000";
layers = (
{
anchors = (
{
name = bottom;
position = "{495, 0}";
},
{
name = ogonek;
position = "{891, 0}";
},
{
name = top;
position = "{495, 960}";
}
);
layerId = "38FA562F-EF2C-4367-983C-F15B205514DC";
paths = (
{
closed = 1;
nodes = (
"579 -30 OFFCURVE",
"709 24 OFFCURVE",
"779 126 CURVE",
"779 0 LINE",
"891 0 LINE",
"891 644 LINE SMOOTH",
"891 874 OFFCURVE",
"759 1000 OFFCURVE",
"497 1000 CURVE SMOOTH",
"391 1000 OFFCURVE",
"268 975 OFFCURVE",
"154 892 CURVE",
"195 792 LINE",
"293 864 OFFCURVE",
"393 892 OFFCURVE",
"495 892 CURVE SMOOTH",
"673 892 OFFCURVE",
"779 798 OFFCURVE",
"779 644 CURVE SMOOTH",
"779 350 LINE SMOOTH",
"779 194 OFFCURVE",
"637 78 OFFCURVE",
"449 78 CURVE SMOOTH",
"299 78 OFFCURVE",
"211 150 OFFCURVE",
"211 270 CURVE SMOOTH",
"211 406 OFFCURVE",
"359 516 OFFCURVE",
"831 458 CURVE",
"825 558 LINE",
"289 618 OFFCURVE",
"99 468 OFFCURVE",
"99 270 CURVE SMOOTH",
"99 90 OFFCURVE",
"223 -30 OFFCURVE",
"433 -30 CURVE SMOOTH"
);
},
{
closed = 1;
nodes = (
"575 1170 LINE",
"395 1504 LINE",
"269 1504 LINE",
"463 1170 LINE"
);
}
);
width = 1048;
}
);
leftKerningGroup = aaccent;
rightKerningGroup = n;
unicode = 00E0;
},
{
color = 9;
glyphname = aring;
lastChange = "2022-02-16 15:38:40 +0000";
layers = (
{
anchors = (
{
name = bottom;
position = "{495, 0}";
},
{
name = ogonek;
position = "{891, 0}";
},
{
name = top;
position = "{495, 1464}";
}
);
layerId = "38FA562F-EF2C-4367-983C-F15B205514DC";
paths = (
{
closed = 1;
nodes = (
"579 -30 OFFCURVE",
"709 24 OFFCURVE",
"779 126 CURVE",
"779 0 LINE",
"891 0 LINE",
"891 644 LINE SMOOTH",
"891 874 OFFCURVE",
"759 1000 OFFCURVE",
"497 1000 CURVE SMOOTH",
"391 1000 OFFCURVE",
"268 975 OFFCURVE",
"154 892 CURVE",
"195 792 LINE",
"293 864 OFFCURVE",
"393 892 OFFCURVE",
"495 892 CURVE SMOOTH",
"673 892 OFFCURVE",
"779 798 OFFCURVE",
"779 644 CURVE SMOOTH",
"779 350 LINE SMOOTH",
"779 194 OFFCURVE",
"637 78 OFFCURVE",
"449 78 CURVE SMOOTH",
"299 78 OFFCURVE",
"211 150 OFFCURVE",
"211 270 CURVE SMOOTH",
"211 406 OFFCURVE",
"359 516 OFFCURVE",
"831 458 CURVE",
"825 558 LINE",
"289 618 OFFCURVE",
"99 468 OFFCURVE",
"99 270 CURVE SMOOTH",
"99 90 OFFCURVE",
"223 -30 OFFCURVE",
"433 -30 CURVE SMOOTH"
);
},
{
closed = 1;
nodes = (
"629 1100 OFFCURVE",
"741 1200 OFFCURVE",
"741 1332 CURVE SMOOTH",
"741 1462 OFFCURVE",
"629 1566 OFFCURVE",
"495 1566 CURVE SMOOTH",
"359 1566 OFFCURVE",
"247 1462 OFFCURVE",
"247 1332 CURVE SMOOTH",
"247 1200 OFFCURVE",
"359 1100 OFFCURVE",
"495 1100 CURVE SMOOTH"
);
},
{
closed = 1;
nodes = (
"409 1188 OFFCURVE",
"351 1252 OFFCURVE",
"351 1332 CURVE SMOOTH",
"351 1412 OFFCURVE",
"409 1476 OFFCURVE",
"495 1476 CURVE SMOOTH",
"581 1476 OFFCURVE",
"637 1412 OFFCURVE",
"637 1332 CURVE SMOOTH",
"637 1252 OFFCURVE",
"581 1188 OFFCURVE",
"495 1188 CURVE SMOOTH"
);
}
);
width = 1048;
}
);
leftKerningGroup = a;
rightKerningGroup = a;
unicode = 00E5;
},
{
color = 9;
glyphname = atilde;
lastChange = "2022-02-16 15:38:40 +0000";
layers = (
{
anchors = (
{
name = bottom;
position = "{495, 0}";
},
{
name = ogonek;
position = "{891, 0}";
},
{
name = top;
position = "{495, 1344}";
}
);
layerId = "38FA562F-EF2C-4367-983C-F15B205514DC";
paths = (
{
closed = 1;
nodes = (
"579 -30 OFFCURVE",
"709 24 OFFCURVE",
"779 126 CURVE",
"779 0 LINE",
"891 0 LINE",
"891 644 LINE SMOOTH",
"891 874 OFFCURVE",
"759 1000 OFFCURVE",
"497 1000 CURVE SMOOTH",
"391 1000 OFFCURVE",
"268 975 OFFCURVE",
"154 892 CURVE",
"195 792 LINE",
"293 864 OFFCURVE",
"393 892 OFFCURVE",
"495 892 CURVE SMOOTH",
"673 892 OFFCURVE",
"779 798 OFFCURVE",
"779 644 CURVE SMOOTH",
"779 350 LINE SMOOTH",
"779 194 OFFCURVE",
"637 78 OFFCURVE",
"449 78 CURVE SMOOTH",
"299 78 OFFCURVE",
"211 150 OFFCURVE",
"211 270 CURVE SMOOTH",
"211 406 OFFCURVE",
"359 516 OFFCURVE",
"831 458 CURVE",
"825 558 LINE",
"289 618 OFFCURVE",
"99 468 OFFCURVE",
"99 270 CURVE SMOOTH",
"99 90 OFFCURVE",
"223 -30 OFFCURVE",
"433 -30 CURVE SMOOTH"
);
},
{
closed = 1;
nodes = (
"255 1296 OFFCURVE",
"295 1340 OFFCURVE",
"351 1340 CURVE SMOOTH",
"437 1340 OFFCURVE",
"529 1236 OFFCURVE",
"639 1236 CURVE SMOOTH",
"723 1236 OFFCURVE",
"795 1302 OFFCURVE",
"837 1414 CURVE",
"763 1460 LINE",
"737 1382 OFFCURVE",
"695 1334 OFFCURVE",
"639 1334 CURVE SMOOTH",
"553 1334 OFFCURVE",
"461 1440 OFFCURVE",
"351 1440 CURVE SMOOTH",
"261 1440 OFFCURVE",
"193 1366 OFFCURVE",
"153 1260 CURVE",
"227 1216 LINE"
);
}
);
width = 1048;
}
);
leftKerningGroup = aaccent;
rightKerningGroup = naccent;
unicode = 00E3;
},
{
color = 9;
glyphname = ae;
lastChange = "2022-02-16 15:38:40 +0000";
layers = (
{
anchors = (
{
name = top;
position = "{851, 960}";
}
);
layerId = "38FA562F-EF2C-4367-983C-F15B205514DC";
paths = (
{
closed = 1;
nodes = (
"653 -30 OFFCURVE",
"811 110 OFFCURVE",
"845 274 CURVE",
"823 274 LINE",
"895 84 OFFCURVE",
"1063 -30 OFFCURVE",
"1277 -30 CURVE SMOOTH",
"1397 -30 OFFCURVE",
"1527 8 OFFCURVE",
"1621 90 CURVE",
"1555 184 LINE",
"1489 116 OFFCURVE",
"1385 78 OFFCURVE",
"1291 78 CURVE SMOOTH",
"1047 78 OFFCURVE",
"899 234 OFFCURVE",
"911 468 CURVE",
"1685 468 LINE",
"1711 764 OFFCURVE",
"1541 990 OFFCURVE",
"1259 990 CURVE SMOOTH",
"1083 990 OFFCURVE",
"935 898 OFFCURVE",
"855 750 CURVE",
"881 746 LINE",
"847 910 OFFCURVE",
"717 1000 OFFCURVE",
"497 1000 CURVE SMOOTH",
"391 1000 OFFCURVE",
"267 974 OFFCURVE",
"153 892 CURVE",
"195 792 LINE",
"293 864 OFFCURVE",
"393 892 OFFCURVE",
"495 892 CURVE SMOOTH",
"673 892 OFFCURVE",
"779 798 OFFCURVE",
"779 644 CURVE SMOOTH",
"779 390 LINE SMOOTH",
"779 194 OFFCURVE",
"637 78 OFFCURVE",
"449 78 CURVE SMOOTH",
"299 78 OFFCURVE",
"211 150 OFFCURVE",
"211 270 CURVE SMOOTH",
"211 404 OFFCURVE",
"359 516 OFFCURVE",
"827 458 CURVE",
"823 558 LINE",
"289 618 OFFCURVE",
"99 468 OFFCURVE",
"99 270 CURVE SMOOTH",
"99 90 OFFCURVE",
"223 -30 OFFCURVE",
"433 -30 CURVE SMOOTH"
);
},
{
closed = 1;
nodes = (
"939 768 OFFCURVE",
"1069 882 OFFCURVE",
"1259 882 CURVE SMOOTH",
"1455 882 OFFCURVE",
"1555 768 OFFCURVE",
"1565 572 CURVE",
"915 572 LINE"
);
}
);
width = 1768;
}
);
leftKerningGroup = a;
leftMetricsKey = a;
rightKerningGroup = o;
rightMetricsKey = e;
unicode = 00E6;
},
{
color = 1;
glyphname = b;
lastChange = "2022-02-16 15:38:45 +0000";
layers = (
{
layerId = "38FA562F-EF2C-4367-983C-F15B205514DC";
paths = (
{
closed = 1;
nodes = (
"978 -30 OFFCURVE",
"1174 202 OFFCURVE",
"1174 480 CURVE SMOOTH",
"1174 758 OFFCURVE",
"978 990 OFFCURVE",
"688 990 CURVE SMOOTH",
"484 990 OFFCURVE",
"348 890 OFFCURVE",
"264 758 CURVE",
"282 734 LINE",
"282 1440 LINE",
"170 1440 LINE",
"170 0 LINE",
"282 0 LINE",
"282 226 LINE",
"264 202 LINE",
"348 68 OFFCURVE",
"484 -30 OFFCURVE",
"688 -30 CURVE SMOOTH"
);
},
{
closed = 1;
nodes = (
"442 78 OFFCURVE",
"282 234 OFFCURVE",
"282 480 CURVE SMOOTH",
"282 726 OFFCURVE",
"442 882 OFFCURVE",
"668 882 CURVE SMOOTH",
"894 882 OFFCURVE",
"1054 726 OFFCURVE",
"1054 480 CURVE SMOOTH",
"1054 234 OFFCURVE",
"894 78 OFFCURVE",
"668 78 CURVE SMOOTH"
);
}
);
width = 1254;
}
);
leftKerningGroup = h;
leftMetricsKey = n;
rightKerningGroup = o;
rightMetricsKey = o;
unicode = 0062;
},
{
color = 1;
glyphname = c;
lastChange = "2022-02-16 15:38:45 +0000";
layers = (
{
anchors = (
{
name = bottom;
position = "{554, 0}";
},
{
name = top;
position = "{566, 960}";
}
);
layerId = "38FA562F-EF2C-4367-983C-F15B205514DC";
paths = (
{
closed = 1;
nodes = (
"718 -30 OFFCURVE",
"828 14 OFFCURVE",
"926 88 CURVE",
"850 174 LINE",
"800 120 OFFCURVE",
"704 78 OFFCURVE",
"600 78 CURVE SMOOTH",
"354 78 OFFCURVE",
"200 230 OFFCURVE",
"200 482 CURVE SMOOTH",
"200 734 OFFCURVE",
"356 882 OFFCURVE",
"602 882 CURVE SMOOTH",
"694 882 OFFCURVE",
"778 856 OFFCURVE",
"836 808 CURVE",
"904 900 LINE",
"818 962 OFFCURVE",
"724 990 OFFCURVE",
"610 990 CURVE SMOOTH",
"302 990 OFFCURVE",
"80 778 OFFCURVE",
"80 480 CURVE SMOOTH",
"80 186 OFFCURVE",
"292 -30 OFFCURVE",
"594 -30 CURVE SMOOTH"
);
}
);
width = 990;
}
);
leftKerningGroup = o;
leftMetricsKey = o;
rightKerningGroup = c;
unicode = 0063;
},
{
color = 9;
glyphname = ccedilla;
lastChange = "2022-02-16 15:38:40 +0000";
layers = (
{
anchors = (
{
name = bottom;
position = "{554, 0}";
},
{
name = top;
position = "{566, 960}";
}
);
layerId = "38FA562F-EF2C-4367-983C-F15B205514DC";
paths = (
{
closed = 1;
nodes = (
"718 -30 OFFCURVE",
"828 14 OFFCURVE",
"926 88 CURVE",
"850 174 LINE",
"800 120 OFFCURVE",
"704 78 OFFCURVE",
"600 78 CURVE SMOOTH",
"354 78 OFFCURVE",
"200 230 OFFCURVE",
"200 482 CURVE SMOOTH",
"200 734 OFFCURVE",
"356 882 OFFCURVE",
"602 882 CURVE SMOOTH",
"694 882 OFFCURVE",
"778 856 OFFCURVE",
"836 808 CURVE",
"904 900 LINE",
"818 962 OFFCURVE",
"724 990 OFFCURVE",
"610 990 CURVE SMOOTH",
"302 990 OFFCURVE",
"80 778 OFFCURVE",
"80 480 CURVE SMOOTH",
"80 186 OFFCURVE",
"292 -30 OFFCURVE",
"594 -30 CURVE SMOOTH"
);
},
{
closed = 1;
nodes = (
"632 -450 OFFCURVE",
"772 -402 OFFCURVE",
"772 -266 CURVE SMOOTH",
"772 -160 OFFCURVE",
"678 -102 OFFCURVE",
"552 -94 CURVE",
"592 40 LINE",
"510 40 LINE",
"456 -126 LINE",
"490 -186 LINE",
"576 -174 OFFCURVE",
"664 -200 OFFCURVE",
"664 -270 CURVE SMOOTH",
"664 -336 OFFCURVE",
"594 -360 OFFCURVE",
"534 -360 CURVE SMOOTH",
"470 -360 OFFCURVE",
"396 -336 OFFCURVE",
"372 -308 CURVE",
"334 -394 LINE",
"390 -430 OFFCURVE",
"458 -450 OFFCURVE",
"538 -450 CURVE SMOOTH"
);
}
);
width = 990;
}
);
leftKerningGroup = o;
rightKerningGroup = c;
unicode = 00E7;
},
{
color = 1;
glyphname = d;
lastChange = "2022-02-16 15:38:45 +0000";
layers = (
{
anchors = (
{
name = bar;
position = "{972, 1204}";
},
{
name = caron;
position = "{1084, 1440}";
}
);
layerId = "38FA562F-EF2C-4367-983C-F15B205514DC";
paths = (
{
closed = 1;
nodes = (
"784 -30 OFFCURVE",
"904 64 OFFCURVE",
"990 186 CURVE",
"972 212 LINE",
"972 0 LINE",
"1084 0 LINE",
"1084 1440 LINE",
"972 1440 LINE",
"972 742 LINE",
"990 766 LINE",
"906 898 OFFCURVE",
"770 990 OFFCURVE",
"566 990 CURVE SMOOTH",
"276 990 OFFCURVE",
"80 758 OFFCURVE",
"80 480 CURVE SMOOTH",
"80 202 OFFCURVE",
"276 -30 OFFCURVE",
"566 -30 CURVE SMOOTH"
);
},
{
closed = 1;
nodes = (
"360 78 OFFCURVE",
"200 234 OFFCURVE",
"200 480 CURVE SMOOTH",
"200 726 OFFCURVE",
"360 882 OFFCURVE",
"586 882 CURVE SMOOTH",
"812 882 OFFCURVE",
"972 726 OFFCURVE",
"972 480 CURVE SMOOTH",
"972 234 OFFCURVE",
"812 78 OFFCURVE",
"586 78 CURVE SMOOTH"
);
}
);
width = 1254;
}
);
leftKerningGroup = o;
leftMetricsKey = o;
rightKerningGroup = d;
rightMetricsKey = l;
unicode = 0064;
},
{
color = 9;
glyphname = eth;
lastChange = "2022-02-16 15:38:40 +0000";
layers = (
{
layerId = "38FA562F-EF2C-4367-983C-F15B205514DC";
paths = (
{
closed = 1;
nodes = (
"850 -30 OFFCURVE",
"1062 198 OFFCURVE",
"1062 490 CURVE SMOOTH",
"1062 846 OFFCURVE",
"860 1180 OFFCURVE",
"454 1470 CURVE",
"356 1402 LINE",
"610 1234 OFFCURVE",
"786 1034 OFFCURVE",
"884 816 CURVE",
"872 864 LINE",
"790 930 OFFCURVE",
"684 970 OFFCURVE",
"566 970 CURVE SMOOTH",
"288 970 OFFCURVE",
"80 742 OFFCURVE",
"80 470 CURVE SMOOTH",
"80 198 OFFCURVE",
"288 -30 OFFCURVE",
"566 -30 CURVE SMOOTH"
);
},
{
closed = 1;
nodes = (
"352 78 OFFCURVE",
"200 230 OFFCURVE",
"200 470 CURVE SMOOTH",
"200 710 OFFCURVE",
"352 862 OFFCURVE",
"566 862 CURVE SMOOTH",
"786 862 OFFCURVE",
"942 710 OFFCURVE",
"942 470 CURVE SMOOTH",
"942 230 OFFCURVE",
"786 78 OFFCURVE",
"566 78 CURVE SMOOTH"
);
},
{
closed = 1;
nodes = (
"604 1232 LINE",
"604 1234 LINE",
"858 1356 LINE",
"858 1454 LINE",
"604 1332 LINE",
"604 1330 LINE",
"334 1204 LINE",
"334 1106 LINE"
);
}
);
width = 1147;
}
);
leftKerningGroup = oaccent;
leftMetricsKey = o;
rightKerningGroup = oaccent;
rightMetricsKey = "=o+5";
unicode = 00F0;
},
{
color = 9;
glyphname = dcroat;
lastChange = "2022-02-16 14:35:42 +0000";
layers = (
{
anchors = (
{
name = bar;
position = "{972, 1204}";
},
{
name = caron;
position = "{1084, 1440}";
}
);
layerId = "38FA562F-EF2C-4367-983C-F15B205514DC";
paths = (
{
closed = 1;
nodes = (
"1222 1152 LINE",
"1222 1256 LINE",
"602 1256 LINE",
"602 1152 LINE"
);
},
{
closed = 1;
nodes = (
"784 -30 OFFCURVE",
"904 64 OFFCURVE",
"990 186 CURVE",
"972 212 LINE",
"972 0 LINE",
"1084 0 LINE",
"1084 1440 LINE",
"972 1440 LINE",
"972 742 LINE",
"990 766 LINE",
"906 898 OFFCURVE",
"770 990 OFFCURVE",
"566 990 CURVE SMOOTH",
"276 990 OFFCURVE",
"80 758 OFFCURVE",
"80 480 CURVE SMOOTH",
"80 202 OFFCURVE",
"276 -30 OFFCURVE",
"566 -30 CURVE SMOOTH"
);
},
{
closed = 1;
nodes = (
"360 78 OFFCURVE",
"200 234 OFFCURVE",
"200 480 CURVE SMOOTH",
"200 726 OFFCURVE",
"360 882 OFFCURVE",
"586 882 CURVE SMOOTH",
"812 882 OFFCURVE",
"972 726 OFFCURVE",
"972 480 CURVE SMOOTH",
"972 234 OFFCURVE",
"812 78 OFFCURVE",
"586 78 CURVE SMOOTH"
);
}
);
width = 1254;
}
);
leftKerningGroup = o;
rightKerningGroup = dbar;
unicode = 0111;
},
{
color = 1;
glyphname = e;
lastChange = "2022-02-16 15:38:45 +0000";
layers = (
{
anchors = (
{
name = bottom;
position = "{556, 0}";
},
{
name = ogonek;
position = "{880, 0}";
},
{
name = top;
position = "{572, 960}";
}
);
layerId = "38FA562F-EF2C-4367-983C-F15B205514DC";
paths = (
{
closed = 1;
nodes = (
"715 -30 OFFCURVE",
"854 7 OFFCURVE",
"953 90 CURVE",
"888 184 LINE",
"816 116 OFFCURVE",
"706 78 OFFCURVE",
"604 78 CURVE SMOOTH",
"348 78 OFFCURVE",
"192 234 OFFCURVE",
"204 468 CURVE",
"1018 468 LINE",
"1046 764 OFFCURVE",
"868 990 OFFCURVE",
"572 990 CURVE SMOOTH",
"292 990 OFFCURVE",
"80 770 OFFCURVE",
"80 476 CURVE SMOOTH",
"80 174 OFFCURVE",
"290 -30 OFFCURVE",
"590 -30 CURVE SMOOTH"
);
},
{
closed = 1;
nodes = (
"230 768 OFFCURVE",
"370 882 OFFCURVE",
"572 882 CURVE SMOOTH",
"780 882 OFFCURVE",
"890 768 OFFCURVE",
"898 572 CURVE",
"208 572 LINE"
);
}
);
width = 1101;
}
);
leftKerningGroup = o;
leftMetricsKey = o;
rightKerningGroup = o;
rightMetricsKey = o;
unicode = 0065;
},
{
color = 9;
glyphname = eacute;
lastChange = "2022-02-16 15:38:40 +0000";
layers = (
{
anchors = (
{
name = bottom;
position = "{556, 0}";
},
{
name = ogonek;
position = "{880, 0}";
},
{
name = top;
position = "{572, 960}";
}
);
layerId = "38FA562F-EF2C-4367-983C-F15B205514DC";
paths = (
{
closed = 1;
nodes = (
"715 -30 OFFCURVE",
"854 7 OFFCURVE",
"953 90 CURVE",
"888 184 LINE",
"816 116 OFFCURVE",
"706 78 OFFCURVE",
"604 78 CURVE SMOOTH",
"348 78 OFFCURVE",
"192 234 OFFCURVE",
"204 468 CURVE",
"1018 468 LINE",
"1046 764 OFFCURVE",
"868 990 OFFCURVE",
"572 990 CURVE SMOOTH",
"292 990 OFFCURVE",
"80 770 OFFCURVE",
"80 476 CURVE SMOOTH",
"80 174 OFFCURVE",
"290 -30 OFFCURVE",
"590 -30 CURVE SMOOTH"
);
},
{
closed = 1;
nodes = (
"230 768 OFFCURVE",
"370 882 OFFCURVE",
"572 882 CURVE SMOOTH",
"780 882 OFFCURVE",
"890 768 OFFCURVE",
"898 572 CURVE",
"208 572 LINE"
);
},
{
closed = 1;
nodes = (
"616 1170 LINE",
"810 1504 LINE",
"690 1504 LINE",
"508 1170 LINE"
);
}
);
width = 1101;
}
);
leftKerningGroup = o;
rightKerningGroup = oaccent;
unicode = 00E9;
},
{
color = 9;
glyphname = ecircumflex;
lastChange = "2022-02-16 15:38:40 +0000";
layers = (
{
anchors = (
{
name = bottom;
position = "{556, 0}";
},
{
name = ogonek;
position = "{880, 0}";
},
{
name = top;
position = "{572, 1444}";
},
{
name = top_right;
position = "{880, 1224}";
}
);
layerId = "38FA562F-EF2C-4367-983C-F15B205514DC";
paths = (
{
closed = 1;
nodes = (
"715 -30 OFFCURVE",
"854 7 OFFCURVE",
"953 90 CURVE",
"888 184 LINE",
"816 116 OFFCURVE",
"706 78 OFFCURVE",
"604 78 CURVE SMOOTH",
"348 78 OFFCURVE",
"192 234 OFFCURVE",
"204 468 CURVE",
"1018 468 LINE",
"1046 764 OFFCURVE",
"868 990 OFFCURVE",
"572 990 CURVE SMOOTH",
"292 990 OFFCURVE",
"80 770 OFFCURVE",
"80 476 CURVE SMOOTH",
"80 174 OFFCURVE",
"290 -30 OFFCURVE",
"590 -30 CURVE SMOOTH"
);
},
{
closed = 1;
nodes = (
"230 768 OFFCURVE",
"370 882 OFFCURVE",
"572 882 CURVE SMOOTH",
"780 882 OFFCURVE",
"890 768 OFFCURVE",
"898 572 CURVE",
"208 572 LINE"
);
},
{
closed = 1;
nodes = (
"380 1170 LINE",
"578 1426 LINE",
"766 1170 LINE",
"886 1170 LINE",
"642 1504 LINE",
"518 1504 LINE",
"258 1170 LINE"
);
}
);
width = 1101;
}
);
leftKerningGroup = oaccent;
rightKerningGroup = oaccent;
unicode = 00EA;
},
{
color = 9;
glyphname = edieresis;
lastChange = "2022-02-16 15:38:40 +0000";
layers = (
{
anchors = (
{
name = bottom;
position = "{556, 0}";
},
{
name = ogonek;
position = "{880, 0}";
},
{
name = top;
position = "{572, 1284}";
}
);
layerId = "38FA562F-EF2C-4367-983C-F15B205514DC";
paths = (
{
closed = 1;
nodes = (
"715 -30 OFFCURVE",
"854 7 OFFCURVE",
"953 90 CURVE",
"888 184 LINE",
"816 116 OFFCURVE",
"706 78 OFFCURVE",
"604 78 CURVE SMOOTH",
"348 78 OFFCURVE",
"192 234 OFFCURVE",
"204 468 CURVE",
"1018 468 LINE",
"1046 764 OFFCURVE",
"868 990 OFFCURVE",
"572 990 CURVE SMOOTH",
"292 990 OFFCURVE",
"80 770 OFFCURVE",
"80 476 CURVE SMOOTH",
"80 174 OFFCURVE",
"290 -30 OFFCURVE",
"590 -30 CURVE SMOOTH"
);
},
{
closed = 1;
nodes = (
"230 768 OFFCURVE",
"370 882 OFFCURVE",
"572 882 CURVE SMOOTH",
"780 882 OFFCURVE",
"890 768 OFFCURVE",
"898 572 CURVE",
"208 572 LINE"
);
},
{
closed = 1;
nodes = (
"442 1162 OFFCURVE",
"484 1204 OFFCURVE",
"484 1256 CURVE SMOOTH",
"484 1308 OFFCURVE",
"442 1350 OFFCURVE",
"390 1350 CURVE SMOOTH",
"338 1350 OFFCURVE",
"296 1308 OFFCURVE",
"296 1256 CURVE SMOOTH",
"296 1204 OFFCURVE",
"338 1162 OFFCURVE",
"390 1162 CURVE SMOOTH"
);
},
{
closed = 1;
nodes = (
"806 1162 OFFCURVE",
"848 1204 OFFCURVE",
"848 1256 CURVE SMOOTH",
"848 1308 OFFCURVE",
"806 1350 OFFCURVE",
"754 1350 CURVE SMOOTH",
"702 1350 OFFCURVE",
"660 1308 OFFCURVE",
"660 1256 CURVE SMOOTH",
"660 1204 OFFCURVE",
"702 1162 OFFCURVE",
"754 1162 CURVE SMOOTH"
);
}
);
width = 1101;
}
);
leftKerningGroup = oaccent;
rightKerningGroup = oaccent;
unicode = 00EB;
},
{
color = 9;
glyphname = egrave;
lastChange = "2022-02-16 15:38:40 +0000";
layers = (
{
anchors = (
{
name = bottom;
position = "{556, 0}";
},
{
name = ogonek;
position = "{880, 0}";
},
{
name = top;
position = "{572, 960}";
}
);
layerId = "38FA562F-EF2C-4367-983C-F15B205514DC";
paths = (
{
closed = 1;
nodes = (
"715 -30 OFFCURVE",
"854 7 OFFCURVE",
"953 90 CURVE",
"888 184 LINE",
"816 116 OFFCURVE",
"706 78 OFFCURVE",
"604 78 CURVE SMOOTH",
"348 78 OFFCURVE",
"192 234 OFFCURVE",
"204 468 CURVE",
"1018 468 LINE",
"1046 764 OFFCURVE",
"868 990 OFFCURVE",
"572 990 CURVE SMOOTH",
"292 990 OFFCURVE",
"80 770 OFFCURVE",
"80 476 CURVE SMOOTH",
"80 174 OFFCURVE",
"290 -30 OFFCURVE",
"590 -30 CURVE SMOOTH"
);
},
{
closed = 1;
nodes = (
"230 768 OFFCURVE",
"370 882 OFFCURVE",
"572 882 CURVE SMOOTH",
"780 882 OFFCURVE",
"890 768 OFFCURVE",
"898 572 CURVE",
"208 572 LINE"
);
},
{
closed = 1;
nodes = (
"652 1170 LINE",
"472 1504 LINE",
"346 1504 LINE",
"540 1170 LINE"
);
}
);
width = 1101;
}
);
leftKerningGroup = oaccent;
rightKerningGroup = o;
unicode = 00E8;
},
{
color = 1;
glyphname = f;
lastChange = "2022-02-16 15:38:45 +0000";
layers = (
{
layerId = "38FA562F-EF2C-4367-983C-F15B205514DC";
paths = (
{
closed = 1;
nodes = (
"390 0 LINE",
"390 856 LINE",
"660 856 LINE",
"660 960 LINE",
"390 960 LINE",
"390 1190 LINE SMOOTH",
"390 1320 OFFCURVE",
"458 1362 OFFCURVE",
"550 1362 CURVE SMOOTH",
"584 1362 OFFCURVE",
"622 1354 OFFCURVE",
"662 1334 CURVE",
"694 1432 LINE",
"662 1452 OFFCURVE",
"614 1470 OFFCURVE",
"548 1470 CURVE SMOOTH",
"386 1470 OFFCURVE",
"280 1368 OFFCURVE",
"280 1192 CURVE SMOOTH",
"280 0 LINE"
);
},
{
closed = 1;
nodes = (
"306 856 LINE",
"306 960 LINE",
"60 960 LINE",
"60 856 LINE"
);
}
);
width = 714;
}
);
leftKerningGroup = f;
rightKerningGroup = f;
unicode = 0066;
},
{
color = 1;
glyphname = g;
lastChange = "2022-02-16 15:38:45 +0000";
layers = (
{
anchors = (
{
name = top;
position = "{572, 960}";
}
);
guideLines = (
{
angle = 175.7636;
position = "{227, 60}";
}
);
layerId = "38FA562F-EF2C-4367-983C-F15B205514DC";
paths = (
{
closed = 1;
nodes = (
"850 -450 OFFCURVE",
"1056 -310 OFFCURVE",
"1056 -130 CURVE SMOOTH",
"1056 30 OFFCURVE",
"924 110 OFFCURVE",
"676 128 CURVE SMOOTH",
"512 140 LINE SMOOTH",
"414 148 OFFCURVE",
"340 164 OFFCURVE",
"340 224 CURVE SMOOTH",
"340 290 OFFCURVE",
"436 330 OFFCURVE",
"570 330 CURVE",
"532 398 LINE",
"344 376 OFFCURVE",
"224 300 OFFCURVE",
"224 200 CURVE SMOOTH",
"224 138 OFFCURVE",
"264 94 OFFCURVE",
"344 58 CURVE",
"174 24 OFFCURVE",
"90 -60 OFFCURVE",
"90 -168 CURVE SMOOTH",
"90 -338 OFFCURVE",
"264 -450 OFFCURVE",
"552 -450 CURVE SMOOTH"
);
},
{
closed = 1;
nodes = (
"340 -352 OFFCURVE",
"214 -272 OFFCURVE",
"214 -156 CURVE SMOOTH",
"214 -56 OFFCURVE",
"310 14 OFFCURVE",
"472 24 CURVE",
"642 12 LINE SMOOTH",
"834 -2 OFFCURVE",
"932 -54 OFFCURVE",
"932 -146 CURVE SMOOTH",
"932 -266 OFFCURVE",
"788 -352 OFFCURVE",
"550 -352 CURVE SMOOTH"
);
},
{
closed = 1;
nodes = (
"776 310 OFFCURVE",
"960 460 OFFCURVE",
"960 650 CURVE SMOOTH",
"960 840 OFFCURVE",
"776 990 OFFCURVE",
"550 990 CURVE SMOOTH",
"324 990 OFFCURVE",
"140 840 OFFCURVE",
"140 650 CURVE SMOOTH",
"140 460 OFFCURVE",
"324 310 OFFCURVE",
"550 310 CURVE SMOOTH"
);
},
{
closed = 1;
nodes = (
"380 418 OFFCURVE",
"266 512 OFFCURVE",
"266 650 CURVE SMOOTH",
"266 788 OFFCURVE",
"380 882 OFFCURVE",
"550 882 CURVE SMOOTH",
"720 882 OFFCURVE",
"834 788 OFFCURVE",
"834 650 CURVE SMOOTH",
"834 512 OFFCURVE",
"720 418 OFFCURVE",
"550 418 CURVE SMOOTH"
);
},
{
closed = 1;
nodes = (
"1120 856 LINE",
"1122 960 LINE",
"666 950 LINE",
"706 856 LINE"
);
}
);
width = 1168;
}
);
leftKerningGroup = g;
rightKerningGroup = g;
unicode = 0067;
},
{
color = 1;
glyphname = h;
lastChange = "2022-02-16 15:38:45 +0000";
layers = (
{
anchors = (
{
name = bar;
position = "{342, 1204}";
},
{
name = top;
position = "{226, 1440}";
}
);
layerId = "38FA562F-EF2C-4367-983C-F15B205514DC";
paths = (
{
closed = 1;
nodes = (
"282 0 LINE",
"282 570 LINE SMOOTH",
"282 756 OFFCURVE",
"420 882 OFFCURVE",
"592 882 CURVE SMOOTH",
"768 882 OFFCURVE",
"882 772 OFFCURVE",
"882 612 CURVE SMOOTH",
"882 0 LINE",
"994 0 LINE",
"994 646 LINE SMOOTH",
"994 808 OFFCURVE",
"866 990 OFFCURVE",
"612 990 CURVE SMOOTH",
"482 990 OFFCURVE",
"348 938 OFFCURVE",
"260 802 CURVE",
"282 784 LINE",
"282 1440 LINE",
"170 1440 LINE",
"170 0 LINE"
);
}
);
width = 1154;
}
);
leftKerningGroup = h;
leftMetricsKey = n;
rightKerningGroup = n;
rightMetricsKey = n;
unicode = 0068;
},
{
color = 1;
glyphname = i;
lastChange = "2022-02-16 15:38:45 +0000";
layers = (
{
anchors = (
{
name = bottom;
position = "{226, 0}";
},
{
name = ogonek;
position = "{281, 0}";
},
{
name = top;
position = "{226, 1284}";
}
);
layerId = "38FA562F-EF2C-4367-983C-F15B205514DC";
paths = (
{
closed = 1;
nodes = (
"282 0 LINE",
"282 960 LINE",
"170 960 LINE",
"170 0 LINE"
);
},
{
closed = 1;
nodes = (
"278 1162 OFFCURVE",
"320 1204 OFFCURVE",
"320 1256 CURVE SMOOTH",
"320 1308 OFFCURVE",
"278 1350 OFFCURVE",
"226 1350 CURVE SMOOTH",
"174 1350 OFFCURVE",
"132 1308 OFFCURVE",
"132 1256 CURVE SMOOTH",
"132 1204 OFFCURVE",
"174 1162 OFFCURVE",
"226 1162 CURVE SMOOTH"
);
}
);
width = 452;
}
);
leftKerningGroup = i;
rightKerningGroup = i;
unicode = 0069;
},
{
color = 9;
glyphname = idotless;
lastChange = "2022-02-16 15:38:40 +0000";
layers = (
{
anchors = (
{
name = bottom;
position = "{226, 0}";
},
{
name = ogonek;
position = "{281, 0}";
},
{
name = top;
position = "{226, 960}";
}
);
layerId = "38FA562F-EF2C-4367-983C-F15B205514DC";
paths = (
{
closed = 1;
nodes = (
"282 0 LINE",
"282 960 LINE",
"170 960 LINE",
"170 0 LINE"
);
}
);
width = 452;
}
);
leftKerningGroup = n;
leftMetricsKey = n;
rightKerningGroup = u;
rightMetricsKey = "=|n";
unicode = 0131;
},
{
color = 9;
glyphname = iacute;
lastChange = "2022-02-16 15:38:40 +0000";
layers = (
{
anchors = (
{
name = bottom;
position = "{226, 0}";
},
{
name = ogonek;
position = "{281, 0}";
},
{
name = top;
position = "{226, 960}";
}
);
layerId = "38FA562F-EF2C-4367-983C-F15B205514DC";
paths = (
{
closed = 1;
nodes = (
"282 0 LINE",
"282 960 LINE",
"170 960 LINE",
"170 0 LINE"
);
},
{
closed = 1;
nodes = (
"270 1170 LINE",
"444 1504 LINE",
"324 1504 LINE",
"164 1170 LINE"
);
}
);
width = 452;
}
);
leftKerningGroup = i;
rightKerningGroup = iacute;
unicode = 00ED;
},
{
color = 9;
glyphname = icircumflex;
lastChange = "2022-02-16 15:38:40 +0000";
layers = (
{
anchors = (
{
name = bottom;
position = "{226, 0}";
},
{
name = ogonek;
position = "{281, 0}";
},
{
name = top;
position = "{226, 1444}";
},
{
name = top_right;
position = "{498, 1224}";
}
);
layerId = "38FA562F-EF2C-4367-983C-F15B205514DC";
paths = (
{
closed = 1;
nodes = (
"282 0 LINE",
"282 960 LINE",
"170 960 LINE",
"170 0 LINE"
);
},
{
closed = 1;
nodes = (
"68 1170 LINE",
"230 1426 LINE",
"386 1170 LINE",
"504 1170 LINE",
"292 1504 LINE",
"174 1504 LINE",
"-50 1170 LINE"
);
}
);
width = 452;
}
);
leftKerningGroup = iaccent;
rightKerningGroup = iaccent;
unicode = 00EE;
},
{
color = 9;
glyphname = idieresis;
lastChange = "2022-02-16 15:38:40 +0000";
layers = (
{
anchors = (
{
name = bottom;
position = "{226, 0}";
},
{
name = ogonek;
position = "{281, 0}";
},
{
name = top;
position = "{226, 1284}";
}
);
layerId = "38FA562F-EF2C-4367-983C-F15B205514DC";
paths = (
{
closed = 1;
nodes = (
"282 0 LINE",
"282 960 LINE",
"170 960 LINE",
"170 0 LINE"
);
},
{
closed = 1;
nodes = (
"146 1162 OFFCURVE",
"188 1204 OFFCURVE",
"188 1256 CURVE SMOOTH",
"188 1308 OFFCURVE",
"146 1350 OFFCURVE",
"94 1350 CURVE SMOOTH",
"42 1350 OFFCURVE",
"0 1308 OFFCURVE",
"0 1256 CURVE SMOOTH",
"0 1204 OFFCURVE",
"42 1162 OFFCURVE",
"94 1162 CURVE SMOOTH"
);
},
{
closed = 1;
nodes = (
"410 1162 OFFCURVE",
"452 1204 OFFCURVE",
"452 1256 CURVE SMOOTH",
"452 1308 OFFCURVE",
"410 1350 OFFCURVE",
"358 1350 CURVE SMOOTH",
"306 1350 OFFCURVE",
"264 1308 OFFCURVE",
"264 1256 CURVE SMOOTH",
"264 1204 OFFCURVE",
"306 1162 OFFCURVE",
"358 1162 CURVE SMOOTH"
);
}
);
width = 452;
}
);
leftKerningGroup = iaccent;
rightKerningGroup = iaccent;
unicode = 00EF;
},
{
color = 9;
glyphname = igrave;
lastChange = "2022-02-16 15:38:40 +0000";
layers = (
{
anchors = (
{
name = bottom;
position = "{226, 0}";
},
{
name = ogonek;
position = "{281, 0}";
},
{
name = top;
position = "{226, 960}";
}
);
layerId = "38FA562F-EF2C-4367-983C-F15B205514DC";
paths = (
{
closed = 1;
nodes = (
"282 0 LINE",
"282 960 LINE",
"170 960 LINE",
"170 0 LINE"
);
},
{
closed = 1;
nodes = (
"302 1170 LINE",
"144 1504 LINE",
"20 1504 LINE",
"192 1170 LINE"
);
}
);
width = 452;
}
);
leftKerningGroup = igrave;
rightKerningGroup = i;
unicode = 00EC;
},
{
color = 1;
glyphname = j;
lastChange = "2022-02-16 15:38:45 +0000";
layers = (
{
anchors = (
{
name = top;
position = "{226, 1284}";
}
);
layerId = "38FA562F-EF2C-4367-983C-F15B205514DC";
paths = (
{
closed = 1;
nodes = (
"196 -450 OFFCURVE",
"282 -356 OFFCURVE",
"282 -194 CURVE SMOOTH",
"282 960 LINE",
"170 960 LINE",
"170 -174 LINE SMOOTH",
"170 -284 OFFCURVE",
"138 -342 OFFCURVE",
"38 -342 CURVE SMOOTH",
"-16 -342 OFFCURVE",
"-44 -330 OFFCURVE",
"-76 -314 CURVE",
"-114 -410 LINE",
"-74 -430 OFFCURVE",
"-15 -450 OFFCURVE",
"54 -450 CURVE SMOOTH"
);
},
{
closed = 1;
nodes = (
"278 1162 OFFCURVE",
"320 1204 OFFCURVE",
"320 1256 CURVE SMOOTH",
"320 1308 OFFCURVE",
"278 1350 OFFCURVE",
"226 1350 CURVE SMOOTH",
"174 1350 OFFCURVE",
"132 1308 OFFCURVE",
"132 1256 CURVE SMOOTH",
"132 1204 OFFCURVE",
"174 1162 OFFCURVE",
"226 1162 CURVE SMOOTH"
);
}
);
width = 452;
}
);
leftKerningGroup = j;
rightKerningGroup = i;
unicode = 006A;
},
{
color = 1;
glyphname = k;
lastChange = "2022-02-16 15:38:45 +0000";
layers = (
{
anchors = (
{
name = bottom;
position = "{556, 0}";
}
);
layerId = "38FA562F-EF2C-4367-983C-F15B205514DC";
paths = (
{
closed = 1;
nodes = (
"282 0 LINE",
"282 356 LINE",
"470 542 LINE",
"826 0 LINE",
"966 0 LINE",
"552 614 LINE",
"894 960 LINE",
"754 960 LINE",
"282 494 LINE",
"282 1440 LINE",
"170 1440 LINE",
"170 0 LINE"
);
}
);
width = 1026;
}
);
leftKerningGroup = h;
leftMetricsKey = l;
rightKerningGroup = k;
unicode = 006B;
},
{
color = 1;
glyphname = l;
lastChange = "2022-02-16 15:38:45 +0000";
layers = (
{
anchors = (
{
name = bottom;
position = "{226, 0}";
},
{
name = caron;
position = "{282, 1440}";
},
{
name = top;
position = "{226, 1440}";
}
);
layerId = "38FA562F-EF2C-4367-983C-F15B205514DC";
paths = (
{
closed = 1;
nodes = (
"282 0 LINE",
"282 1440 LINE",
"170 1440 LINE",
"170 0 LINE"
);
}
);
width = 452;
}
);
leftKerningGroup = h;
leftMetricsKey = n;
rightKerningGroup = d;
rightMetricsKey = "=|";
unicode = 006C;
},
{
color = 1;
glyphname = m;
lastChange = "2022-02-16 15:38:45 +0000";
layers = (
{
layerId = "38FA562F-EF2C-4367-983C-F15B205514DC";
paths = (
{
closed = 1;
nodes = (
"282 0 LINE",
"282 570 LINE SMOOTH",
"282 756 OFFCURVE",
"420 882 OFFCURVE",
"592 882 CURVE SMOOTH",
"768 882 OFFCURVE",
"858 772 OFFCURVE",
"858 612 CURVE SMOOTH",
"858 0 LINE",
"970 0 LINE",
"970 570 LINE SMOOTH",
"970 756 OFFCURVE",
"1108 882 OFFCURVE",
"1280 882 CURVE SMOOTH",
"1456 882 OFFCURVE",
"1546 772 OFFCURVE",
"1546 612 CURVE SMOOTH",
"1546 0 LINE",
"1658 0 LINE",
"1658 646 LINE SMOOTH",
"1658 808 OFFCURVE",
"1554 990 OFFCURVE",
"1300 990 CURVE SMOOTH",
"1186 990 OFFCURVE",
"1054 956 OFFCURVE",
"938 798 CURVE",
"890 904 OFFCURVE",
"786 990 OFFCURVE",
"612 990 CURVE SMOOTH",
"490 990 OFFCURVE",
"370 942 OFFCURVE",
"282 814 CURVE",
"282 960 LINE",
"170 960 LINE",
"170 0 LINE"
);
}
);
width = 1818;
}
);
leftKerningGroup = n;
leftMetricsKey = n;
rightKerningGroup = n;
rightMetricsKey = n;
unicode = 006D;
},
{
color = 1;
glyphname = n;
lastChange = "2022-02-16 15:38:45 +0000";
layers = (
{
anchors = (
{
name = bottom;
position = "{582, 0}";
},
{
name = top;
position = "{592, 960}";
}
);
layerId = "38FA562F-EF2C-4367-983C-F15B205514DC";
paths = (
{
closed = 1;
nodes = (
"282 0 LINE",
"282 570 LINE SMOOTH",
"282 756 OFFCURVE",
"420 882 OFFCURVE",
"592 882 CURVE SMOOTH",
"768 882 OFFCURVE",
"882 772 OFFCURVE",
"882 612 CURVE SMOOTH",
"882 0 LINE",
"994 0 LINE",
"994 646 LINE SMOOTH",
"994 808 OFFCURVE",
"866 990 OFFCURVE",
"612 990 CURVE SMOOTH",
"492 990 OFFCURVE",
"370 940 OFFCURVE",
"282 816 CURVE",
"282 960 LINE",
"170 960 LINE",
"170 0 LINE"
);
}
);
width = 1154;
}
);
leftKerningGroup = n;
rightKerningGroup = n;
rightMetricsKey = "=|-10";
unicode = 006E;
},
{
color = 9;
glyphname = ntilde;
lastChange = "2022-02-16 15:38:40 +0000";
layers = (
{
anchors = (
{
name = bottom;
position = "{582, 0}";
},
{
name = top;
position = "{592, 1344}";
}
);
layerId = "38FA562F-EF2C-4367-983C-F15B205514DC";
paths = (
{
closed = 1;
nodes = (
"282 0 LINE",
"282 570 LINE SMOOTH",
"282 756 OFFCURVE",
"420 882 OFFCURVE",
"592 882 CURVE SMOOTH",
"768 882 OFFCURVE",
"882 772 OFFCURVE",
"882 612 CURVE SMOOTH",
"882 0 LINE",
"994 0 LINE",
"994 646 LINE SMOOTH",
"994 808 OFFCURVE",
"866 990 OFFCURVE",
"612 990 CURVE SMOOTH",
"492 990 OFFCURVE",
"370 940 OFFCURVE",
"282 816 CURVE",
"282 960 LINE",
"170 960 LINE",
"170 0 LINE"
);
},
{
closed = 1;
nodes = (
"352 1296 OFFCURVE",
"392 1340 OFFCURVE",
"448 1340 CURVE SMOOTH",
"534 1340 OFFCURVE",
"626 1236 OFFCURVE",
"736 1236 CURVE SMOOTH",
"820 1236 OFFCURVE",
"892 1302 OFFCURVE",
"934 1414 CURVE",
"860 1460 LINE",
"834 1382 OFFCURVE",
"792 1334 OFFCURVE",
"736 1334 CURVE SMOOTH",
"650 1334 OFFCURVE",
"558 1440 OFFCURVE",
"448 1440 CURVE SMOOTH",
"358 1440 OFFCURVE",
"290 1366 OFFCURVE",
"250 1260 CURVE",
"324 1216 LINE"
);
}
);
width = 1154;
}
);
leftKerningGroup = naccent;
rightKerningGroup = naccent;
unicode = 00F1;
},
{
color = 1;
glyphname = o;
lastChange = "2022-02-16 15:38:45 +0000";
layers = (
{
anchors = (
{
name = bottom;
position = "{586, 0}";
},
{
name = horn;
position = "{974, 960}";
},
{
name = ogonek;
position = "{802, 0}";
},
{
name = top;
position = "{586, 960}";
}
);
layerId = "38FA562F-EF2C-4367-983C-F15B205514DC";
paths = (
{
closed = 1;
nodes = (
"877 -30 OFFCURVE",
"1092 202 OFFCURVE",
"1092 480 CURVE SMOOTH",
"1092 758 OFFCURVE",
"876 990 OFFCURVE",
"586 990 CURVE SMOOTH",
"296 990 OFFCURVE",
"80 758 OFFCURVE",
"80 480 CURVE SMOOTH",
"80 202 OFFCURVE",
"296 -30 OFFCURVE",
"586 -30 CURVE SMOOTH"
);
},
{
closed = 1;
nodes = (
"360 78 OFFCURVE",
"200 234 OFFCURVE",
"200 480 CURVE SMOOTH",
"200 726 OFFCURVE",
"360 882 OFFCURVE",
"586 882 CURVE SMOOTH",
"812 882 OFFCURVE",
"972 726 OFFCURVE",
"972 480 CURVE SMOOTH",
"972 234 OFFCURVE",
"812 78 OFFCURVE",
"586 78 CURVE SMOOTH"
);
}
);
width = 1172;
}
);
leftKerningGroup = o;
rightKerningGroup = o;
rightMetricsKey = "=|";
unicode = 006F;
},
{
color = 9;
glyphname = oacute;
lastChange = "2022-02-16 15:38:40 +0000";
layers = (
{
anchors = (
{
name = bottom;
position = "{586, 0}";
},
{
name = horn;
position = "{974, 960}";
},
{
name = ogonek;
position = "{802, 0}";
},
{
name = top;
position = "{586, 960}";
}
);
layerId = "38FA562F-EF2C-4367-983C-F15B205514DC";
paths = (
{
closed = 1;
nodes = (
"877 -30 OFFCURVE",
"1092 202 OFFCURVE",
"1092 480 CURVE SMOOTH",
"1092 758 OFFCURVE",
"876 990 OFFCURVE",
"586 990 CURVE SMOOTH",
"296 990 OFFCURVE",
"80 758 OFFCURVE",
"80 480 CURVE SMOOTH",
"80 202 OFFCURVE",
"296 -30 OFFCURVE",
"586 -30 CURVE SMOOTH"
);
},
{
closed = 1;
nodes = (
"360 78 OFFCURVE",
"200 234 OFFCURVE",
"200 480 CURVE SMOOTH",
"200 726 OFFCURVE",
"360 882 OFFCURVE",
"586 882 CURVE SMOOTH",
"812 882 OFFCURVE",
"972 726 OFFCURVE",
"972 480 CURVE SMOOTH",
"972 234 OFFCURVE",
"812 78 OFFCURVE",
"586 78 CURVE SMOOTH"
);
},
{
closed = 1;
nodes = (
"630 1170 LINE",
"824 1504 LINE",
"704 1504 LINE",
"522 1170 LINE"
);
}
);
width = 1172;
}
);
leftKerningGroup = o;
rightKerningGroup = oaccent;
unicode = 00F3;
},
{
color = 9;
glyphname = ocircumflex;
lastChange = "2022-02-16 15:38:40 +0000";
layers = (
{
anchors = (
{
name = bottom;
position = "{586, 0}";
},
{
name = horn;
position = "{974, 960}";
},
{
name = ogonek;
position = "{802, 0}";
},
{
name = top;
position = "{586, 1444}";
},
{
name = top_right;
position = "{894, 1224}";
}
);
layerId = "38FA562F-EF2C-4367-983C-F15B205514DC";
paths = (
{
closed = 1;
nodes = (
"877 -30 OFFCURVE",
"1092 202 OFFCURVE",
"1092 480 CURVE SMOOTH",
"1092 758 OFFCURVE",
"876 990 OFFCURVE",
"586 990 CURVE SMOOTH",
"296 990 OFFCURVE",
"80 758 OFFCURVE",
"80 480 CURVE SMOOTH",
"80 202 OFFCURVE",
"296 -30 OFFCURVE",
"586 -30 CURVE SMOOTH"
);
},
{
closed = 1;
nodes = (
"360 78 OFFCURVE",
"200 234 OFFCURVE",
"200 480 CURVE SMOOTH",
"200 726 OFFCURVE",
"360 882 OFFCURVE",
"586 882 CURVE SMOOTH",
"812 882 OFFCURVE",
"972 726 OFFCURVE",
"972 480 CURVE SMOOTH",
"972 234 OFFCURVE",
"812 78 OFFCURVE",
"586 78 CURVE SMOOTH"
);
},
{
closed = 1;
nodes = (
"394 1170 LINE",
"592 1426 LINE",
"780 1170 LINE",
"900 1170 LINE",
"656 1504 LINE",
"532 1504 LINE",
"272 1170 LINE"
);
}
);
width = 1172;
}
);
leftKerningGroup = oaccent;
rightKerningGroup = oaccent;
unicode = 00F4;
},
{
color = 9;
glyphname = odieresis;
lastChange = "2022-02-16 15:38:40 +0000";
layers = (
{
anchors = (
{
name = bottom;
position = "{586, 0}";
},
{
name = horn;
position = "{974, 960}";
},
{
name = ogonek;
position = "{802, 0}";
},
{
name = top;
position = "{586, 1284}";
}
);
layerId = "38FA562F-EF2C-4367-983C-F15B205514DC";
paths = (
{
closed = 1;
nodes = (
"877 -30 OFFCURVE",
"1092 202 OFFCURVE",
"1092 480 CURVE SMOOTH",
"1092 758 OFFCURVE",
"876 990 OFFCURVE",
"586 990 CURVE SMOOTH",
"296 990 OFFCURVE",
"80 758 OFFCURVE",
"80 480 CURVE SMOOTH",
"80 202 OFFCURVE",
"296 -30 OFFCURVE",
"586 -30 CURVE SMOOTH"
);
},
{
closed = 1;
nodes = (
"360 78 OFFCURVE",
"200 234 OFFCURVE",
"200 480 CURVE SMOOTH",
"200 726 OFFCURVE",
"360 882 OFFCURVE",
"586 882 CURVE SMOOTH",
"812 882 OFFCURVE",
"972 726 OFFCURVE",
"972 480 CURVE SMOOTH",
"972 234 OFFCURVE",
"812 78 OFFCURVE",
"586 78 CURVE SMOOTH"
);
},
{
closed = 1;
nodes = (
"456 1162 OFFCURVE",
"498 1204 OFFCURVE",
"498 1256 CURVE SMOOTH",
"498 1308 OFFCURVE",
"456 1350 OFFCURVE",
"404 1350 CURVE SMOOTH",
"352 1350 OFFCURVE",
"310 1308 OFFCURVE",
"310 1256 CURVE SMOOTH",
"310 1204 OFFCURVE",
"352 1162 OFFCURVE",
"404 1162 CURVE SMOOTH"
);
},
{
closed = 1;
nodes = (
"820 1162 OFFCURVE",
"862 1204 OFFCURVE",
"862 1256 CURVE SMOOTH",
"862 1308 OFFCURVE",
"820 1350 OFFCURVE",
"768 1350 CURVE SMOOTH",
"716 1350 OFFCURVE",
"674 1308 OFFCURVE",
"674 1256 CURVE SMOOTH",
"674 1204 OFFCURVE",
"716 1162 OFFCURVE",
"768 1162 CURVE SMOOTH"
);
}
);
width = 1172;
}
);
leftKerningGroup = oaccent;
rightKerningGroup = oaccent;
unicode = 00F6;
},
{
color = 9;
glyphname = ograve;
lastChange = "2022-02-16 15:38:40 +0000";
layers = (
{
anchors = (
{
name = bottom;
position = "{586, 0}";
},
{
name = horn;
position = "{974, 960}";
},
{
name = ogonek;
position = "{802, 0}";
},
{
name = top;
position = "{586, 960}";
}
);
layerId = "38FA562F-EF2C-4367-983C-F15B205514DC";
paths = (
{
closed = 1;
nodes = (
"877 -30 OFFCURVE",
"1092 202 OFFCURVE",
"1092 480 CURVE SMOOTH",
"1092 758 OFFCURVE",
"876 990 OFFCURVE",
"586 990 CURVE SMOOTH",
"296 990 OFFCURVE",
"80 758 OFFCURVE",
"80 480 CURVE SMOOTH",
"80 202 OFFCURVE",
"296 -30 OFFCURVE",
"586 -30 CURVE SMOOTH"
);
},
{
closed = 1;
nodes = (
"360 78 OFFCURVE",
"200 234 OFFCURVE",
"200 480 CURVE SMOOTH",
"200 726 OFFCURVE",
"360 882 OFFCURVE",
"586 882 CURVE SMOOTH",
"812 882 OFFCURVE",
"972 726 OFFCURVE",
"972 480 CURVE SMOOTH",
"972 234 OFFCURVE",
"812 78 OFFCURVE",
"586 78 CURVE SMOOTH"
);
},
{
closed = 1;
nodes = (
"666 1170 LINE",
"486 1504 LINE",
"360 1504 LINE",
"554 1170 LINE"
);
}
);
width = 1172;
}
);
leftKerningGroup = oaccent;
rightKerningGroup = o;
unicode = 00F2;
},
{
color = 9;
glyphname = oslash;
lastChange = "2022-02-16 15:38:40 +0000";
layers = (
{
anchors = (
{
name = top;
position = "{586, 960}";
}
);
layerId = "38FA562F-EF2C-4367-983C-F15B205514DC";
paths = (
{
closed = 1;
nodes = (
"300 56 LINE",
"380 2 OFFCURVE",
"478 -30 OFFCURVE",
"586 -30 CURVE SMOOTH",
"876 -30 OFFCURVE",
"1092 202 OFFCURVE",
"1092 480 CURVE SMOOTH",
"1092 622 OFFCURVE",
"1036 750 OFFCURVE",
"944 844 CURVE",
"1030 950 LINE",
"958 1010 LINE",
"872 904 LINE",
"792 958 OFFCURVE",
"694 990 OFFCURVE",
"586 990 CURVE SMOOTH",
"296 990 OFFCURVE",
"80 758 OFFCURVE",
"80 480 CURVE SMOOTH",
"80 338 OFFCURVE",
"136 210 OFFCURVE",
"228 116 CURVE",
"142 10 LINE",
"214 -50 LINE"
);
},
{
closed = 1;
nodes = (
"236 268 OFFCURVE",
"200 364 OFFCURVE",
"200 480 CURVE SMOOTH",
"200 726 OFFCURVE",
"360 882 OFFCURVE",
"586 882 CURVE SMOOTH",
"670 882 OFFCURVE",
"744 860 OFFCURVE",
"804 822 CURVE",
"296 200 LINE"
);
},
{
closed = 1;
nodes = (
"502 78 OFFCURVE",
"428 100 OFFCURVE",
"368 138 CURVE",
"876 760 LINE",
"936 692 OFFCURVE",
"972 596 OFFCURVE",
"972 480 CURVE SMOOTH",
"972 234 OFFCURVE",
"812 78 OFFCURVE",
"586 78 CURVE SMOOTH"
);
}
);
width = 1172;
}
);
leftKerningGroup = oslash;
widthMetricsKey = o;
rightKerningGroup = oslash;
unicode = 00F8;
},
{
color = 9;
glyphname = otilde;
lastChange = "2022-02-16 15:38:40 +0000";
layers = (
{
anchors = (
{
name = bottom;
position = "{586, 0}";
},
{
name = horn;
position = "{974, 960}";
},
{
name = ogonek;
position = "{802, 0}";
},
{
name = top;
position = "{586, 1344}";
}
);
layerId = "38FA562F-EF2C-4367-983C-F15B205514DC";
paths = (
{
closed = 1;
nodes = (
"877 -30 OFFCURVE",
"1092 202 OFFCURVE",
"1092 480 CURVE SMOOTH",
"1092 758 OFFCURVE",
"876 990 OFFCURVE",
"586 990 CURVE SMOOTH",
"296 990 OFFCURVE",
"80 758 OFFCURVE",
"80 480 CURVE SMOOTH",
"80 202 OFFCURVE",
"296 -30 OFFCURVE",
"586 -30 CURVE SMOOTH"
);
},
{
closed = 1;
nodes = (
"360 78 OFFCURVE",
"200 234 OFFCURVE",
"200 480 CURVE SMOOTH",
"200 726 OFFCURVE",
"360 882 OFFCURVE",
"586 882 CURVE SMOOTH",
"812 882 OFFCURVE",
"972 726 OFFCURVE",
"972 480 CURVE SMOOTH",
"972 234 OFFCURVE",
"812 78 OFFCURVE",
"586 78 CURVE SMOOTH"
);
},
{
closed = 1;
nodes = (
"346 1296 OFFCURVE",
"386 1340 OFFCURVE",
"442 1340 CURVE SMOOTH",
"528 1340 OFFCURVE",
"620 1236 OFFCURVE",
"730 1236 CURVE SMOOTH",
"814 1236 OFFCURVE",
"886 1302 OFFCURVE",
"928 1414 CURVE",
"854 1460 LINE",
"828 1382 OFFCURVE",
"786 1334 OFFCURVE",
"730 1334 CURVE SMOOTH",
"644 1334 OFFCURVE",
"552 1440 OFFCURVE",
"442 1440 CURVE SMOOTH",
"352 1440 OFFCURVE",
"284 1366 OFFCURVE",
"244 1260 CURVE",
"318 1216 LINE"
);
}
);
width = 1172;
}
);
leftKerningGroup = oaccent;
rightKerningGroup = oaccent;
unicode = 00F5;
},
{
color = 9;
glyphname = oe;
lastChange = "2022-02-16 15:38:40 +0000";
layers = (
{
layerId = "38FA562F-EF2C-4367-983C-F15B205514DC";
paths = (
{
closed = 1;
nodes = (
"876 -30 OFFCURVE",
"1092 202 OFFCURVE",
"1092 480 CURVE SMOOTH",
"1092 758 OFFCURVE",
"876 990 OFFCURVE",
"586 990 CURVE SMOOTH",
"296 990 OFFCURVE",
"80 758 OFFCURVE",
"80 480 CURVE SMOOTH",
"80 202 OFFCURVE",
"296 -30 OFFCURVE",
"586 -30 CURVE SMOOTH"
);
},
{
closed = 1;
nodes = (
"360 78 OFFCURVE",
"200 234 OFFCURVE",
"200 480 CURVE SMOOTH",
"200 726 OFFCURVE",
"360 882 OFFCURVE",
"586 882 CURVE SMOOTH",
"812 882 OFFCURVE",
"972 726 OFFCURVE",
"972 480 CURVE SMOOTH",
"972 234 OFFCURVE",
"812 78 OFFCURVE",
"586 78 CURVE SMOOTH"
);
},
{
closed = 1;
nodes = (
"1608 -30 OFFCURVE",
"1746 8 OFFCURVE",
"1846 90 CURVE",
"1780 184 LINE",
"1708 116 OFFCURVE",
"1598 78 OFFCURVE",
"1496 78 CURVE SMOOTH",
"1240 78 OFFCURVE",
"1084 234 OFFCURVE",
"1096 468 CURVE",
"1910 468 LINE",
"1938 764 OFFCURVE",
"1760 990 OFFCURVE",
"1464 990 CURVE SMOOTH",
"1184 990 OFFCURVE",
"972 770 OFFCURVE",
"972 476 CURVE SMOOTH",
"972 174 OFFCURVE",
"1182 -30 OFFCURVE",
"1482 -30 CURVE SMOOTH"
);
},
{
closed = 1;
nodes = (
"1124 768 OFFCURVE",
"1262 882 OFFCURVE",
"1464 882 CURVE SMOOTH",
"1672 882 OFFCURVE",
"1780 768 OFFCURVE",
"1790 572 CURVE",
"1100 572 LINE"
);
}
);
width = 1993;
}
);
leftKerningGroup = o;
leftMetricsKey = o;
rightKerningGroup = o;
rightMetricsKey = e;
unicode = 0153;
},
{
color = 1;
glyphname = p;
lastChange = "2022-02-16 15:38:45 +0000";
layers = (
{
layerId = "38FA562F-EF2C-4367-983C-F15B205514DC";
paths = (
{
closed = 1;
nodes = (
"282 -420 LINE",
"282 168 LINE",
"366 50 OFFCURVE",
"498 -30 OFFCURVE",
"688 -30 CURVE SMOOTH",
"978 -30 OFFCURVE",
"1174 202 OFFCURVE",
"1174 480 CURVE SMOOTH",
"1174 758 OFFCURVE",
"978 990 OFFCURVE",
"688 990 CURVE SMOOTH",
"484 990 OFFCURVE",
"366 908 OFFCURVE",
"282 798 CURVE",
"282 960 LINE",
"170 960 LINE",
"170 -420 LINE"
);
},
{
closed = 1;
nodes = (
"442 78 OFFCURVE",
"282 234 OFFCURVE",
"282 480 CURVE SMOOTH",
"282 726 OFFCURVE",
"442 882 OFFCURVE",
"668 882 CURVE SMOOTH",
"894 882 OFFCURVE",
"1054 726 OFFCURVE",
"1054 480 CURVE SMOOTH",
"1054 234 OFFCURVE",
"894 78 OFFCURVE",
"668 78 CURVE SMOOTH"
);
}
);
width = 1254;
}
);
leftKerningGroup = n;
leftMetricsKey = n;
rightKerningGroup = o;
rightMetricsKey = o;
unicode = 0070;
},
{
color = 9;
glyphname = thorn;
lastChange = "2022-02-16 15:38:40 +0000";
layers = (
{
layerId = "38FA562F-EF2C-4367-983C-F15B205514DC";
paths = (
{
closed = 1;
nodes = (
"282 -420 LINE",
"282 168 LINE",
"366 50 OFFCURVE",
"498 -30 OFFCURVE",
"688 -30 CURVE SMOOTH",
"978 -30 OFFCURVE",
"1174 202 OFFCURVE",
"1174 480 CURVE SMOOTH",
"1174 758 OFFCURVE",
"978 990 OFFCURVE",
"688 990 CURVE SMOOTH",
"498 990 OFFCURVE",
"366 902 OFFCURVE",
"282 784 CURVE",
"282 1440 LINE",
"170 1440 LINE",
"170 -420 LINE"
);
},
{
closed = 1;
nodes = (
"442 78 OFFCURVE",
"282 234 OFFCURVE",
"282 480 CURVE SMOOTH",
"282 726 OFFCURVE",
"442 882 OFFCURVE",
"668 882 CURVE SMOOTH",
"894 882 OFFCURVE",
"1054 726 OFFCURVE",
"1054 480 CURVE SMOOTH",
"1054 234 OFFCURVE",
"894 78 OFFCURVE",
"668 78 CURVE SMOOTH"
);
}
);
width = 1254;
}
);
leftKerningGroup = h;
leftMetricsKey = h;
rightKerningGroup = o;
rightMetricsKey = o;
unicode = 00FE;
},
{
color = 1;
glyphname = q;
lastChange = "2022-02-16 15:38:45 +0000";
layers = (
{
layerId = "38FA562F-EF2C-4367-983C-F15B205514DC";
paths = (
{
closed = 1;
nodes = (
"1084 -420 LINE",
"1084 960 LINE",
"972 960 LINE",
"972 748 LINE",
"990 774 LINE",
"904 896 OFFCURVE",
"784 990 OFFCURVE",
"566 990 CURVE SMOOTH",
"276 990 OFFCURVE",
"80 758 OFFCURVE",
"80 480 CURVE SMOOTH",
"80 202 OFFCURVE",
"276 -30 OFFCURVE",
"566 -30 CURVE SMOOTH",
"770 -30 OFFCURVE",
"906 62 OFFCURVE",
"990 194 CURVE",
"972 218 LINE",
"972 -420 LINE"
);
},
{
closed = 1;
nodes = (
"360 78 OFFCURVE",
"200 234 OFFCURVE",
"200 480 CURVE SMOOTH",
"200 726 OFFCURVE",
"360 882 OFFCURVE",
"586 882 CURVE SMOOTH",
"812 882 OFFCURVE",
"972 726 OFFCURVE",
"972 480 CURVE SMOOTH",
"972 234 OFFCURVE",
"812 78 OFFCURVE",
"586 78 CURVE SMOOTH"
);
}
);
width = 1254;
}
);
leftKerningGroup = o;
leftMetricsKey = o;
rightKerningGroup = q;
rightMetricsKey = l;
unicode = 0071;
},
{
color = 1;
glyphname = r;
lastChange = "2022-02-16 15:38:45 +0000";
layers = (
{
anchors = (
{
name = bottom;
position = "{226, 0}";
},
{
name = top;
position = "{442, 960}";
}
);
guideLines = (
{
position = "{226, 0}";
}
);
layerId = "38FA562F-EF2C-4367-983C-F15B205514DC";
paths = (
{
closed = 1;
nodes = (
"282 0 LINE",
"282 558 LINE SMOOTH",
"282 746 OFFCURVE",
"414 874 OFFCURVE",
"598 874 CURVE SMOOTH",
"630 874 OFFCURVE",
"662 870 OFFCURVE",
"696 862 CURVE",
"716 980 LINE",
"682 988 OFFCURVE",
"644 990 OFFCURVE",
"610 990 CURVE SMOOTH",
"484 990 OFFCURVE",
"370 946 OFFCURVE",
"282 806 CURVE",
"282 960 LINE",
"170 960 LINE",
"170 0 LINE"
);
}
);
width = 756;
}
);
leftKerningGroup = n;
leftMetricsKey = l;
rightKerningGroup = r;
unicode = 0072;
},
{
color = 1;
glyphname = s;
lastChange = "2022-02-16 15:38:45 +0000";
layers = (
{
anchors = (
{
name = bottom;
position = "{454, 0}";
},
{
name = top;
position = "{470, 960}";
}
);
layerId = "38FA562F-EF2C-4367-983C-F15B205514DC";
paths = (
{
closed = 1;
nodes = (
"674 -30 OFFCURVE",
"818 82 OFFCURVE",
"818 256 CURVE SMOOTH",
"818 408 OFFCURVE",
"724 486 OFFCURVE",
"502 540 CURVE SMOOTH",
"320 584 OFFCURVE",
"238 622 OFFCURVE",
"238 730 CURVE SMOOTH",
"238 834 OFFCURVE",
"332 896 OFFCURVE",
"466 896 CURVE SMOOTH",
"576 896 OFFCURVE",
"682 854 OFFCURVE",
"746 786 CURVE",
"804 884 LINE",
"718 960 OFFCURVE",
"602 1000 OFFCURVE",
"470 1000 CURVE SMOOTH",
"270 1000 OFFCURVE",
"128 882 OFFCURVE",
"128 724 CURVE SMOOTH",
"128 574 OFFCURVE",
"220 500 OFFCURVE",
"444 442 CURVE SMOOTH",
"642 390 OFFCURVE",
"706 352 OFFCURVE",
"706 248 CURVE SMOOTH",
"706 138 OFFCURVE",
"610 74 OFFCURVE",
"456 74 CURVE SMOOTH",
"344 74 OFFCURVE",
"234 116 OFFCURVE",
"160 190 CURVE",
"98 94 LINE",
"178 21 OFFCURVE",
"316 -30 OFFCURVE",
"454 -30 CURVE SMOOTH"
);
}
);
width = 932;
}
);
leftKerningGroup = s;
rightKerningGroup = s;
unicode = 0073;
},
{
color = 9;
glyphname = germandbls;
lastChange = "2022-02-16 15:38:40 +0000";
layers = (
{
guideLines = (
{
angle = 90;
position = "{240, 307}";
}
);
layerId = "38FA562F-EF2C-4367-983C-F15B205514DC";
paths = (
{
closed = 1;
nodes = (
"932 -30 OFFCURVE",
"1082 86 OFFCURVE",
"1082 269 CURVE SMOOTH",
"1082 432 OFFCURVE",
"972 504 OFFCURVE",
"858 570 CURVE SMOOTH",
"780 616 OFFCURVE",
"694 664 OFFCURVE",
"694 748 CURVE SMOOTH",
"694 816 OFFCURVE",
"752 864 OFFCURVE",
"802 916 CURVE SMOOTH",
"874 992 OFFCURVE",
"962 1054 OFFCURVE",
"962 1176 CURVE SMOOTH",
"962 1354 OFFCURVE",
"800 1470 OFFCURVE",
"570 1470 CURVE SMOOTH",
"326 1470 OFFCURVE",
"170 1310 OFFCURVE",
"170 1092 CURVE SMOOTH",
"170 0 LINE",
"282 0 LINE",
"282 1060 LINE SMOOTH",
"282 1250 OFFCURVE",
"382 1362 OFFCURVE",
"574 1362 CURVE SMOOTH",
"728 1362 OFFCURVE",
"840 1292 OFFCURVE",
"840 1174 CURVE SMOOTH",
"840 1090 OFFCURVE",
"774 1040 OFFCURVE",
"708 972 CURVE SMOOTH",
"652 914 OFFCURVE",
"570 848 OFFCURVE",
"570 744 CURVE SMOOTH",
"570 612 OFFCURVE",
"696 536 OFFCURVE",
"786 480 CURVE SMOOTH",
"878 424 OFFCURVE",
"960 370 OFFCURVE",
"960 260 CURVE SMOOTH",
"960 142 OFFCURVE",
"866 74 OFFCURVE",
"716 74 CURVE SMOOTH",
"650 74 OFFCURVE",
"597 87 OFFCURVE",
"517 131 CURVE",
"469 30 LINE",
"571 -22 OFFCURVE",
"658 -30 OFFCURVE",
"710 -30 CURVE SMOOTH"
);
}
);
width = 1162;
},
{
associatedMasterId = "38FA562F-EF2C-4367-983C-F15B205514DC";
guideLines = (
{
angle = 90;
position = "{240, 307}";
}
);
layerId = "8BD7FD7F-29BC-4165-A9CE-10E5B66AAEEE";
name = "May 6 20, 22:40";
paths = (
{
closed = 1;
nodes = (
"932 -30 OFFCURVE",
"1082 86 OFFCURVE",
"1082 260 CURVE SMOOTH",
"1082 432 OFFCURVE",
"972 504 OFFCURVE",
"858 570 CURVE SMOOTH",
"780 616 OFFCURVE",
"694 664 OFFCURVE",
"694 754 CURVE SMOOTH",
"694 816 OFFCURVE",
"752 864 OFFCURVE",
"802 916 CURVE SMOOTH",
"874 992 OFFCURVE",
"962 1054 OFFCURVE",
"962 1176 CURVE SMOOTH",
"962 1354 OFFCURVE",
"800 1470 OFFCURVE",
"570 1470 CURVE SMOOTH",
"326 1470 OFFCURVE",
"170 1310 OFFCURVE",
"170 1092 CURVE SMOOTH",
"170 0 LINE",
"282 0 LINE",
"282 1060 LINE SMOOTH",
"282 1250 OFFCURVE",
"382 1362 OFFCURVE",
"574 1362 CURVE SMOOTH",
"728 1362 OFFCURVE",
"840 1292 OFFCURVE",
"840 1174 CURVE SMOOTH",
"840 1090 OFFCURVE",
"774 1040 OFFCURVE",
"708 972 CURVE SMOOTH",
"652 914 OFFCURVE",
"570 848 OFFCURVE",
"570 744 CURVE SMOOTH",
"570 612 OFFCURVE",
"696 536 OFFCURVE",
"786 480 CURVE SMOOTH",
"878 424 OFFCURVE",
"960 370 OFFCURVE",
"960 256 CURVE SMOOTH",
"960 142 OFFCURVE",
"866 74 OFFCURVE",
"716 74 CURVE SMOOTH",
"642 74 OFFCURVE",
"570 88 OFFCURVE",
"502 112 CURVE",
"502 -4 LINE",
"574 -22 OFFCURVE",
"658 -30 OFFCURVE",
"710 -30 CURVE SMOOTH"
);
}
);
width = 1162;
}
);
leftKerningGroup = h;
leftMetricsKey = n;
rightKerningGroup = saccent;
rightMetricsKey = o;
unicode = 00DF;
},
{
color = 1;
glyphname = t;
lastChange = "2022-02-16 15:38:45 +0000";
layers = (
{
anchors = (
{
name = bar;
position = "{392, 520}";
},
{
name = bottom;
position = "{514, 0}";
},
{
name = caron;
position = "{392, 1440}";
}
);
layerId = "38FA562F-EF2C-4367-983C-F15B205514DC";
paths = (
{
closed = 1;
nodes = (
"612 -30 OFFCURVE",
"674 -16 OFFCURVE",
"726 10 CURVE",
"690 108 LINE",
"658 92 OFFCURVE",
"616 80 OFFCURVE",
"565 80 CURVE SMOOTH",
"448 80 OFFCURVE",
"392 140 OFFCURVE",
"392 310 CURVE SMOOTH",
"392 856 LINE",
"702 856 LINE",
"702 960 LINE",
"392 960 LINE",
"392 1246 LINE",
"280 1246 LINE",
"280 270 LINE SMOOTH",
"280 62 OFFCURVE",
"392 -30 OFFCURVE",
"554 -30 CURVE SMOOTH"
);
},
{
closed = 1;
nodes = (
"306 856 LINE",
"306 960 LINE",
"42 960 LINE",
"42 856 LINE"
);
}
);
width = 820;
}
);
leftKerningGroup = t;
rightKerningGroup = t;
unicode = 0074;
},
{
color = 1;
glyphname = u;
lastChange = "2022-02-16 15:38:45 +0000";
layers = (
{
anchors = (
{
name = bottom;
position = "{554, 0}";
},
{
name = descender;
position = "{972, 0}";
},
{
name = horn;
position = "{972, 960}";
},
{
name = ogonek;
position = "{972, 0}";
},
{
name = top;
position = "{562, 960}";
}
);
layerId = "38FA562F-EF2C-4367-983C-F15B205514DC";
paths = (
{
closed = 1;
nodes = (
"654 -30 OFFCURVE",
"770 14 OFFCURVE",
"860 126 CURVE",
"860 0 LINE",
"972 0 LINE",
"972 960 LINE",
"860 960 LINE",
"860 390 LINE SMOOTH",
"860 204 OFFCURVE",
"722 78 OFFCURVE",
"554 78 CURVE SMOOTH",
"380 78 OFFCURVE",
"272 188 OFFCURVE",
"272 348 CURVE SMOOTH",
"272 960 LINE",
"160 960 LINE",
"160 314 LINE SMOOTH",
"160 152 OFFCURVE",
"282 -30 OFFCURVE",
"534 -30 CURVE SMOOTH"
);
}
);
width = 1142;
}
);
leftKerningGroup = u;
leftMetricsKey = "=|n";
rightKerningGroup = u;
rightMetricsKey = l;
unicode = 0075;
},
{
color = 9;
glyphname = uacute;
lastChange = "2022-02-16 15:38:40 +0000";
layers = (
{
anchors = (
{
name = bottom;
position = "{554, 0}";
},
{
name = descender;
position = "{972, 0}";
},
{
name = horn;
position = "{972, 960}";
},
{
name = ogonek;
position = "{972, 0}";
},
{
name = top;
position = "{562, 960}";
}
);
layerId = "38FA562F-EF2C-4367-983C-F15B205514DC";
paths = (
{
closed = 1;
nodes = (
"654 -30 OFFCURVE",
"770 14 OFFCURVE",
"860 126 CURVE",
"860 0 LINE",
"972 0 LINE",
"972 960 LINE",
"860 960 LINE",
"860 390 LINE SMOOTH",
"860 204 OFFCURVE",
"722 78 OFFCURVE",
"554 78 CURVE SMOOTH",
"380 78 OFFCURVE",
"272 188 OFFCURVE",
"272 348 CURVE SMOOTH",
"272 960 LINE",
"160 960 LINE",
"160 314 LINE SMOOTH",
"160 152 OFFCURVE",
"282 -30 OFFCURVE",
"534 -30 CURVE SMOOTH"
);
},
{
closed = 1;
nodes = (
"606 1170 LINE",
"800 1504 LINE",
"680 1504 LINE",
"498 1170 LINE"
);
}
);
width = 1142;
}
);
leftKerningGroup = u;
rightKerningGroup = uaccent;
unicode = 00FA;
},
{
color = 9;
glyphname = ucircumflex;
lastChange = "2022-02-16 15:38:40 +0000";
layers = (
{
anchors = (
{
name = bottom;
position = "{554, 0}";
},
{
name = descender;
position = "{972, 0}";
},
{
name = horn;
position = "{972, 960}";
},
{
name = ogonek;
position = "{972, 0}";
},
{
name = top;
position = "{562, 1444}";
},
{
name = top_right;
position = "{870, 1224}";
}
);
layerId = "38FA562F-EF2C-4367-983C-F15B205514DC";
paths = (
{
closed = 1;
nodes = (
"654 -30 OFFCURVE",
"770 14 OFFCURVE",
"860 126 CURVE",
"860 0 LINE",
"972 0 LINE",
"972 960 LINE",
"860 960 LINE",
"860 390 LINE SMOOTH",
"860 204 OFFCURVE",
"722 78 OFFCURVE",
"554 78 CURVE SMOOTH",
"380 78 OFFCURVE",
"272 188 OFFCURVE",
"272 348 CURVE SMOOTH",
"272 960 LINE",
"160 960 LINE",
"160 314 LINE SMOOTH",
"160 152 OFFCURVE",
"282 -30 OFFCURVE",
"534 -30 CURVE SMOOTH"
);
},
{
closed = 1;
nodes = (
"370 1170 LINE",
"568 1426 LINE",
"756 1170 LINE",
"876 1170 LINE",
"632 1504 LINE",
"508 1504 LINE",
"248 1170 LINE"
);
}
);
width = 1142;
}
);
leftKerningGroup = uaccent;
rightKerningGroup = uaccent;
unicode = 00FB;
},
{
color = 9;
glyphname = udieresis;
lastChange = "2022-02-16 15:38:40 +0000";
layers = (
{
anchors = (
{
name = bottom;
position = "{554, 0}";
},
{
name = descender;
position = "{972, 0}";
},
{
name = horn;
position = "{972, 960}";
},
{
name = ogonek;
position = "{972, 0}";
},
{
name = top;
position = "{562, 1284}";
}
);
layerId = "38FA562F-EF2C-4367-983C-F15B205514DC";
paths = (
{
closed = 1;
nodes = (
"654 -30 OFFCURVE",
"770 14 OFFCURVE",
"860 126 CURVE",
"860 0 LINE",
"972 0 LINE",
"972 960 LINE",
"860 960 LINE",
"860 390 LINE SMOOTH",
"860 204 OFFCURVE",
"722 78 OFFCURVE",
"554 78 CURVE SMOOTH",
"380 78 OFFCURVE",
"272 188 OFFCURVE",
"272 348 CURVE SMOOTH",
"272 960 LINE",
"160 960 LINE",
"160 314 LINE SMOOTH",
"160 152 OFFCURVE",
"282 -30 OFFCURVE",
"534 -30 CURVE SMOOTH"
);
},
{
closed = 1;
nodes = (
"432 1162 OFFCURVE",
"474 1204 OFFCURVE",
"474 1256 CURVE SMOOTH",
"474 1308 OFFCURVE",
"432 1350 OFFCURVE",
"380 1350 CURVE SMOOTH",
"328 1350 OFFCURVE",
"286 1308 OFFCURVE",
"286 1256 CURVE SMOOTH",
"286 1204 OFFCURVE",
"328 1162 OFFCURVE",
"380 1162 CURVE SMOOTH"
);
},
{
closed = 1;
nodes = (
"796 1162 OFFCURVE",
"838 1204 OFFCURVE",
"838 1256 CURVE SMOOTH",
"838 1308 OFFCURVE",
"796 1350 OFFCURVE",
"744 1350 CURVE SMOOTH",
"692 1350 OFFCURVE",
"650 1308 OFFCURVE",
"650 1256 CURVE SMOOTH",
"650 1204 OFFCURVE",
"692 1162 OFFCURVE",
"744 1162 CURVE SMOOTH"
);
}
);
width = 1142;
}
);
leftKerningGroup = uaccent;
rightKerningGroup = uaccent;
unicode = 00FC;
},
{
color = 9;
glyphname = ugrave;
lastChange = "2022-02-16 15:38:40 +0000";
layers = (
{
anchors = (
{
name = bottom;
position = "{554, 0}";
},
{
name = descender;
position = "{972, 0}";
},
{
name = horn;
position = "{972, 960}";
},
{
name = ogonek;
position = "{972, 0}";
},
{
name = top;
position = "{562, 960}";
}
);
layerId = "38FA562F-EF2C-4367-983C-F15B205514DC";
paths = (
{
closed = 1;
nodes = (
"654 -30 OFFCURVE",
"770 14 OFFCURVE",
"860 126 CURVE",
"860 0 LINE",
"972 0 LINE",
"972 960 LINE",
"860 960 LINE",
"860 390 LINE SMOOTH",
"860 204 OFFCURVE",
"722 78 OFFCURVE",
"554 78 CURVE SMOOTH",
"380 78 OFFCURVE",
"272 188 OFFCURVE",
"272 348 CURVE SMOOTH",
"272 960 LINE",
"160 960 LINE",
"160 314 LINE SMOOTH",
"160 152 OFFCURVE",
"282 -30 OFFCURVE",
"534 -30 CURVE SMOOTH"
);
},
{
closed = 1;
nodes = (
"642 1170 LINE",
"462 1504 LINE",
"336 1504 LINE",
"530 1170 LINE"
);
}
);
width = 1142;
}
);
leftKerningGroup = uaccent;
rightKerningGroup = u;
unicode = 00F9;
},
{
color = 1;
glyphname = v;
lastChange = "2022-02-16 15:38:45 +0000";
layers = (
{
layerId = "38FA562F-EF2C-4367-983C-F15B205514DC";
paths = (
{
closed = 1;
nodes = (
"544 0 LINE",
"924 960 LINE",
"798 960 LINE",
"472 94 LINE",
"502 94 LINE",
"172 960 LINE",
"42 960 LINE",
"422 0 LINE"
);
}
);
width = 966;
}
);
leftKerningGroup = v;
rightKerningGroup = v;
rightMetricsKey = "=|";
unicode = 0076;
},
{
color = 1;
glyphname = w;
lastChange = "2022-02-16 15:38:45 +0000";
layers = (
{
anchors = (
{
name = top;
position = "{750, 960}";
}
);
layerId = "38FA562F-EF2C-4367-983C-F15B205514DC";
paths = (
{
closed = 1;
nodes = (
"486 0 LINE",
"754 802 LINE",
"1012 0 LINE",
"1140 0 LINE",
"1456 960 LINE",
"1344 960 LINE",
"1076 132 LINE",
"824 960 LINE",
"696 960 LINE",
"422 132 LINE",
"164 960 LINE",
"42 960 LINE",
"358 0 LINE"
);
}
);
width = 1498;
}
);
leftKerningGroup = v;
leftMetricsKey = v;
rightKerningGroup = v;
rightMetricsKey = v;
unicode = 0077;
},
{
color = 1;
glyphname = x;
lastChange = "2022-02-16 15:38:45 +0000";
layers = (
{
layerId = "38FA562F-EF2C-4367-983C-F15B205514DC";
paths = (
{
closed = 1;
nodes = (
"174 0 LINE",
"456 408 LINE",
"732 0 LINE",
"876 0 LINE",
"528 498 LINE",
"844 960 LINE",
"710 960 LINE",
"460 582 LINE",
"202 960 LINE",
"60 960 LINE",
"388 492 LINE",
"38 0 LINE"
);
}
);
width = 914;
}
);
leftKerningGroup = x;
rightKerningGroup = x;
rightMetricsKey = "=|";
unicode = 0078;
},
{
color = 1;
glyphname = y;
lastChange = "2022-02-16 15:38:45 +0000";
layers = (
{
anchors = (
{
name = bottom;
position = "{732, 0}";
},
{
name = top;
position = "{482, 960}";
}
);
layerId = "38FA562F-EF2C-4367-983C-F15B205514DC";
paths = (
{
closed = 1;
nodes = (
"328 -450 OFFCURVE",
"418 -400 OFFCURVE",
"500 -184 CURVE SMOOTH",
"932 960 LINE",
"812 960 LINE",
"498 124 LINE",
"176 960 LINE",
"50 960 LINE",
"434 -28 LINE",
"384 -172 LINE SMOOTH",
"344 -286 OFFCURVE",
"298 -342 OFFCURVE",
"186 -342 CURVE SMOOTH",
"152 -342 OFFCURVE",
"102 -330 OFFCURVE",
"62 -300 CURVE",
"32 -402 LINE",
"90 -440 OFFCURVE",
"138 -450 OFFCURVE",
"188 -450 CURVE SMOOTH"
);
}
);
width = 964;
}
);
leftKerningGroup = y;
leftMetricsKey = "=v-10";
rightKerningGroup = v;
rightMetricsKey = "=v-10";
unicode = 0079;
},
{
color = 9;
glyphname = yacute;
lastChange = "2022-02-16 15:38:40 +0000";
layers = (
{
anchors = (
{
name = bottom;
position = "{732, 0}";
},
{
name = top;
position = "{482, 960}";
}
);
layerId = "38FA562F-EF2C-4367-983C-F15B205514DC";
paths = (
{
closed = 1;
nodes = (
"328 -450 OFFCURVE",
"418 -400 OFFCURVE",
"500 -184 CURVE SMOOTH",
"932 960 LINE",
"812 960 LINE",
"498 124 LINE",
"176 960 LINE",
"50 960 LINE",
"434 -28 LINE",
"384 -172 LINE SMOOTH",
"344 -286 OFFCURVE",
"298 -342 OFFCURVE",
"186 -342 CURVE SMOOTH",
"152 -342 OFFCURVE",
"102 -330 OFFCURVE",
"62 -300 CURVE",
"32 -402 LINE",
"90 -440 OFFCURVE",
"138 -450 OFFCURVE",
"188 -450 CURVE SMOOTH"
);
},
{
closed = 1;
nodes = (
"526 1170 LINE",
"720 1504 LINE",
"600 1504 LINE",
"418 1170 LINE"
);
}
);
width = 964;
}
);
leftKerningGroup = y;
rightKerningGroup = vaccent;
unicode = 00FD;
},
{
color = 9;
glyphname = ydieresis;
lastChange = "2022-02-16 15:38:40 +0000";
layers = (
{
anchors = (
{
name = bottom;
position = "{732, 0}";
},
{
name = top;
position = "{482, 1284}";
}
);
layerId = "38FA562F-EF2C-4367-983C-F15B205514DC";
paths = (
{
closed = 1;
nodes = (
"328 -450 OFFCURVE",
"418 -400 OFFCURVE",
"500 -184 CURVE SMOOTH",
"932 960 LINE",
"812 960 LINE",
"498 124 LINE",
"176 960 LINE",
"50 960 LINE",
"434 -28 LINE",
"384 -172 LINE SMOOTH",
"344 -286 OFFCURVE",
"298 -342 OFFCURVE",
"186 -342 CURVE SMOOTH",
"152 -342 OFFCURVE",
"102 -330 OFFCURVE",
"62 -300 CURVE",
"32 -402 LINE",
"90 -440 OFFCURVE",
"138 -450 OFFCURVE",
"188 -450 CURVE SMOOTH"
);
},
{
closed = 1;
nodes = (
"352 1162 OFFCURVE",
"394 1204 OFFCURVE",
"394 1256 CURVE SMOOTH",
"394 1308 OFFCURVE",
"352 1350 OFFCURVE",
"300 1350 CURVE SMOOTH",
"248 1350 OFFCURVE",
"206 1308 OFFCURVE",
"206 1256 CURVE SMOOTH",
"206 1204 OFFCURVE",
"248 1162 OFFCURVE",
"300 1162 CURVE SMOOTH"
);
},
{
closed = 1;
nodes = (
"716 1162 OFFCURVE",
"758 1204 OFFCURVE",
"758 1256 CURVE SMOOTH",
"758 1308 OFFCURVE",
"716 1350 OFFCURVE",
"664 1350 CURVE SMOOTH",
"612 1350 OFFCURVE",
"570 1308 OFFCURVE",
"570 1256 CURVE SMOOTH",
"570 1204 OFFCURVE",
"612 1162 OFFCURVE",
"664 1162 CURVE SMOOTH"
);
}
);
width = 964;
}
);
leftKerningGroup = yaccent;
rightKerningGroup = vaccent;
unicode = 00FF;
},
{
color = 1;
glyphname = z;
lastChange = "2022-02-16 15:38:45 +0000";
layers = (
{
anchors = (
{
name = top;
position = "{460, 960}";
}
);
layerId = "38FA562F-EF2C-4367-983C-F15B205514DC";
paths = (
{
closed = 1;
nodes = (
"822 0 LINE",
"822 104 LINE",
"236 104 LINE",
"814 864 LINE",
"814 960 LINE",
"106 960 LINE",
"106 856 LINE",
"678 856 LINE",
"100 96 LINE",
"100 0 LINE"
);
}
);
width = 922;
}
);
leftKerningGroup = z;
rightKerningGroup = z;
unicode = 007A;
},
{
color = 9;
glyphname = ordfeminine;
lastChange = "2022-02-16 15:38:40 +0000";
layers = (
{
anchors = (
{
name = bottom;
position = "{368, 722}";
},
{
name = ogonek;
position = "{646, 722}";
},
{
name = top;
position = "{368, 1354}";
}
);
guideLines = (
{
position = "{211, 450}";
}
);
layerId = "38FA562F-EF2C-4367-983C-F15B205514DC";
paths = (
{
closed = 1;
nodes = (
"412 702 OFFCURVE",
"500 734 OFFCURVE",
"548 802 CURVE",
"548 722 LINE",
"646 722 LINE",
"646 1138 LINE SMOOTH",
"646 1296 OFFCURVE",
"550 1380 OFFCURVE",
"370 1380 CURVE SMOOTH",
"282 1380 OFFCURVE",
"186 1356 OFFCURVE",
"102 1286 CURVE",
"112 1350 LINE",
"162 1226 LINE",
"220 1268 OFFCURVE",
"286 1290 OFFCURVE",
"360 1290 CURVE SMOOTH",
"480 1290 OFFCURVE",
"544 1232 OFFCURVE",
"544 1138 CURVE SMOOTH",
"544 954 LINE SMOOTH",
"544 860 OFFCURVE",
"456 790 OFFCURVE",
"340 790 CURVE SMOOTH",
"248 790 OFFCURVE",
"190 832 OFFCURVE",
"190 904 CURVE SMOOTH",
"190 992 OFFCURVE",
"300 1050 OFFCURVE",
"580 1014 CURVE",
"576 1094 LINE",
"224 1130 OFFCURVE",
"92 1034 OFFCURVE",
"92 902 CURVE SMOOTH",
"92 780 OFFCURVE",
"182 702 OFFCURVE",
"318 702 CURVE SMOOTH"
);
}
);
userData = {
RMXScaler = {
adjustSpace = 10;
height = 65;
verticalShift = 361;
weight = -5;
width = 67;
};
};
width = 770;
}
);
leftKerningGroup = asterisk;
rightKerningGroup = asterisk;
unicode = 00AA;
userData = {
RMXScaler = {
source = a;
};
};
},
{
color = 9;
glyphname = ordmasculine;
lastChange = "2022-02-16 15:38:40 +0000";
layers = (
{
anchors = (
{
name = bottom;
position = "{416, 722}";
},
{
name = horn;
position = "{678, 1354}";
},
{
name = ogonek;
position = "{536, 722}";
},
{
name = top;
position = "{416, 1354}";
}
);
layerId = "38FA562F-EF2C-4367-983C-F15B205514DC";
paths = (
{
closed = 1;
nodes = (
"616 702 OFFCURVE",
"764 856 OFFCURVE",
"764 1038 CURVE SMOOTH",
"764 1220 OFFCURVE",
"616 1374 OFFCURVE",
"416 1374 CURVE SMOOTH",
"218 1374 OFFCURVE",
"70 1220 OFFCURVE",
"70 1038 CURVE SMOOTH",
"70 856 OFFCURVE",
"218 702 OFFCURVE",
"416 702 CURVE SMOOTH"
);
},
{
closed = 1;
nodes = (
"276 796 OFFCURVE",
"176 890 OFFCURVE",
"176 1038 CURVE SMOOTH",
"176 1186 OFFCURVE",
"276 1280 OFFCURVE",
"416 1280 CURVE SMOOTH",
"556 1280 OFFCURVE",
"658 1186 OFFCURVE",
"658 1038 CURVE SMOOTH",
"658 890 OFFCURVE",
"556 796 OFFCURVE",
"416 796 CURVE SMOOTH"
);
}
);
userData = {
RMXScaler = {
adjustSpace = 10;
height = 65;
verticalShift = 361;
weight = -5;
width = 67;
};
};
width = 834;
}
);
leftKerningGroup = asterisk;
rightKerningGroup = asterisk;
unicode = 00BA;
userData = {
RMXScaler = {
source = o;
};
};
},
{
color = 1;
glyphname = zero;
lastChange = "2022-02-16 15:38:45 +0000";
layers = (
{
layerId = "38FA562F-EF2C-4367-983C-F15B205514DC";
paths = (
{
closed = 1;
nodes = (
"1010 -30 OFFCURVE",
"1228 300 OFFCURVE",
"1228 700 CURVE SMOOTH",
"1228 1102 OFFCURVE",
"1010 1430 OFFCURVE",
"674 1430 CURVE SMOOTH",
"334 1430 OFFCURVE",
"120 1102 OFFCURVE",
"120 700 CURVE SMOOTH",
"120 300 OFFCURVE",
"334 -30 OFFCURVE",
"674 -30 CURVE SMOOTH"
);
},
{
closed = 1;
nodes = (
"418 82 OFFCURVE",
"244 324 OFFCURVE",
"244 700 CURVE SMOOTH",
"244 1076 OFFCURVE",
"418 1318 OFFCURVE",
"674 1318 CURVE SMOOTH",
"930 1318 OFFCURVE",
"1104 1076 OFFCURVE",
"1104 700 CURVE SMOOTH",
"1104 324 OFFCURVE",
"930 82 OFFCURVE",
"674 82 CURVE SMOOTH"
);
}
);
width = 1348;
}
);
leftKerningGroup = zero;
rightKerningGroup = zero;
rightMetricsKey = "=|";
unicode = 0030;
},
{
color = 1;
glyphname = one;
lastChange = "2022-02-16 15:38:45 +0000";
layers = (
{
layerId = "38FA562F-EF2C-4367-983C-F15B205514DC";
paths = (
{
closed = 1;
nodes = (
"574 0 LINE",
"574 1430 LINE",
"564 1430 LINE",
"24 1222 LINE",
"54 1134 LINE",
"462 1288 LINE",
"462 0 LINE"
);
}
);
width = 814;
}
);
leftKerningGroup = one;
rightKerningGroup = one;
rightMetricsKey = "=H+40";
unicode = 0031;
},
{
color = 1;
glyphname = two;
lastChange = "2022-02-16 15:38:45 +0000";
layers = (
{
layerId = "38FA562F-EF2C-4367-983C-F15B205514DC";
paths = (
{
closed = 1;
nodes = (
"1038 0 LINE",
"1038 108 LINE",
"290 108 LINE",
"582 376 LINE SMOOTH",
"920 688 OFFCURVE",
"1004 852 OFFCURVE",
"1004 1028 CURVE SMOOTH",
"1004 1276 OFFCURVE",
"816 1430 OFFCURVE",
"548 1430 CURVE SMOOTH",
"394 1430 OFFCURVE",
"262 1386 OFFCURVE",
"162 1298 CURVE",
"212 1212 LINE",
"284 1284 OFFCURVE",
"408 1322 OFFCURVE",
"532 1322 CURVE SMOOTH",
"754 1322 OFFCURVE",
"890 1208 OFFCURVE",
"890 1026 CURVE SMOOTH",
"890 838 OFFCURVE",
"748 670 OFFCURVE",
"448 390 CURVE SMOOTH",
"140 102 LINE",
"140 0 LINE"
);
}
);
width = 1168;
}
);
leftKerningGroup = two;
rightKerningGroup = two;
unicode = 0032;
},
{
color = 1;
glyphname = three;
lastChange = "2022-02-16 15:38:45 +0000";
layers = (
{
layerId = "38FA562F-EF2C-4367-983C-F15B205514DC";
paths = (
{
closed = 1;
nodes = (
"812 -30 OFFCURVE",
"1018 142 OFFCURVE",
"1018 408 CURVE SMOOTH",
"1018 704 OFFCURVE",
"758 838 OFFCURVE",
"456 818 CURVE",
"954 1300 LINE",
"954 1400 LINE",
"104 1400 LINE",
"104 1292 LINE",
"794 1292 LINE",
"284 792 LINE",
"326 706 LINE",
"384 718 OFFCURVE",
"440 724 OFFCURVE",
"494 724 CURVE SMOOTH",
"738 724 OFFCURVE",
"894 606 OFFCURVE",
"894 408 CURVE SMOOTH",
"894 208 OFFCURVE",
"748 82 OFFCURVE",
"516 82 CURVE SMOOTH",
"388 82 OFFCURVE",
"242 128 OFFCURVE",
"148 200 CURVE",
"98 94 LINE",
"194 20 OFFCURVE",
"360 -30 OFFCURVE",
"522 -30 CURVE SMOOTH"
);
}
);
width = 1156;
}
);
leftKerningGroup = three;
rightKerningGroup = three;
unicode = 0033;
},
{
color = 1;
glyphname = four;
lastChange = "2022-02-16 15:38:45 +0000";
layers = (
{
layerId = "38FA562F-EF2C-4367-983C-F15B205514DC";
paths = (
{
closed = 1;
nodes = (
"884 0 LINE",
"884 312 LINE",
"1126 312 LINE",
"1126 420 LINE",
"884 420 LINE",
"884 768 LINE",
"772 768 LINE",
"772 420 LINE",
"174 420 LINE",
"734 1400 LINE",
"604 1400 LINE",
"44 412 LINE",
"44 312 LINE",
"772 312 LINE",
"772 0 LINE"
);
}
);
width = 1200;
}
);
leftKerningGroup = four;
rightKerningGroup = four;
unicode = 0034;
},
{
color = 1;
glyphname = five;
lastChange = "2022-02-16 15:38:45 +0000";
layers = (
{
layerId = "38FA562F-EF2C-4367-983C-F15B205514DC";
paths = (
{
closed = 1;
nodes = (
"820 -30 OFFCURVE",
"1030 150 OFFCURVE",
"1030 428 CURVE SMOOTH",
"1030 698 OFFCURVE",
"820 858 OFFCURVE",
"558 858 CURVE SMOOTH",
"474 858 OFFCURVE",
"384 840 OFFCURVE",
"294 806 CURVE",
"348 1292 LINE",
"994 1292 LINE",
"994 1400 LINE",
"258 1396 LINE",
"186 738 LINE",
"236 690 LINE",
"334 732 OFFCURVE",
"432 754 OFFCURVE",
"520 754 CURVE SMOOTH",
"738 754 OFFCURVE",
"906 632 OFFCURVE",
"906 428 CURVE SMOOTH",
"906 216 OFFCURVE",
"756 82 OFFCURVE",
"516 82 CURVE SMOOTH",
"388 82 OFFCURVE",
"242 128 OFFCURVE",
"148 200 CURVE",
"98 95 LINE",
"195 20 OFFCURVE",
"360 -30 OFFCURVE",
"522 -30 CURVE SMOOTH"
);
}
);
width = 1156;
}
);
leftKerningGroup = five;
rightKerningGroup = five;
unicode = 0035;
},
{
color = 1;
glyphname = six;
lastChange = "2022-02-16 15:38:45 +0000";
layers = (
{
guideLines = (
{
position = "{154, 409}";
}
);
layerId = "38FA562F-EF2C-4367-983C-F15B205514DC";
paths = (
{
closed = 1;
nodes = (
"952 -30 OFFCURVE",
"1164 178 OFFCURVE",
"1164 446 CURVE SMOOTH",
"1164 709 OFFCURVE",
"952 892 OFFCURVE",
"684 892 CURVE SMOOTH",
"506 892 OFFCURVE",
"352 801 OFFCURVE",
"268 660 CURVE",
"312 978 OFFCURVE",
"550 1284 OFFCURVE",
"1034 1330 CURVE",
"990 1430 LINE",
"496 1359 OFFCURVE",
"136 1017 OFFCURVE",
"136 546 CURVE SMOOTH",
"136 174 OFFCURVE",
"356 -30 OFFCURVE",
"660 -30 CURVE SMOOTH"
);
},
{
closed = 1;
nodes = (
"438 84 OFFCURVE",
"280 228 OFFCURVE",
"280 430 CURVE SMOOTH",
"280 628 OFFCURVE",
"446 778 OFFCURVE",
"660 778 CURVE SMOOTH",
"874 778 OFFCURVE",
"1040 628 OFFCURVE",
"1040 430 CURVE SMOOTH",
"1040 228 OFFCURVE",
"882 84 OFFCURVE",
"660 84 CURVE SMOOTH"
);
}
);
width = 1268;
}
);
leftKerningGroup = zero;
rightKerningGroup = six;
unicode = 0036;
},
{
color = 1;
glyphname = seven;
lastChange = "2022-02-16 15:38:45 +0000";
layers = (
{
layerId = "38FA562F-EF2C-4367-983C-F15B205514DC";
paths = (
{
closed = 1;
nodes = (
"330 0 LINE",
"968 1300 LINE",
"968 1400 LINE",
"114 1400 LINE",
"114 1292 LINE",
"838 1292 LINE",
"200 0 LINE"
);
}
);
width = 1076;
}
);
leftKerningGroup = seven;
rightKerningGroup = seven;
unicode = 0037;
},
{
color = 1;
glyphname = eight;
lastChange = "2022-02-16 15:38:45 +0000";
layers = (
{
layerId = "38FA562F-EF2C-4367-983C-F15B205514DC";
paths = (
{
closed = 1;
nodes = (
"908 -30 OFFCURVE",
"1094 156 OFFCURVE",
"1094 390 CURVE SMOOTH",
"1094 560 OFFCURVE",
"992 672 OFFCURVE",
"832 736 CURVE",
"952 780 OFFCURVE",
"1052 890 OFFCURVE",
"1052 1050 CURVE SMOOTH",
"1052 1268 OFFCURVE",
"870 1430 OFFCURVE",
"612 1430 CURVE SMOOTH",
"358 1430 OFFCURVE",
"176 1270 OFFCURVE",
"176 1050 CURVE SMOOTH",
"176 890 OFFCURVE",
"276 780 OFFCURVE",
"396 736 CURVE",
"226 672 OFFCURVE",
"130 560 OFFCURVE",
"130 390 CURVE SMOOTH",
"130 156 OFFCURVE",
"320 -30 OFFCURVE",
"612 -30 CURVE SMOOTH"
);
},
{
closed = 1;
nodes = (
"416 82 OFFCURVE",
"254 184 OFFCURVE",
"254 380 CURVE SMOOTH",
"254 574 OFFCURVE",
"404 680 OFFCURVE",
"612 680 CURVE SMOOTH",
"814 680 OFFCURVE",
"970 574 OFFCURVE",
"970 380 CURVE SMOOTH",
"970 184 OFFCURVE",
"804 82 OFFCURVE",
"612 82 CURVE SMOOTH"
);
},
{
closed = 1;
nodes = (
"428 792 OFFCURVE",
"296 888 OFFCURVE",
"296 1044 CURVE SMOOTH",
"296 1200 OFFCURVE",
"424 1318 OFFCURVE",
"614 1318 CURVE SMOOTH",
"804 1318 OFFCURVE",
"932 1200 OFFCURVE",
"932 1044 CURVE SMOOTH",
"932 888 OFFCURVE",
"800 792 OFFCURVE",
"614 792 CURVE SMOOTH"
);
}
);
width = 1224;
}
);
leftKerningGroup = eight;
leftMetricsKey = "=|B";
rightKerningGroup = eight;
rightMetricsKey = B;
unicode = 0038;
},
{
color = 1;
glyphname = nine;
lastChange = "2022-02-16 15:38:45 +0000";
layers = (
{
layerId = "38FA562F-EF2C-4367-983C-F15B205514DC";
paths = (
{
closed = 1;
nodes = (
"752 42 OFFCURVE",
"1108 389 OFFCURVE",
"1108 866 CURVE SMOOTH",
"1108 1231 OFFCURVE",
"893 1430 OFFCURVE",
"596 1430 CURVE SMOOTH",
"311 1430 OFFCURVE",
"104 1233 OFFCURVE",
"104 978 CURVE SMOOTH",
"104 715 OFFCURVE",
"311 532 OFFCURVE",
"572 532 CURVE SMOOTH",
"745 532 OFFCURVE",
"894 623 OFFCURVE",
"976 764 CURVE",
"933 435 OFFCURVE",
"698 117 OFFCURVE",
"220 70 CURVE",
"264 -30 LINE"
);
},
{
closed = 1;
nodes = (
"389 646 OFFCURVE",
"228 791 OFFCURVE",
"228 982 CURVE SMOOTH",
"228 1177 OFFCURVE",
"381 1316 OFFCURVE",
"596 1316 CURVE SMOOTH",
"811 1316 OFFCURVE",
"964 1177 OFFCURVE",
"964 982 CURVE SMOOTH",
"964 791 OFFCURVE",
"803 646 OFFCURVE",
"596 646 CURVE SMOOTH"
);
}
);
width = 1244;
}
);
leftKerningGroup = nine;
leftMetricsKey = "=|six";
rightKerningGroup = zero;
rightMetricsKey = "=|six";
unicode = 0039;
},
{
color = 9;
glyphname = fraction;
lastChange = "2022-02-16 15:38:40 +0000";
layers = (
{
layerId = "38FA562F-EF2C-4367-983C-F15B205514DC";
paths = (
{
closed = 1;
nodes = (
"630 1390 LINE",
"554 1430 LINE",
"-236 16 LINE",
"-160 -30 LINE"
);
}
);
width = 394;
}
);
leftKerningGroup = fraction;
rightKerningGroup = fraction;
rightMetricsKey = "=|";
unicode = 2044;
},
{
color = 9;
glyphname = onehalf;
lastChange = "2022-02-16 15:38:40 +0000";
layers = (
{
layerId = "38FA562F-EF2C-4367-983C-F15B205514DC";
paths = (
{
closed = 1;
nodes = (
"436 490 LINE",
"436 1420 LINE",
"428 1420 LINE",
"48 1280 LINE",
"76 1200 LINE",
"338 1294 LINE",
"338 490 LINE"
);
},
{
closed = 1;
nodes = (
"1246 1390 LINE",
"1170 1430 LINE",
"380 16 LINE",
"456 -30 LINE"
);
},
{
closed = 1;
nodes = (
"1732 0 LINE",
"1732 92 LINE",
"1254 92 LINE",
"1430 248 LINE SMOOTH",
"1628 424 OFFCURVE",
"1710 534 OFFCURVE",
"1710 664 CURVE SMOOTH",
"1710 826 OFFCURVE",
"1582 930 OFFCURVE",
"1398 930 CURVE SMOOTH",
"1293 930 OFFCURVE",
"1199 898 OFFCURVE",
"1128 837 CURVE",
"1170 760 LINE",
"1220 810 OFFCURVE",
"1302 836 OFFCURVE",
"1384 836 CURVE SMOOTH",
"1524 836 OFFCURVE",
"1610 768 OFFCURVE",
"1610 658 CURVE SMOOTH",
"1610 544 OFFCURVE",
"1522 444 OFFCURVE",
"1324 266 CURVE SMOOTH",
"1118 82 LINE",
"1118 0 LINE"
);
}
);
width = 1834;
}
);
leftKerningGroup = one.numr;
rightKerningGroup = two.dnom;
unicode = 00BD;
},
{
color = 9;
glyphname = onequarter;
lastChange = "2022-02-16 15:38:40 +0000";
layers = (
{
layerId = "38FA562F-EF2C-4367-983C-F15B205514DC";
paths = (
{
closed = 1;
nodes = (
"436 490 LINE",
"436 1420 LINE",
"428 1420 LINE",
"48 1280 LINE",
"76 1200 LINE",
"338 1294 LINE",
"338 490 LINE"
);
},
{
closed = 1;
nodes = (
"1246 1390 LINE",
"1170 1430 LINE",
"380 16 LINE",
"456 -30 LINE"
);
},
{
closed = 1;
nodes = (
"1574 0 LINE",
"1574 196 LINE",
"1728 196 LINE",
"1728 288 LINE",
"1574 288 LINE",
"1574 504 LINE",
"1478 504 LINE",
"1478 288 LINE",
"1112 288 LINE",
"1470 910 LINE",
"1358 910 LINE",
"998 280 LINE",
"998 196 LINE",
"1478 196 LINE",
"1478 0 LINE"
);
}
);
width = 1794;
}
);
leftKerningGroup = one.numr;
rightKerningGroup = four.dnom;
unicode = 00BC;
},
{
color = 9;
glyphname = threequarters;
lastChange = "2022-02-16 15:38:40 +0000";
layers = (
{
layerId = "38FA562F-EF2C-4367-983C-F15B205514DC";
paths = (
{
closed = 1;
nodes = (
"568 470 OFFCURVE",
"708 584 OFFCURVE",
"708 756 CURVE SMOOTH",
"708 942 OFFCURVE",
"542 1032 OFFCURVE",
"352 1022 CURVE",
"666 1316 LINE",
"666 1400 LINE",
"88 1400 LINE",
"88 1308 LINE",
"532 1308 LINE",
"208 1008 LINE",
"242 936 LINE",
"280 944 OFFCURVE",
"320 948 OFFCURVE",
"354 948 CURVE SMOOTH",
"504 948 OFFCURVE",
"602 878 OFFCURVE",
"602 760 CURVE SMOOTH",
"602 642 OFFCURVE",
"510 566 OFFCURVE",
"366 566 CURVE SMOOTH",
"280 566 OFFCURVE",
"184 596 OFFCURVE",
"122 646 CURVE",
"83 558 LINE",
"142 508 OFFCURVE",
"255 470 OFFCURVE",
"372 470 CURVE SMOOTH"
);
},
{
closed = 1;
nodes = (
"1446 1390 LINE",
"1370 1430 LINE",
"580 16 LINE",
"656 -30 LINE"
);
},
{
closed = 1;
nodes = (
"1774 0 LINE",
"1774 196 LINE",
"1928 196 LINE",
"1928 288 LINE",
"1774 288 LINE",
"1774 504 LINE",
"1678 504 LINE",
"1678 288 LINE",
"1312 288 LINE",
"1670 910 LINE",
"1558 910 LINE",
"1198 280 LINE",
"1198 196 LINE",
"1678 196 LINE",
"1678 0 LINE"
);
}
);
width = 1994;
}
);
leftKerningGroup = three.numr;
rightKerningGroup = four.dnom;
unicode = 00BE;
},
{
color = 9;
glyphname = onesuperior;
lastChange = "2022-02-16 15:38:40 +0000";
layers = (
{
layerId = "38FA562F-EF2C-4367-983C-F15B205514DC";
paths = (
{
closed = 1;
nodes = (
"436 722 LINE",
"436 1652 LINE",
"428 1652 LINE",
"48 1512 LINE",
"76 1432 LINE",
"338 1526 LINE",
"338 722 LINE"
);
}
);
userData = {
RMXScaler = {
adjustSpace = 10;
height = 65;
verticalShift = 361;
weight = -5;
width = 67;
};
};
width = 616;
}
);
leftKerningGroup = asterisk;
rightKerningGroup = asterisk;
unicode = 00B9;
userData = {
RMXScaler = {
source = one;
};
};
},
{
color = 9;
glyphname = twosuperior;
lastChange = "2022-02-16 15:38:40 +0000";
layers = (
{
guideLines = (
{
position = "{211, 450}";
}
);
layerId = "38FA562F-EF2C-4367-983C-F15B205514DC";
paths = (
{
closed = 1;
nodes = (
"722 722 LINE",
"722 814 LINE",
"244 814 LINE",
"420 970 LINE SMOOTH",
"618 1146 OFFCURVE",
"700 1256 OFFCURVE",
"700 1386 CURVE SMOOTH",
"700 1548 OFFCURVE",
"572 1652 OFFCURVE",
"388 1652 CURVE SMOOTH",
"282 1652 OFFCURVE",
"188 1620 OFFCURVE",
"118 1559 CURVE",
"160 1482 LINE",
"210 1532 OFFCURVE",
"292 1558 OFFCURVE",
"374 1558 CURVE SMOOTH",
"514 1558 OFFCURVE",
"600 1490 OFFCURVE",
"600 1380 CURVE SMOOTH",
"600 1266 OFFCURVE",
"512 1166 OFFCURVE",
"314 988 CURVE SMOOTH",
"108 804 LINE",
"108 722 LINE"
);
}
);
userData = {
RMXScaler = {
adjustSpace = 10;
height = 65;
verticalShift = 361;
weight = -5;
width = 67;
};
};
width = 824;
}
);
leftKerningGroup = asterisk;
rightKerningGroup = asterisk;
unicode = 00B2;
userData = {
RMXScaler = {
source = two;
};
};
},
{
color = 9;
glyphname = threesuperior;
lastChange = "2022-02-16 15:38:40 +0000";
layers = (
{
layerId = "38FA562F-EF2C-4367-983C-F15B205514DC";
paths = (
{
closed = 1;
nodes = (
"568 702 OFFCURVE",
"708 816 OFFCURVE",
"708 988 CURVE SMOOTH",
"708 1174 OFFCURVE",
"542 1264 OFFCURVE",
"352 1254 CURVE",
"666 1548 LINE",
"666 1632 LINE",
"88 1632 LINE",
"88 1540 LINE",
"532 1540 LINE",
"208 1240 LINE",
"242 1168 LINE",
"280 1176 OFFCURVE",
"320 1180 OFFCURVE",
"354 1180 CURVE SMOOTH",
"504 1180 OFFCURVE",
"602 1110 OFFCURVE",
"602 992 CURVE SMOOTH",
"602 874 OFFCURVE",
"510 798 OFFCURVE",
"366 798 CURVE SMOOTH",
"280 798 OFFCURVE",
"184 828 OFFCURVE",
"122 878 CURVE",
"83 790 LINE",
"142 740 OFFCURVE",
"255 702 OFFCURVE",
"372 702 CURVE SMOOTH"
);
}
);
userData = {
RMXScaler = {
adjustSpace = 10;
height = 65;
verticalShift = 361;
weight = -5;
width = 67;
};
};
width = 816;
}
);
leftKerningGroup = asterisk;
rightKerningGroup = asterisk;
unicode = 00B3;
userData = {
RMXScaler = {
source = three;
};
};
},
{
color = 9;
glyphname = foursuperior;
lastChange = "2022-02-16 15:38:40 +0000";
layers = (
{
layerId = "38FA562F-EF2C-4367-983C-F15B205514DC";
paths = (
{
closed = 1;
nodes = (
"624 722 LINE",
"624 918 LINE",
"778 918 LINE",
"778 1010 LINE",
"624 1010 LINE",
"624 1226 LINE",
"528 1226 LINE",
"528 1010 LINE",
"162 1010 LINE",
"520 1632 LINE",
"408 1632 LINE",
"48 1002 LINE",
"48 918 LINE",
"528 918 LINE",
"528 722 LINE"
);
}
);
userData = {
RMXScaler = {
adjustSpace = 10;
height = 65;
verticalShift = 361;
weight = -5;
width = 67;
};
};
width = 844;
}
);
leftKerningGroup = asterisk;
rightKerningGroup = asterisk;
unicode = 2074;
userData = {
RMXScaler = {
source = four;
};
};
},
{
glyphname = .notdef;
lastChange = "2022-02-16 14:31:41 +0000";
layers = (
{
layerId = "38FA562F-EF2C-4367-983C-F15B205514DC";
paths = (
{
closed = 1;
nodes = (
"1062 0 LINE",
"1062 1400 LINE",
"170 1400 LINE",
"170 0 LINE"
);
},
{
closed = 1;
nodes = (
"282 1296 LINE",
"950 1296 LINE",
"950 106 LINE",
"282 106 LINE"
);
}
);
width = 1232;
}
);
leftMetricsKey = l;
rightMetricsKey = l;
},
{
color = 1;
glyphname = period;
lastChange = "2022-02-16 15:38:45 +0000";
layers = (
{
layerId = "38FA562F-EF2C-4367-983C-F15B205514DC";
paths = (
{
closed = 1;
nodes = (
"312 -30 OFFCURVE",
"360 14 OFFCURVE",
"360 74 CURVE SMOOTH",
"360 134 OFFCURVE",
"312 178 OFFCURVE",
"250 178 CURVE SMOOTH",
"188 178 OFFCURVE",
"140 134 OFFCURVE",
"140 74 CURVE SMOOTH",
"140 14 OFFCURVE",
"188 -30 OFFCURVE",
"250 -30 CURVE SMOOTH"
);
}
);
width = 500;
}
);
leftKerningGroup = period;
rightKerningGroup = period;
rightMetricsKey = "=|";
unicode = 002E;
},
{
color = 1;
glyphname = comma;
lastChange = "2022-02-16 15:38:45 +0000";
layers = (
{
layerId = "38FA562F-EF2C-4367-983C-F15B205514DC";
paths = (
{
closed = 1;
nodes = (
"282 -162 OFFCURVE",
"358 -48 OFFCURVE",
"358 47 CURVE SMOOTH",
"358 131 OFFCURVE",
"314 178 OFFCURVE",
"246 178 CURVE SMOOTH",
"186 178 OFFCURVE",
"142 136 OFFCURVE",
"142 80 CURVE SMOOTH",
"142 22 OFFCURVE",
"190 -18 OFFCURVE",
"252 -14 CURVE",
"239 -67 OFFCURVE",
"169 -131 OFFCURVE",
"86 -177 CURVE",
"144 -246 LINE"
);
}
);
width = 500;
}
);
leftKerningGroup = comma;
widthMetricsKey = period;
rightKerningGroup = comma;
unicode = 002C;
},
{
color = 1;
glyphname = colon;
lastChange = "2022-02-16 15:38:45 +0000";
layers = (
{
layerId = "38FA562F-EF2C-4367-983C-F15B205514DC";
paths = (
{
closed = 1;
nodes = (
"342 792 OFFCURVE",
"390 836 OFFCURVE",
"390 896 CURVE SMOOTH",
"390 956 OFFCURVE",
"342 1000 OFFCURVE",
"280 1000 CURVE SMOOTH",
"218 1000 OFFCURVE",
"170 956 OFFCURVE",
"170 896 CURVE SMOOTH",
"170 836 OFFCURVE",
"218 792 OFFCURVE",
"280 792 CURVE SMOOTH"
);
},
{
closed = 1;
nodes = (
"342 -30 OFFCURVE",
"390 14 OFFCURVE",
"390 74 CURVE SMOOTH",
"390 134 OFFCURVE",
"342 178 OFFCURVE",
"280 178 CURVE SMOOTH",
"218 178 OFFCURVE",
"170 134 OFFCURVE",
"170 74 CURVE SMOOTH",
"170 14 OFFCURVE",
"218 -30 OFFCURVE",
"280 -30 CURVE SMOOTH"
);
}
);
width = 560;
}
);
leftKerningGroup = colon;
leftMetricsKey = "=period+30";
rightKerningGroup = colon;
rightMetricsKey = "=|";
unicode = 003A;
},
{
color = 1;
glyphname = semicolon;
lastChange = "2022-02-16 15:38:45 +0000";
layers = (
{
layerId = "38FA562F-EF2C-4367-983C-F15B205514DC";
paths = (
{
closed = 1;
nodes = (
"342 792 OFFCURVE",
"390 836 OFFCURVE",
"390 896 CURVE SMOOTH",
"390 956 OFFCURVE",
"342 1000 OFFCURVE",
"280 1000 CURVE SMOOTH",
"218 1000 OFFCURVE",
"170 956 OFFCURVE",
"170 896 CURVE SMOOTH",
"170 836 OFFCURVE",
"218 792 OFFCURVE",
"280 792 CURVE SMOOTH"
);
},
{
closed = 1;
nodes = (
"312 -162 OFFCURVE",
"388 -48 OFFCURVE",
"388 47 CURVE SMOOTH",
"388 131 OFFCURVE",
"344 178 OFFCURVE",
"276 178 CURVE SMOOTH",
"216 178 OFFCURVE",
"172 136 OFFCURVE",
"172 80 CURVE SMOOTH",
"172 22 OFFCURVE",
"220 -18 OFFCURVE",
"282 -14 CURVE",
"269 -67 OFFCURVE",
"199 -131 OFFCURVE",
"116 -177 CURVE",
"174 -246 LINE"
);
}
);
width = 560;
}
);
leftKerningGroup = semicolon;
widthMetricsKey = colon;
rightKerningGroup = colon;
unicode = 003B;
},
{
color = 1;
glyphname = ellipsis;
lastChange = "2022-02-16 15:38:45 +0000";
layers = (
{
layerId = "38FA562F-EF2C-4367-983C-F15B205514DC";
paths = (
{
closed = 1;
nodes = (
"1062 -30 OFFCURVE",
"1110 14 OFFCURVE",
"1110 74 CURVE SMOOTH",
"1110 134 OFFCURVE",
"1062 178 OFFCURVE",
"1000 178 CURVE SMOOTH",
"938 178 OFFCURVE",
"890 134 OFFCURVE",
"890 74 CURVE SMOOTH",
"890 14 OFFCURVE",
"938 -30 OFFCURVE",
"1000 -30 CURVE SMOOTH"
);
},
{
closed = 1;
nodes = (
"1729 -30 OFFCURVE",
"1777 14 OFFCURVE",
"1777 74 CURVE SMOOTH",
"1777 134 OFFCURVE",
"1729 178 OFFCURVE",
"1667 178 CURVE SMOOTH",
"1605 178 OFFCURVE",
"1557 134 OFFCURVE",
"1557 74 CURVE SMOOTH",
"1557 14 OFFCURVE",
"1605 -30 OFFCURVE",
"1667 -30 CURVE SMOOTH"
);
},
{
closed = 1;
nodes = (
"395 -30 OFFCURVE",
"443 14 OFFCURVE",
"443 74 CURVE SMOOTH",
"443 134 OFFCURVE",
"395 178 OFFCURVE",
"333 178 CURVE SMOOTH",
"271 178 OFFCURVE",
"223 134 OFFCURVE",
"223 74 CURVE SMOOTH",
"223 14 OFFCURVE",
"271 -30 OFFCURVE",
"333 -30 CURVE SMOOTH"
);
}
);
width = 2000;
}
);
leftKerningGroup = period;
rightKerningGroup = period;
unicode = 2026;
},
{
color = 1;
glyphname = exclam;
lastChange = "2022-02-16 15:38:45 +0000";
layers = (
{
layerId = "38FA562F-EF2C-4367-983C-F15B205514DC";
paths = (
{
closed = 1;
nodes = (
"350 440 LINE",
"370 1400 LINE",
"230 1400 LINE",
"250 440 LINE"
);
},
{
closed = 1;
nodes = (
"362 -30 OFFCURVE",
"410 14 OFFCURVE",
"410 74 CURVE SMOOTH",
"410 134 OFFCURVE",
"362 178 OFFCURVE",
"300 178 CURVE SMOOTH",
"238 178 OFFCURVE",
"190 134 OFFCURVE",
"190 74 CURVE SMOOTH",
"190 14 OFFCURVE",
"238 -30 OFFCURVE",
"300 -30 CURVE SMOOTH"
);
}
);
width = 600;
}
);
leftKerningGroup = h;
rightKerningGroup = d;
unicode = 0021;
},
{
color = 9;
glyphname = exclamdown;
lastChange = "2022-02-16 15:38:40 +0000";
layers = (
{
layerId = "38FA562F-EF2C-4367-983C-F15B205514DC";
paths = (
{
closed = 1;
nodes = (
"380 -430 LINE",
"360 530 LINE",
"260 530 LINE",
"240 -430 LINE"
);
},
{
closed = 1;
nodes = (
"372 792 OFFCURVE",
"420 836 OFFCURVE",
"420 896 CURVE SMOOTH",
"420 956 OFFCURVE",
"372 1000 OFFCURVE",
"310 1000 CURVE SMOOTH",
"248 1000 OFFCURVE",
"200 956 OFFCURVE",
"200 896 CURVE SMOOTH",
"200 836 OFFCURVE",
"248 792 OFFCURVE",
"310 792 CURVE SMOOTH"
);
}
);
width = 640;
}
);
leftKerningGroup = colon;
rightKerningGroup = colon;
unicode = 00A1;
},
{
color = 1;
glyphname = question;
lastChange = "2022-02-16 15:38:45 +0000";
layers = (
{
layerId = "38FA562F-EF2C-4367-983C-F15B205514DC";
paths = (
{
closed = 1;
nodes = (
"472 378 LINE",
"432 590 OFFCURVE",
"462 654 OFFCURVE",
"604 744 CURVE SMOOTH",
"798 868 OFFCURVE",
"846 974 OFFCURVE",
"846 1090 CURVE SMOOTH",
"846 1308 OFFCURVE",
"672 1430 OFFCURVE",
"424 1430 CURVE SMOOTH",
"288 1430 OFFCURVE",
"178 1394 OFFCURVE",
"90 1322 CURVE",
"138 1224 LINE",
"202 1282 OFFCURVE",
"300 1318 OFFCURVE",
"422 1318 CURVE SMOOTH",
"610 1318 OFFCURVE",
"726 1240 OFFCURVE",
"726 1082 CURVE SMOOTH",
"726 992 OFFCURVE",
"688 922 OFFCURVE",
"524 820 CURVE SMOOTH",
"332 700 OFFCURVE",
"306 618 OFFCURVE",
"352 378 CURVE"
);
},
{
closed = 1;
nodes = (
"488 -30 OFFCURVE",
"536 14 OFFCURVE",
"536 74 CURVE SMOOTH",
"536 134 OFFCURVE",
"488 178 OFFCURVE",
"426 178 CURVE SMOOTH",
"364 178 OFFCURVE",
"316 134 OFFCURVE",
"316 74 CURVE SMOOTH",
"316 14 OFFCURVE",
"364 -30 OFFCURVE",
"426 -30 CURVE SMOOTH"
);
}
);
width = 950;
}
);
leftKerningGroup = question;
rightKerningGroup = question;
unicode = 003F;
},
{
color = 9;
glyphname = questiondown;
lastChange = "2022-02-16 15:38:40 +0000";
layers = (
{
layerId = "38FA562F-EF2C-4367-983C-F15B205514DC";
paths = (
{
closed = 1;
nodes = (
"658 -460 OFFCURVE",
"768 -424 OFFCURVE",
"856 -352 CURVE",
"808 -254 LINE",
"744 -312 OFFCURVE",
"646 -348 OFFCURVE",
"524 -348 CURVE SMOOTH",
"336 -348 OFFCURVE",
"220 -270 OFFCURVE",
"220 -112 CURVE SMOOTH",
"220 -22 OFFCURVE",
"258 46 OFFCURVE",
"422 150 CURVE SMOOTH",
"612 270 OFFCURVE",
"640 352 OFFCURVE",
"594 592 CURVE",
"474 592 LINE",
"514 380 OFFCURVE",
"484 316 OFFCURVE",
"342 226 CURVE SMOOTH",
"148 102 OFFCURVE",
"100 -4 OFFCURVE",
"100 -120 CURVE SMOOTH",
"100 -338 OFFCURVE",
"274 -460 OFFCURVE",
"522 -460 CURVE SMOOTH"
);
},
{
closed = 1;
nodes = (
"582 792 OFFCURVE",
"630 836 OFFCURVE",
"630 896 CURVE SMOOTH",
"630 956 OFFCURVE",
"582 1000 OFFCURVE",
"520 1000 CURVE SMOOTH",
"458 1000 OFFCURVE",
"410 956 OFFCURVE",
"410 896 CURVE SMOOTH",
"410 836 OFFCURVE",
"458 792 OFFCURVE",
"520 792 CURVE SMOOTH"
);
}
);
width = 932;
}
);
leftKerningGroup = questiondown;
rightKerningGroup = questiondown;
unicode = 00BF;
},
{
color = 1;
glyphname = periodcentered;
lastChange = "2022-02-16 15:38:45 +0000";
layers = (
{
layerId = "38FA562F-EF2C-4367-983C-F15B205514DC";
paths = (
{
closed = 1;
nodes = (
"312 550 OFFCURVE",
"360 594 OFFCURVE",
"360 654 CURVE SMOOTH",
"360 714 OFFCURVE",
"312 758 OFFCURVE",
"250 758 CURVE SMOOTH",
"188 758 OFFCURVE",
"140 714 OFFCURVE",
"140 654 CURVE SMOOTH",
"140 594 OFFCURVE",
"188 550 OFFCURVE",
"250 550 CURVE SMOOTH"
);
}
);
width = 500;
}
);
leftKerningGroup = hyphen;
leftMetricsKey = period;
rightKerningGroup = hyphen;
rightMetricsKey = period;
unicode = 00B7;
},
{
color = 1;
glyphname = bullet;
lastChange = "2022-02-16 15:38:45 +0000";
layers = (
{
layerId = "38FA562F-EF2C-4367-983C-F15B205514DC";
paths = (
{
closed = 1;
nodes = (
"672 396 OFFCURVE",
"798 520 OFFCURVE",
"798 688 CURVE SMOOTH",
"798 856 OFFCURVE",
"672 980 OFFCURVE",
"500 980 CURVE SMOOTH",
"328 980 OFFCURVE",
"202 856 OFFCURVE",
"202 688 CURVE SMOOTH",
"202 520 OFFCURVE",
"328 396 OFFCURVE",
"500 396 CURVE SMOOTH"
);
}
);
width = 1000;
}
);
leftKerningGroup = bullet;
rightKerningGroup = bullet;
unicode = 2022;
},
{
color = 1;
glyphname = asterisk;
lastChange = "2022-02-16 15:38:45 +0000";
layers = (
{
layerId = "38FA562F-EF2C-4367-983C-F15B205514DC";
paths = (
{
closed = 1;
nodes = (
"526 954 LINE",
"696 698 LINE",
"788 762 LINE",
"594 1008 LINE",
"894 1090 LINE",
"858 1198 LINE",
"568 1092 LINE",
"578 1400 LINE",
"468 1400 LINE",
"480 1088 LINE",
"190 1196 LINE",
"154 1088 LINE",
"454 1004 LINE",
"264 762 LINE",
"352 696 LINE"
);
}
);
width = 1044;
}
);
leftKerningGroup = asterisk;
rightKerningGroup = asterisk;
unicode = 002A;
},
{
color = 1;
glyphname = numbersign;
lastChange = "2022-02-16 15:38:45 +0000";
layers = (
{
layerId = "38FA562F-EF2C-4367-983C-F15B205514DC";
paths = (
{
closed = 1;
nodes = (
"286 58 LINE",
"374 418 LINE",
"736 418 LINE",
"648 56 LINE",
"748 56 LINE",
"836 418 LINE",
"1012 418 LINE",
"1036 518 LINE",
"860 518 LINE",
"942 882 LINE",
"1120 882 LINE",
"1142 982 LINE",
"966 982 LINE",
"1052 1344 LINE",
"952 1344 LINE",
"866 982 LINE",
"504 982 LINE",
"590 1342 LINE",
"492 1342 LINE",
"404 982 LINE",
"228 982 LINE",
"204 884 LINE",
"382 884 LINE",
"296 516 LINE",
"118 516 LINE",
"96 418 LINE",
"274 418 LINE",
"186 58 LINE"
);
},
{
closed = 1;
nodes = (
"478 884 LINE",
"842 882 LINE",
"760 518 LINE",
"396 516 LINE"
);
}
);
width = 1238;
}
);
leftKerningGroup = numbersign;
rightKerningGroup = numbersign;
rightMetricsKey = "=|";
unicode = 0023;
},
{
color = 1;
glyphname = slash;
lastChange = "2022-02-16 15:38:45 +0000";
layers = (
{
layerId = "38FA562F-EF2C-4367-983C-F15B205514DC";
paths = (
{
closed = 1;
nodes = (
"872 1570 LINE",
"772 1610 LINE",
"20 -190 LINE",
"120 -230 LINE"
);
}
);
width = 892;
}
);
leftKerningGroup = slash;
rightKerningGroup = slash;
unicode = 002F;
},
{
color = 1;
glyphname = backslash;
lastChange = "2022-02-16 15:38:45 +0000";
layers = (
{
layerId = "38FA562F-EF2C-4367-983C-F15B205514DC";
paths = (
{
closed = 1;
nodes = (
"872 -190 LINE",
"120 1610 LINE",
"20 1570 LINE",
"772 -230 LINE"
);
}
);
width = 892;
}
);
leftKerningGroup = backslash;
rightKerningGroup = backslash;
unicode = 005C;
},
{
color = 1;
glyphname = hyphen;
lastChange = "2022-02-16 15:38:45 +0000";
layers = (
{
layerId = "38FA562F-EF2C-4367-983C-F15B205514DC";
paths = (
{
closed = 1;
nodes = (
"628 512 LINE",
"628 608 LINE",
"136 608 LINE",
"136 512 LINE"
);
}
);
width = 764;
}
);
leftKerningGroup = hyphen;
rightKerningGroup = hyphen;
unicode = 002D;
},
{
color = 9;
glyphname = softhyphen;
lastChange = "2022-02-16 15:38:40 +0000";
layers = (
{
layerId = "38FA562F-EF2C-4367-983C-F15B205514DC";
paths = (
{
closed = 1;
nodes = (
"628 512 LINE",
"628 608 LINE",
"136 608 LINE",
"136 512 LINE"
);
}
);
width = 764;
}
);
leftKerningGroup = hyphen;
rightKerningGroup = hyphen;
unicode = 00AD;
},
{
color = 1;
glyphname = endash;
lastChange = "2022-02-16 15:38:45 +0000";
layers = (
{
layerId = "38FA562F-EF2C-4367-983C-F15B205514DC";
paths = (
{
closed = 1;
nodes = (
"940 514 LINE",
"940 606 LINE",
"60 606 LINE",
"60 514 LINE"
);
}
);
width = 1000;
}
);
leftKerningGroup = hyphen;
rightKerningGroup = hyphen;
unicode = 2013;
},
{
color = 1;
glyphname = emdash;
lastChange = "2022-02-16 15:38:45 +0000";
layers = (
{
layerId = "38FA562F-EF2C-4367-983C-F15B205514DC";
paths = (
{
closed = 1;
nodes = (
"1750 514 LINE",
"1750 606 LINE",
"250 606 LINE",
"250 514 LINE"
);
}
);
width = 2000;
}
);
leftKerningGroup = hyphen;
rightKerningGroup = hyphen;
unicode = 2014;
},
{
color = 1;
glyphname = underscore;
lastChange = "2022-02-16 15:38:45 +0000";
layers = (
{
layerId = "38FA562F-EF2C-4367-983C-F15B205514DC";
paths = (
{
closed = 1;
nodes = (
"1030 -282 LINE",
"1030 -190 LINE",
"30 -190 LINE",
"30 -282 LINE"
);
}
);
width = 1060;
}
);
leftKerningGroup = underscore;
rightKerningGroup = underscore;
unicode = 005F;
},
{
color = 1;
glyphname = parenleft;
lastChange = "2022-02-16 15:38:45 +0000";
layers = (
{
layerId = "38FA562F-EF2C-4367-983C-F15B205514DC";
paths = (
{
closed = 1;
nodes = (
"522 -188 LINE",
"372 56 OFFCURVE",
"296 378 OFFCURVE",
"296 696 CURVE SMOOTH",
"296 1014 OFFCURVE",
"372 1332 OFFCURVE",
"522 1568 CURVE",
"442 1610 LINE",
"276 1344 OFFCURVE",
"194 1018 OFFCURVE",
"194 692 CURVE SMOOTH",
"194 366 OFFCURVE",
"276 38 OFFCURVE",
"442 -230 CURVE"
);
}
);
width = 666;
}
);
leftKerningGroup = parenleft;
rightKerningGroup = parenleft;
unicode = 0028;
},
{
color = 1;
glyphname = parenright;
lastChange = "2022-02-16 15:38:45 +0000";
layers = (
{
layerId = "38FA562F-EF2C-4367-983C-F15B205514DC";
paths = (
{
closed = 1;
nodes = (
"390 36 OFFCURVE",
"472 362 OFFCURVE",
"472 688 CURVE SMOOTH",
"472 1014 OFFCURVE",
"390 1342 OFFCURVE",
"224 1610 CURVE",
"144 1568 LINE",
"294 1324 OFFCURVE",
"370 1002 OFFCURVE",
"370 684 CURVE SMOOTH",
"370 366 OFFCURVE",
"294 48 OFFCURVE",
"144 -188 CURVE",
"224 -230 LINE"
);
}
);
width = 666;
}
);
leftKerningGroup = parenright;
leftMetricsKey = "=|parenleft";
rightKerningGroup = parenright;
rightMetricsKey = "=|parenleft";
unicode = 0029;
},
{
color = 1;
glyphname = braceleft;
lastChange = "2022-02-16 15:38:45 +0000";
layers = (
{
layerId = "38FA562F-EF2C-4367-983C-F15B205514DC";
paths = (
{
closed = 1;
nodes = (
"532 -128 LINE",
"386 -142 OFFCURVE",
"344 -102 OFFCURVE",
"356 6 CURVE SMOOTH",
"410 462 LINE SMOOTH",
"428 606 OFFCURVE",
"396 668 OFFCURVE",
"286 690 CURVE",
"286 692 LINE",
"394 712 OFFCURVE",
"428 776 OFFCURVE",
"410 920 CURVE SMOOTH",
"356 1374 LINE SMOOTH",
"344 1480 OFFCURVE",
"388 1522 OFFCURVE",
"532 1508 CURVE",
"532 1604 LINE",
"330 1636 OFFCURVE",
"224 1544 OFFCURVE",
"244 1380 CURVE SMOOTH",
"304 904 LINE SMOOTH",
"322 768 OFFCURVE",
"298 740 OFFCURVE",
"134 740 CURVE",
"134 644 LINE",
"298 644 OFFCURVE",
"322 616 OFFCURVE",
"304 478 CURVE SMOOTH",
"242 -4 LINE SMOOTH",
"222 -166 OFFCURVE",
"326 -256 OFFCURVE",
"532 -224 CURVE"
);
}
);
width = 666;
}
);
leftKerningGroup = braceleft;
widthMetricsKey = parenleft;
rightKerningGroup = parenleft;
rightMetricsKey = bracketleft;
unicode = 007B;
},
{
color = 1;
glyphname = braceright;
lastChange = "2022-02-16 15:38:45 +0000";
layers = (
{
layerId = "38FA562F-EF2C-4367-983C-F15B205514DC";
paths = (
{
closed = 1;
nodes = (
"340 -256 OFFCURVE",
"444 -166 OFFCURVE",
"424 -4 CURVE SMOOTH",
"362 478 LINE SMOOTH",
"344 616 OFFCURVE",
"368 644 OFFCURVE",
"532 644 CURVE",
"532 740 LINE",
"368 740 OFFCURVE",
"344 768 OFFCURVE",
"362 904 CURVE SMOOTH",
"422 1380 LINE SMOOTH",
"442 1544 OFFCURVE",
"336 1636 OFFCURVE",
"134 1604 CURVE",
"134 1508 LINE",
"278 1522 OFFCURVE",
"322 1480 OFFCURVE",
"310 1374 CURVE SMOOTH",
"256 920 LINE SMOOTH",
"238 776 OFFCURVE",
"272 712 OFFCURVE",
"380 692 CURVE",
"380 690 LINE",
"270 668 OFFCURVE",
"238 606 OFFCURVE",
"256 462 CURVE SMOOTH",
"310 6 LINE SMOOTH",
"322 -102 OFFCURVE",
"280 -142 OFFCURVE",
"134 -128 CURVE",
"134 -224 LINE"
);
}
);
width = 666;
}
);
leftKerningGroup = parenright;
rightKerningGroup = braceright;
unicode = 007D;
},
{
color = 1;
glyphname = bracketleft;
lastChange = "2022-02-16 15:38:45 +0000";
layers = (
{
layerId = "38FA562F-EF2C-4367-983C-F15B205514DC";
paths = (
{
closed = 1;
nodes = (
"532 -220 LINE",
"532 -124 LINE",
"324 -124 LINE",
"324 1504 LINE",
"532 1504 LINE",
"532 1600 LINE",
"224 1600 LINE",
"224 -220 LINE"
);
}
);
width = 666;
}
);
leftKerningGroup = bar;
widthMetricsKey = parenleft;
rightKerningGroup = parenleft;
unicode = 005B;
},
{
color = 1;
glyphname = bracketright;
lastChange = "2022-02-16 15:38:45 +0000";
layers = (
{
layerId = "38FA562F-EF2C-4367-983C-F15B205514DC";
paths = (
{
closed = 1;
nodes = (
"442 1600 LINE",
"134 1600 LINE",
"134 1504 LINE",
"342 1504 LINE",
"342 -124 LINE",
"134 -124 LINE",
"134 -220 LINE",
"442 -220 LINE"
);
}
);
width = 666;
}
);
leftKerningGroup = parenright;
leftMetricsKey = "=|bracketleft";
rightKerningGroup = bar;
rightMetricsKey = "=|bracketleft";
unicode = 005D;
},
{
color = 9;
glyphname = quotesinglbase;
lastChange = "2022-02-16 15:38:40 +0000";
layers = (
{
layerId = "38FA562F-EF2C-4367-983C-F15B205514DC";
paths = (
{
closed = 1;
nodes = (
"282 -162 OFFCURVE",
"358 -48 OFFCURVE",
"358 47 CURVE SMOOTH",
"358 131 OFFCURVE",
"314 178 OFFCURVE",
"246 178 CURVE SMOOTH",
"186 178 OFFCURVE",
"142 136 OFFCURVE",
"142 80 CURVE SMOOTH",
"142 22 OFFCURVE",
"190 -18 OFFCURVE",
"252 -14 CURVE",
"239 -67 OFFCURVE",
"169 -131 OFFCURVE",
"86 -177 CURVE",
"144 -246 LINE"
);
}
);
width = 528;
}
);
leftKerningGroup = comma;
rightKerningGroup = comma;
unicode = 201A;
},
{
color = 9;
glyphname = quotedblbase;
lastChange = "2022-02-16 15:38:40 +0000";
layers = (
{
layerId = "38FA562F-EF2C-4367-983C-F15B205514DC";
paths = (
{
closed = 1;
nodes = (
"282 -162 OFFCURVE",
"358 -48 OFFCURVE",
"358 47 CURVE SMOOTH",
"358 131 OFFCURVE",
"314 178 OFFCURVE",
"246 178 CURVE SMOOTH",
"186 178 OFFCURVE",
"142 136 OFFCURVE",
"142 80 CURVE SMOOTH",
"142 22 OFFCURVE",
"190 -18 OFFCURVE",
"252 -14 CURVE",
"239 -67 OFFCURVE",
"169 -131 OFFCURVE",
"86 -177 CURVE",
"144 -246 LINE"
);
},
{
closed = 1;
nodes = (
"630 -162 OFFCURVE",
"706 -48 OFFCURVE",
"706 47 CURVE SMOOTH",
"706 131 OFFCURVE",
"662 178 OFFCURVE",
"594 178 CURVE SMOOTH",
"534 178 OFFCURVE",
"490 136 OFFCURVE",
"490 80 CURVE SMOOTH",
"490 22 OFFCURVE",
"538 -18 OFFCURVE",
"600 -14 CURVE",
"587 -67 OFFCURVE",
"517 -131 OFFCURVE",
"434 -177 CURVE",
"492 -246 LINE"
);
}
);
width = 876;
}
);
leftKerningGroup = comma;
leftMetricsKey = quotesinglbase;
rightKerningGroup = comma;
rightMetricsKey = quotesinglbase;
unicode = 201E;
},
{
color = 1;
glyphname = quotedblleft;
lastChange = "2022-02-16 15:38:45 +0000";
layers = (
{
layerId = "38FA562F-EF2C-4367-983C-F15B205514DC";
paths = (
{
closed = 1;
nodes = (
"314 996 OFFCURVE",
"358 1038 OFFCURVE",
"358 1094 CURVE SMOOTH",
"358 1152 OFFCURVE",
"310 1192 OFFCURVE",
"248 1188 CURVE",
"261 1241 OFFCURVE",
"331 1305 OFFCURVE",
"414 1351 CURVE",
"356 1420 LINE",
"218 1336 OFFCURVE",
"142 1222 OFFCURVE",
"142 1127 CURVE SMOOTH",
"142 1043 OFFCURVE",
"186 996 OFFCURVE",
"254 996 CURVE SMOOTH"
);
},
{
closed = 1;
nodes = (
"662 996 OFFCURVE",
"706 1038 OFFCURVE",
"706 1094 CURVE SMOOTH",
"706 1152 OFFCURVE",
"658 1192 OFFCURVE",
"596 1188 CURVE",
"609 1241 OFFCURVE",
"679 1305 OFFCURVE",
"762 1351 CURVE",
"704 1420 LINE",
"566 1336 OFFCURVE",
"490 1222 OFFCURVE",
"490 1127 CURVE SMOOTH",
"490 1043 OFFCURVE",
"534 996 OFFCURVE",
"602 996 CURVE SMOOTH"
);
}
);
width = 848;
}
);
leftKerningGroup = quote;
leftMetricsKey = quoteleft;
rightKerningGroup = quote;
rightMetricsKey = quoteleft;
unicode = 201C;
},
{
color = 1;
glyphname = quotedblright;
lastChange = "2022-02-16 15:38:45 +0000";
layers = (
{
layerId = "38FA562F-EF2C-4367-983C-F15B205514DC";
paths = (
{
closed = 1;
nodes = (
"282 1080 OFFCURVE",
"358 1194 OFFCURVE",
"358 1289 CURVE SMOOTH",
"358 1373 OFFCURVE",
"314 1420 OFFCURVE",
"246 1420 CURVE SMOOTH",
"186 1420 OFFCURVE",
"142 1378 OFFCURVE",
"142 1322 CURVE SMOOTH",
"142 1264 OFFCURVE",
"190 1224 OFFCURVE",
"252 1228 CURVE",
"239 1175 OFFCURVE",
"169 1111 OFFCURVE",
"86 1065 CURVE",
"144 996 LINE"
);
},
{
closed = 1;
nodes = (
"630 1080 OFFCURVE",
"706 1194 OFFCURVE",
"706 1289 CURVE SMOOTH",
"706 1373 OFFCURVE",
"662 1420 OFFCURVE",
"594 1420 CURVE SMOOTH",
"534 1420 OFFCURVE",
"490 1378 OFFCURVE",
"490 1322 CURVE SMOOTH",
"490 1264 OFFCURVE",
"538 1224 OFFCURVE",
"600 1228 CURVE",
"587 1175 OFFCURVE",
"517 1111 OFFCURVE",
"434 1065 CURVE",
"492 996 LINE"
);
}
);
width = 848;
}
);
leftKerningGroup = quote;
leftMetricsKey = quoteright;
rightKerningGroup = quote;
rightMetricsKey = quoteright;
unicode = 201D;
},
{
color = 1;
glyphname = quoteleft;
lastChange = "2022-02-16 15:38:45 +0000";
layers = (
{
layerId = "38FA562F-EF2C-4367-983C-F15B205514DC";
paths = (
{
closed = 1;
nodes = (
"314 996 OFFCURVE",
"358 1038 OFFCURVE",
"358 1094 CURVE SMOOTH",
"358 1152 OFFCURVE",
"310 1192 OFFCURVE",
"248 1188 CURVE",
"261 1241 OFFCURVE",
"331 1305 OFFCURVE",
"414 1351 CURVE",
"356 1420 LINE",
"218 1336 OFFCURVE",
"142 1222 OFFCURVE",
"142 1127 CURVE SMOOTH",
"142 1043 OFFCURVE",
"186 996 OFFCURVE",
"254 996 CURVE SMOOTH"
);
}
);
width = 500;
}
);
leftKerningGroup = quote;
leftMetricsKey = "=|quoteright";
rightKerningGroup = quote;
rightMetricsKey = "=|quoteright";
unicode = 2018;
},
{
color = 1;
glyphname = quoteright;
lastChange = "2022-02-16 15:38:45 +0000";
layers = (
{
layerId = "38FA562F-EF2C-4367-983C-F15B205514DC";
paths = (
{
closed = 1;
nodes = (
"282 1080 OFFCURVE",
"358 1194 OFFCURVE",
"358 1289 CURVE SMOOTH",
"358 1373 OFFCURVE",
"314 1420 OFFCURVE",
"246 1420 CURVE SMOOTH",
"186 1420 OFFCURVE",
"142 1378 OFFCURVE",
"142 1322 CURVE SMOOTH",
"142 1264 OFFCURVE",
"190 1224 OFFCURVE",
"252 1228 CURVE",
"239 1175 OFFCURVE",
"169 1111 OFFCURVE",
"86 1065 CURVE",
"144 996 LINE"
);
}
);
width = 500;
}
);
leftKerningGroup = quote;
leftMetricsKey = comma;
widthMetricsKey = comma;
rightKerningGroup = quote;
unicode = 2019;
},
{
color = 9;
glyphname = guillemetleft;
lastChange = "2022-02-16 15:38:40 +0000";
layers = (
{
layerId = "38FA562F-EF2C-4367-983C-F15B205514DC";
paths = (
{
closed = 1;
nodes = (
"848 169 LINE",
"564 498 LINE",
"848 827 LINE",
"781 886 LINE",
"440 498 LINE",
"781 110 LINE"
);
},
{
closed = 1;
nodes = (
"468 169 LINE",
"184 498 LINE",
"468 827 LINE",
"401 886 LINE",
"60 498 LINE",
"401 110 LINE"
);
}
);
width = 956;
}
);
leftKerningGroup = guilsinglleft;
leftMetricsKey = guilsinglleft;
rightKerningGroup = guilsinglleft;
rightMetricsKey = guilsinglleft;
unicode = 00AB;
},
{
color = 9;
glyphname = guillemetright;
lastChange = "2022-02-16 15:38:40 +0000";
layers = (
{
layerId = "38FA562F-EF2C-4367-983C-F15B205514DC";
paths = (
{
closed = 1;
nodes = (
"896 498 LINE",
"555 886 LINE",
"488 827 LINE",
"772 498 LINE",
"488 169 LINE",
"555 110 LINE"
);
},
{
closed = 1;
nodes = (
"516 498 LINE",
"175 886 LINE",
"108 827 LINE",
"392 498 LINE",
"108 169 LINE",
"175 110 LINE"
);
}
);
width = 956;
}
);
leftKerningGroup = guilsinglright;
leftMetricsKey = guilsinglright;
rightKerningGroup = guilsinglright;
rightMetricsKey = guilsinglright;
unicode = 00BB;
},
{
color = 9;
glyphname = guilsinglleft;
lastChange = "2022-02-16 15:38:40 +0000";
layers = (
{
guideLines = (
{
angle = -41.3111;
position = "{401, 886}";
},
{
angle = 41.3111;
position = "{401, 110}";
}
);
layerId = "38FA562F-EF2C-4367-983C-F15B205514DC";
paths = (
{
closed = 1;
nodes = (
"468 169 LINE",
"184 498 LINE",
"468 827 LINE",
"401 886 LINE",
"60 498 LINE",
"401 110 LINE"
);
}
);
width = 576;
}
);
leftKerningGroup = guilsinglleft;
rightKerningGroup = guilsinglleft;
unicode = 2039;
},
{
color = 9;
glyphname = guilsinglright;
lastChange = "2022-02-16 15:38:40 +0000";
layers = (
{
layerId = "38FA562F-EF2C-4367-983C-F15B205514DC";
paths = (
{
closed = 1;
nodes = (
"516 498 LINE",
"175 886 LINE",
"108 827 LINE",
"392 498 LINE",
"108 169 LINE",
"175 110 LINE"
);
}
);
width = 576;
}
);
leftKerningGroup = guilsinglright;
leftMetricsKey = "=|guilsinglleft";
rightKerningGroup = guilsinglright;
rightMetricsKey = "=|guilsinglleft";
unicode = 203A;
},
{
color = 1;
glyphname = quotedbl;
lastChange = "2022-02-16 15:38:45 +0000";
layers = (
{
layerId = "38FA562F-EF2C-4367-983C-F15B205514DC";
paths = (
{
closed = 1;
nodes = (
"255 992 LINE",
"265 1400 LINE",
"155 1400 LINE",
"165 992 LINE"
);
},
{
closed = 1;
nodes = (
"555 992 LINE",
"565 1400 LINE",
"455 1400 LINE",
"465 992 LINE"
);
}
);
width = 720;
}
);
leftKerningGroup = quote;
leftMetricsKey = quotesingle;
rightKerningGroup = quote;
rightMetricsKey = quotesingle;
unicode = 0022;
},
{
color = 1;
glyphname = quotesingle;
lastChange = "2022-02-16 15:38:45 +0000";
layers = (
{
layerId = "38FA562F-EF2C-4367-983C-F15B205514DC";
paths = (
{
closed = 1;
nodes = (
"255 992 LINE",
"265 1400 LINE",
"155 1400 LINE",
"165 992 LINE"
);
}
);
width = 420;
}
);
leftKerningGroup = quote;
rightKerningGroup = quote;
unicode = 0027;
},
{
color = 1;
glyphname = at;
lastChange = "2022-02-16 15:38:45 +0000";
layers = (
{
guideLines = (
{
angle = 87.0391;
position = "{539, 429}";
}
);
layerId = "38FA562F-EF2C-4367-983C-F15B205514DC";
paths = (
{
closed = 1;
nodes = (
"1072 -234 OFFCURVE",
"1292 -172 OFFCURVE",
"1412 -78 CURVE",
"1372 2 LINE",
"1270 -86 OFFCURVE",
"1066 -148 OFFCURVE",
"878 -148 CURVE SMOOTH",
"476 -148 OFFCURVE",
"206 110 OFFCURVE",
"206 490 CURVE SMOOTH",
"206 868 OFFCURVE",
"500 1156 OFFCURVE",
"886 1156 CURVE SMOOTH",
"1260 1156 OFFCURVE",
"1520 916 OFFCURVE",
"1520 572 CURVE SMOOTH",
"1520 360 OFFCURVE",
"1414 214 OFFCURVE",
"1286 214 CURVE SMOOTH",
"1176 214 OFFCURVE",
"1148 266 OFFCURVE",
"1154 394 CURVE SMOOTH",
"1178 864 LINE",
"1078 864 LINE",
"1074 772 LINE",
"1012 850 OFFCURVE",
"930 890 OFFCURVE",
"832 890 CURVE SMOOTH",
"638 890 OFFCURVE",
"480 710 OFFCURVE",
"480 488 CURVE SMOOTH",
"480 286 OFFCURVE",
"612 132 OFFCURVE",
"786 132 CURVE SMOOTH",
"910 132 OFFCURVE",
"1016 188 OFFCURVE",
"1070 284 CURVE",
"1084 190 OFFCURVE",
"1152 132 OFFCURVE",
"1272 132 CURVE SMOOTH",
"1460 132 OFFCURVE",
"1614 318 OFFCURVE",
"1614 574 CURVE SMOOTH",
"1614 968 OFFCURVE",
"1314 1242 OFFCURVE",
"886 1242 CURVE SMOOTH",
"442 1242 OFFCURVE",
"112 918 OFFCURVE",
"112 484 CURVE SMOOTH",
"112 54 OFFCURVE",
"414 -234 OFFCURVE",
"862 -234 CURVE SMOOTH"
);
},
{
closed = 1;
nodes = (
"662 228 OFFCURVE",
"584 318 OFFCURVE",
"584 484 CURVE SMOOTH",
"584 678 OFFCURVE",
"680 794 OFFCURVE",
"840 794 CURVE SMOOTH",
"982 794 OFFCURVE",
"1060 704 OFFCURVE",
"1060 542 CURVE SMOOTH",
"1060 344 OFFCURVE",
"966 228 OFFCURVE",
"806 228 CURVE SMOOTH"
);
}
);
width = 1726;
}
);
leftKerningGroup = at;
leftMetricsKey = O;
rightKerningGroup = at;
rightMetricsKey = O;
unicode = 0040;
},
{
color = 1;
glyphname = ampersand;
lastChange = "2022-02-16 15:38:45 +0000";
layers = (
{
layerId = "38FA562F-EF2C-4367-983C-F15B205514DC";
paths = (
{
closed = 1;
nodes = (
"730 -30 OFFCURVE",
"898 46 OFFCURVE",
"1038 186 CURVE",
"1216 0 LINE",
"1368 0 LINE",
"1104 274 LINE",
"1204 400 OFFCURVE",
"1290 558 OFFCURVE",
"1348 730 CURVE",
"1246 776 LINE",
"1186 590 OFFCURVE",
"1114 450 OFFCURVE",
"1034 348 CURVE",
"654 736 LINE",
"874 828 OFFCURVE",
"998 950 OFFCURVE",
"998 1108 CURVE SMOOTH",
"998 1296 OFFCURVE",
"848 1430 OFFCURVE",
"642 1430 CURVE SMOOTH",
"452 1430 OFFCURVE",
"290 1286 OFFCURVE",
"290 1114 CURVE SMOOTH",
"290 986 OFFCURVE",
"334 908 OFFCURVE",
"482 764 CURVE",
"258 692 OFFCURVE",
"120 538 OFFCURVE",
"120 358 CURVE SMOOTH",
"120 132 OFFCURVE",
"302 -30 OFFCURVE",
"560 -30 CURVE SMOOTH"
);
},
{
closed = 1;
nodes = (
"362 78 OFFCURVE",
"240 186 OFFCURVE",
"240 358 CURVE SMOOTH",
"240 508 OFFCURVE",
"350 628 OFFCURVE",
"550 692 CURVE",
"966 262 LINE",
"850 138 OFFCURVE",
"714 78 OFFCURVE",
"562 78 CURVE SMOOTH"
);
},
{
closed = 1;
nodes = (
"452 938 OFFCURVE",
"410 1008 OFFCURVE",
"410 1110 CURVE SMOOTH",
"410 1232 OFFCURVE",
"512 1322 OFFCURVE",
"646 1322 CURVE SMOOTH",
"780 1322 OFFCURVE",
"878 1230 OFFCURVE",
"878 1104 CURVE SMOOTH",
"878 978 OFFCURVE",
"780 876 OFFCURVE",
"586 806 CURVE"
);
}
);
width = 1462;
}
);
leftKerningGroup = ampersand;
rightKerningGroup = x;
unicode = 0026;
},
{
color = 1;
glyphname = paragraph;
lastChange = "2022-02-16 15:38:45 +0000";
layers = (
{
layerId = "38FA562F-EF2C-4367-983C-F15B205514DC";
paths = (
{
closed = 1;
nodes = (
"594 -420 LINE",
"594 1300 LINE",
"800 1300 LINE",
"800 -420 LINE",
"904 -420 LINE",
"904 1300 LINE",
"1126 1300 LINE",
"1126 1400 LINE",
"512 1400 LINE SMOOTH",
"248 1400 OFFCURVE",
"90 1250 OFFCURVE",
"90 1046 CURVE SMOOTH",
"90 842 OFFCURVE",
"248 692 OFFCURVE",
"512 692 CURVE",
"490 730 LINE",
"490 -420 LINE"
);
}
);
width = 1196;
}
);
leftKerningGroup = paragraph;
leftMetricsKey = "=|P";
rightKerningGroup = paragraph;
rightMetricsKey = T;
unicode = 00B6;
},
{
color = 1;
glyphname = section;
lastChange = "2022-02-16 15:38:45 +0000";
layers = (
{
layerId = "38FA562F-EF2C-4367-983C-F15B205514DC";
paths = (
{
closed = 1;
nodes = (
"852 -450 OFFCURVE",
"1026 -312 OFFCURVE",
"1026 -98 CURVE SMOOTH",
"1026 92 OFFCURVE",
"902 180 OFFCURVE",
"648 246 CURVE SMOOTH",
"424 304 OFFCURVE",
"296 364 OFFCURVE",
"296 522 CURVE SMOOTH",
"296 666 OFFCURVE",
"436 766 OFFCURVE",
"616 764 CURVE",
"626 852 LINE",
"388 858 OFFCURVE",
"192 716 OFFCURVE",
"192 520 CURVE SMOOTH",
"192 328 OFFCURVE",
"314 222 OFFCURVE",
"584 144 CURVE SMOOTH",
"838 70 OFFCURVE",
"916 22 OFFCURVE",
"916 -112 CURVE SMOOTH",
"916 -260 OFFCURVE",
"790 -346 OFFCURVE",
"598 -346 CURVE SMOOTH",
"470 -346 OFFCURVE",
"334 -298 OFFCURVE",
"242 -200 CURVE",
"172 -296 LINE",
"258 -380 OFFCURVE",
"422 -450 OFFCURVE",
"594 -450 CURVE SMOOTH"
);
},
{
closed = 1;
nodes = (
"886 134 OFFCURVE",
"1080 284 OFFCURVE",
"1080 512 CURVE SMOOTH",
"1080 698 OFFCURVE",
"936 792 OFFCURVE",
"688 858 CURVE SMOOTH",
"462 918 OFFCURVE",
"346 958 OFFCURVE",
"346 1112 CURVE SMOOTH",
"346 1244 OFFCURVE",
"462 1328 OFFCURVE",
"630 1328 CURVE SMOOTH",
"764 1328 OFFCURVE",
"890 1280 OFFCURVE",
"976 1188 CURVE",
"1038 1288 LINE",
"936 1380 OFFCURVE",
"802 1430 OFFCURVE",
"644 1430 CURVE SMOOTH",
"410 1430 OFFCURVE",
"244 1286 OFFCURVE",
"244 1100 CURVE SMOOTH",
"244 924 OFFCURVE",
"352 832 OFFCURVE",
"616 758 CURVE SMOOTH",
"874 686 OFFCURVE",
"966 640 OFFCURVE",
"966 504 CURVE SMOOTH",
"966 330 OFFCURVE",
"824 222 OFFCURVE",
"628 222 CURVE",
"626 134 LINE"
);
}
);
width = 1224;
}
);
leftKerningGroup = section;
leftMetricsKey = "=S+20";
rightKerningGroup = section;
rightMetricsKey = "=S+20";
unicode = 00A7;
},
{
color = 1;
glyphname = copyright;
lastChange = "2022-02-16 15:38:45 +0000";
layers = (
{
anchors = (
{
name = bottom;
position = "{838, 308}";
},
{
name = center;
position = "{838, 700}";
},
{
name = top;
position = "{838, 1092}";
}
);
layerId = "38FA562F-EF2C-4367-983C-F15B205514DC";
paths = (
{
closed = 1;
nodes = (
"1258 -30 OFFCURVE",
"1576 286 OFFCURVE",
"1576 700 CURVE SMOOTH",
"1576 1108 OFFCURVE",
"1258 1430 OFFCURVE",
"838 1430 CURVE SMOOTH",
"416 1430 OFFCURVE",
"100 1116 OFFCURVE",
"100 700 CURVE SMOOTH",
"100 288 OFFCURVE",
"414 -30 OFFCURVE",
"838 -30 CURVE SMOOTH"
);
},
{
closed = 1;
nodes = (
"500 56 OFFCURVE",
"194 312 OFFCURVE",
"194 700 CURVE SMOOTH",
"194 1088 OFFCURVE",
"500 1344 OFFCURVE",
"838 1344 CURVE SMOOTH",
"1176 1344 OFFCURVE",
"1482 1088 OFFCURVE",
"1482 700 CURVE SMOOTH",
"1482 312 OFFCURVE",
"1176 56 OFFCURVE",
"838 56 CURVE SMOOTH"
);
},
{
closed = 1;
nodes = (
"982 292 OFFCURVE",
"1078 322 OFFCURVE",
"1158 382 CURVE",
"1110 470 LINE",
"1038 412 OFFCURVE",
"956 392 OFFCURVE",
"878 392 CURVE SMOOTH",
"678 392 OFFCURVE",
"552 506 OFFCURVE",
"552 700 CURVE SMOOTH",
"552 890 OFFCURVE",
"678 1008 OFFCURVE",
"870 1008 CURVE SMOOTH",
"954 1008 OFFCURVE",
"1024 986 OFFCURVE",
"1078 940 CURVE",
"1134 1026 LINE",
"1070 1078 OFFCURVE",
"982 1108 OFFCURVE",
"862 1108 CURVE SMOOTH",
"618 1108 OFFCURVE",
"444 936 OFFCURVE",
"444 700 CURVE SMOOTH",
"444 454 OFFCURVE",
"610 292 OFFCURVE",
"862 292 CURVE SMOOTH"
);
}
);
width = 1676;
}
);
leftKerningGroup = at;
rightKerningGroup = at;
rightMetricsKey = "=|";
unicode = 00A9;
},
{
color = 1;
glyphname = registered;
lastChange = "2022-02-16 15:38:45 +0000";
layers = (
{
anchors = (
{
name = bottom;
position = "{638, 778}";
},
{
name = center;
position = "{614, 988}";
},
{
name = top;
position = "{616, 1198}";
}
);
layerId = "38FA562F-EF2C-4367-983C-F15B205514DC";
paths = (
{
closed = 1;
nodes = (
"912 478 OFFCURVE",
"1138 700 OFFCURVE",
"1138 988 CURVE SMOOTH",
"1138 1274 OFFCURVE",
"910 1500 OFFCURVE",
"614 1500 CURVE SMOOTH",
"316 1500 OFFCURVE",
"90 1280 OFFCURVE",
"90 988 CURVE SMOOTH",
"90 700 OFFCURVE",
"314 478 OFFCURVE",
"614 478 CURVE SMOOTH"
);
},
{
closed = 1;
nodes = (
"376 544 OFFCURVE",
"164 722 OFFCURVE",
"164 988 CURVE SMOOTH",
"164 1256 OFFCURVE",
"376 1434 OFFCURVE",
"614 1434 CURVE SMOOTH",
"852 1434 OFFCURVE",
"1064 1256 OFFCURVE",
"1064 988 CURVE SMOOTH",
"1064 722 OFFCURVE",
"852 544 OFFCURVE",
"614 544 CURVE SMOOTH"
);
},
{
closed = 1;
nodes = (
"512 714 LINE",
"512 938 LINE",
"598 938 LINE",
"766 714 LINE",
"864 714 LINE",
"686 950 LINE",
"776 964 OFFCURVE",
"838 1020 OFFCURVE",
"838 1100 CURVE SMOOTH",
"838 1200 OFFCURVE",
"762 1262 OFFCURVE",
"646 1262 CURVE SMOOTH",
"432 1262 LINE",
"432 714 LINE"
);
},
{
closed = 1;
nodes = (
"512 1194 LINE",
"638 1194 LINE SMOOTH",
"716 1194 OFFCURVE",
"754 1156 OFFCURVE",
"754 1098 CURVE SMOOTH",
"754 1040 OFFCURVE",
"708 1006 OFFCURVE",
"630 1006 CURVE SMOOTH",
"512 1006 LINE"
);
}
);
userData = {
RMXScaler = {
adjustSpace = 10;
height = 70;
verticalShift = 250;
weight = -5;
width = 71;
};
};
width = 1228;
}
);
leftKerningGroup = asterisk;
rightKerningGroup = asterisk;
unicode = 00AE;
userData = {
RMXScaler = {
source = _part.registered;
};
};
},
{
color = 1;
glyphname = trademark;
lastChange = "2022-02-16 15:38:45 +0000";
layers = (
{
anchors = (
{
name = bar;
position = "{368, 984}";
},
{
name = bottom;
position = "{368, 560}";
},
{
name = top;
position = "{368, 1400}";
}
);
layerId = "38FA562F-EF2C-4367-983C-F15B205514DC";
paths = (
{
closed = 1;
nodes = (
"420 560 LINE",
"420 1304 LINE",
"674 1304 LINE",
"674 1400 LINE",
"60 1400 LINE",
"60 1304 LINE",
"314 1304 LINE",
"314 560 LINE"
);
},
{
closed = 1;
nodes = (
"938 560 LINE",
"938 1210 LINE",
"1242 752 LINE",
"1326 752 LINE",
"1628 1210 LINE",
"1628 560 LINE",
"1730 560 LINE",
"1730 1400 LINE",
"1632 1400 LINE",
"1286 868 LINE",
"938 1400 LINE",
"836 1400 LINE",
"836 560 LINE"
);
}
);
userData = {
RMXScaler = {
adjustSpace = 10;
height = 60;
verticalShift = 280;
weight = -5;
width = 63;
};
};
width = 1872;
}
);
leftKerningGroup = asterisk;
rightKerningGroup = asterisk;
unicode = 2122;
userData = {
RMXScaler = {
source = _part.T_M;
};
};
},
{
color = 1;
glyphname = degree;
lastChange = "2022-02-16 15:38:45 +0000";
layers = (
{
layerId = "38FA562F-EF2C-4367-983C-F15B205514DC";
paths = (
{
closed = 1;
nodes = (
"664 710 OFFCURVE",
"826 870 OFFCURVE",
"826 1066 CURVE SMOOTH",
"826 1260 OFFCURVE",
"664 1420 OFFCURVE",
"464 1420 CURVE SMOOTH",
"264 1420 OFFCURVE",
"100 1260 OFFCURVE",
"100 1066 CURVE SMOOTH",
"100 870 OFFCURVE",
"264 710 OFFCURVE",
"464 710 CURVE SMOOTH"
);
},
{
closed = 1;
nodes = (
"308 806 OFFCURVE",
"200 914 OFFCURVE",
"200 1066 CURVE SMOOTH",
"200 1218 OFFCURVE",
"308 1324 OFFCURVE",
"464 1324 CURVE SMOOTH",
"622 1324 OFFCURVE",
"726 1222 OFFCURVE",
"726 1066 CURVE SMOOTH",
"726 910 OFFCURVE",
"622 806 OFFCURVE",
"464 806 CURVE SMOOTH"
);
}
);
width = 926;
}
);
leftKerningGroup = asterisk;
rightKerningGroup = asterisk;
unicode = 00B0;
},
{
color = 1;
glyphname = bar;
lastChange = "2022-02-16 15:38:45 +0000";
layers = (
{
layerId = "38FA562F-EF2C-4367-983C-F15B205514DC";
paths = (
{
closed = 1;
nodes = (
"300 -220 LINE",
"300 1600 LINE",
"200 1600 LINE",
"200 -220 LINE"
);
}
);
width = 500;
}
);
leftKerningGroup = bar;
rightKerningGroup = bar;
rightMetricsKey = "=|";
unicode = 007C;
},
{
color = 9;
glyphname = brokenbar;
lastChange = "2022-02-16 15:38:40 +0000";
layers = (
{
layerId = "38FA562F-EF2C-4367-983C-F15B205514DC";
paths = (
{
closed = 1;
nodes = (
"300 810 LINE",
"300 1480 LINE",
"200 1480 LINE",
"200 810 LINE"
);
},
{
closed = 1;
nodes = (
"300 -100 LINE",
"300 570 LINE",
"200 570 LINE",
"200 -100 LINE"
);
}
);
width = 500;
}
);
leftKerningGroup = bar;
leftMetricsKey = bar;
rightKerningGroup = bar;
rightMetricsKey = bar;
unicode = 00A6;
},
{
color = 1;
glyphname = cent;
lastChange = "2022-02-16 15:38:45 +0000";
layers = (
{
layerId = "38FA562F-EF2C-4367-983C-F15B205514DC";
paths = (
{
closed = 1;
nodes = (
"748 -160 LINE",
"748 2 LINE",
"860 10 OFFCURVE",
"954 52 OFFCURVE",
"1042 124 CURVE",
"964 192 LINE",
"920 146 OFFCURVE",
"838 108 OFFCURVE",
"748 100 CURVE",
"748 862 LINE",
"828 858 OFFCURVE",
"896 832 OFFCURVE",
"950 792 CURVE",
"1022 864 LINE",
"936 928 OFFCURVE",
"852 956 OFFCURVE",
"748 960 CURVE",
"748 1120 LINE",
"648 1120 LINE",
"648 954 LINE",
"406 920 OFFCURVE",
"224 742 OFFCURVE",
"224 480 CURVE SMOOTH",
"224 216 OFFCURVE",
"404 32 OFFCURVE",
"648 4 CURVE",
"648 -160 LINE"
);
},
{
closed = 1;
nodes = (
"448 128 OFFCURVE",
"328 260 OFFCURVE",
"328 482 CURVE SMOOTH",
"328 702 OFFCURVE",
"448 834 OFFCURVE",
"648 860 CURVE",
"648 102 LINE"
);
}
);
width = 1296;
}
);
leftKerningGroup = currency;
widthMetricsKey = plus;
rightKerningGroup = currency;
unicode = 00A2;
},
{
color = 9;
glyphname = currency;
lastChange = "2022-02-16 15:38:40 +0000";
layers = (
{
layerId = "38FA562F-EF2C-4367-983C-F15B205514DC";
paths = (
{
closed = 1;
nodes = (
"410 308 LINE",
"480 252 OFFCURVE",
"560 226 OFFCURVE",
"648 226 CURVE SMOOTH",
"732 226 OFFCURVE",
"814 250 OFFCURVE",
"886 308 CURVE",
"1038 156 LINE",
"1114 230 LINE",
"962 384 LINE",
"1016 450 OFFCURVE",
"1044 534 OFFCURVE",
"1044 620 CURVE SMOOTH",
"1044 708 OFFCURVE",
"1016 790 OFFCURVE",
"962 860 CURVE",
"1114 1010 LINE",
"1038 1086 LINE",
"886 934 LINE",
"818 990 OFFCURVE",
"734 1016 OFFCURVE",
"648 1016 CURVE SMOOTH",
"564 1016 OFFCURVE",
"482 992 OFFCURVE",
"410 934 CURVE",
"258 1086 LINE",
"182 1010 LINE",
"334 860 LINE",
"280 790 OFFCURVE",
"254 706 OFFCURVE",
"254 620 CURVE SMOOTH",
"254 536 OFFCURVE",
"278 454 OFFCURVE",
"334 384 CURVE",
"182 230 LINE",
"258 156 LINE"
);
},
{
closed = 1;
nodes = (
"478 326 OFFCURVE",
"352 452 OFFCURVE",
"352 620 CURVE SMOOTH",
"352 792 OFFCURVE",
"480 916 OFFCURVE",
"648 916 CURVE SMOOTH",
"818 916 OFFCURVE",
"944 792 OFFCURVE",
"944 620 CURVE SMOOTH",
"944 452 OFFCURVE",
"820 326 OFFCURVE",
"648 326 CURVE SMOOTH"
);
}
);
width = 1296;
}
);
leftKerningGroup = currency;
widthMetricsKey = plus;
rightKerningGroup = currency;
unicode = 00A4;
},
{
color = 1;
glyphname = dollar;
lastChange = "2022-02-16 15:38:45 +0000";
layers = (
{
anchors = (
{
name = bottom;
position = "{654, 0}";
},
{
name = top;
position = "{666, 1400}";
}
);
layerId = "38FA562F-EF2C-4367-983C-F15B205514DC";
paths = (
{
closed = 1;
nodes = (
"958 -30 OFFCURVE",
"1122 128 OFFCURVE",
"1122 360 CURVE SMOOTH",
"1122 556 OFFCURVE",
"1004 662 OFFCURVE",
"794 726 CURVE SMOOTH",
"620 780 LINE SMOOTH",
"406 846 OFFCURVE",
"320 914 OFFCURVE",
"320 1050 CURVE SMOOTH",
"320 1228 OFFCURVE",
"458 1324 OFFCURVE",
"656 1324 CURVE SMOOTH",
"786 1324 OFFCURVE",
"914 1282 OFFCURVE",
"1006 1208 CURVE",
"1071 1299 LINE",
"977 1378 OFFCURVE",
"834 1430 OFFCURVE",
"676 1430 CURVE SMOOTH",
"404 1430 OFFCURVE",
"212 1284 OFFCURVE",
"212 1042 CURVE SMOOTH",
"212 848 OFFCURVE",
"344 750 OFFCURVE",
"552 686 CURVE SMOOTH",
"712 636 LINE SMOOTH",
"932 568 OFFCURVE",
"1014 488 OFFCURVE",
"1014 352 CURVE SMOOTH",
"1014 172 OFFCURVE",
"870 78 OFFCURVE",
"654 78 CURVE SMOOTH",
"508 78 OFFCURVE",
"368 122 OFFCURVE",
"264 204 CURVE",
"199 107 LINE",
"310 17 OFFCURVE",
"484 -30 OFFCURVE",
"654 -30 CURVE SMOOTH"
);
},
{
closed = 1;
nodes = (
"716 -160 LINE",
"716 1560 LINE",
"616 1560 LINE",
"616 -160 LINE"
);
}
);
width = 1296;
}
);
leftKerningGroup = currency;
widthMetricsKey = plus;
rightKerningGroup = currency;
unicode = 0024;
},
{
color = 1;
glyphname = euro;
lastChange = "2022-02-16 15:38:45 +0000";
layers = (
{
layerId = "38FA562F-EF2C-4367-983C-F15B205514DC";
paths = (
{
closed = 1;
nodes = (
"976 -30 OFFCURVE",
"1108 18 OFFCURVE",
"1226 130 CURVE",
"1180 230 LINE",
"1082 124 OFFCURVE",
"966 82 OFFCURVE",
"840 82 CURVE SMOOTH",
"590 82 OFFCURVE",
"414 232 OFFCURVE",
"356 496 CURVE",
"880 496 LINE",
"880 596 LINE",
"340 596 LINE",
"334 648 OFFCURVE",
"332 742 OFFCURVE",
"340 804 CURVE",
"880 804 LINE",
"880 904 LINE",
"356 904 LINE",
"414 1164 OFFCURVE",
"588 1320 OFFCURVE",
"828 1320 CURVE SMOOTH",
"956 1320 OFFCURVE",
"1058 1276 OFFCURVE",
"1134 1198 CURVE",
"1190 1292 LINE",
"1098 1382 OFFCURVE",
"974 1430 OFFCURVE",
"820 1430 CURVE SMOOTH",
"542 1430 OFFCURVE",
"328 1216 OFFCURVE",
"260 904 CURVE",
"60 904 LINE",
"60 804 LINE",
"242 804 LINE",
"236 748 OFFCURVE",
"234 668 OFFCURVE",
"240 596 CURVE",
"60 596 LINE",
"60 496 LINE",
"252 496 LINE",
"310 176 OFFCURVE",
"520 -30 OFFCURVE",
"820 -30 CURVE SMOOTH"
);
}
);
width = 1296;
}
);
leftKerningGroup = currency;
widthMetricsKey = plus;
rightKerningGroup = currency;
unicode = 20AC;
},
{
color = 1;
glyphname = sterling;
lastChange = "2022-02-16 15:38:45 +0000";
layers = (
{
layerId = "38FA562F-EF2C-4367-983C-F15B205514DC";
paths = (
{
closed = 1;
nodes = (
"1154 0 LINE",
"1154 104 LINE",
"404 104 LINE",
"556 198 OFFCURVE",
"590 306 OFFCURVE",
"590 416 CURVE SMOOTH",
"590 614 OFFCURVE",
"444 848 OFFCURVE",
"444 1048 CURVE SMOOTH",
"444 1204 OFFCURVE",
"540 1324 OFFCURVE",
"750 1324 CURVE SMOOTH",
"870 1324 OFFCURVE",
"970 1292 OFFCURVE",
"1058 1220 CURVE",
"1116 1308 LINE",
"1024 1382 OFFCURVE",
"898 1430 OFFCURVE",
"754 1430 CURVE SMOOTH",
"506 1430 OFFCURVE",
"328 1286 OFFCURVE",
"328 1062 CURVE SMOOTH",
"328 832 OFFCURVE",
"488 638 OFFCURVE",
"488 426 CURVE SMOOTH",
"488 262 OFFCURVE",
"394 170 OFFCURVE",
"202 104 CURVE",
"202 0 LINE"
);
},
{
closed = 1;
nodes = (
"1018 638 LINE",
"1018 738 LINE",
"180 738 LINE",
"180 638 LINE"
);
}
);
width = 1296;
}
);
leftKerningGroup = currency;
widthMetricsKey = plus;
rightKerningGroup = currency;
unicode = 00A3;
},
{
color = 1;
glyphname = yen;
lastChange = "2022-02-16 15:38:45 +0000";
layers = (
{
layerId = "38FA562F-EF2C-4367-983C-F15B205514DC";
paths = (
{
closed = 1;
nodes = (
"704 0 LINE",
"704 318 LINE",
"1098 318 LINE",
"1098 418 LINE",
"704 418 LINE",
"704 626 LINE",
"1098 626 LINE",
"1098 726 LINE",
"776 726 LINE",
"1194 1400 LINE",
"1072 1400 LINE",
"646 728 LINE",
"230 1400 LINE",
"102 1400 LINE",
"522 726 LINE",
"198 726 LINE",
"198 626 LINE",
"592 626 LINE",
"592 418 LINE",
"198 418 LINE",
"198 318 LINE",
"592 318 LINE",
"592 0 LINE"
);
}
);
width = 1296;
}
);
leftKerningGroup = currency;
widthMetricsKey = plus;
rightKerningGroup = currency;
unicode = 00A5;
},
{
color = 9;
glyphname = divisionslash;
lastChange = "2022-02-16 15:38:40 +0000";
layers = (
{
layerId = "38FA562F-EF2C-4367-983C-F15B205514DC";
paths = (
{
closed = 1;
nodes = (
"1081 1390 LINE",
"1005 1430 LINE",
"215 16 LINE",
"291 -30 LINE"
);
}
);
width = 1296;
}
);
leftKerningGroup = math;
widthMetricsKey = plus;
rightKerningGroup = math;
unicode = 2215;
},
{
color = 1;
glyphname = plus;
lastChange = "2022-02-16 15:38:45 +0000";
layers = (
{
layerId = "38FA562F-EF2C-4367-983C-F15B205514DC";
paths = (
{
closed = 1;
nodes = (
"698 220 LINE",
"698 616 LINE",
"1116 616 LINE",
"1116 712 LINE",
"698 712 LINE",
"698 1108 LINE",
"598 1108 LINE",
"598 712 LINE",
"180 712 LINE",
"180 616 LINE",
"598 616 LINE",
"598 220 LINE"
);
}
);
width = 1296;
}
);
leftKerningGroup = math;
rightKerningGroup = math;
unicode = 002B;
},
{
color = 1;
glyphname = minus;
lastChange = "2022-02-16 15:38:45 +0000";
layers = (
{
layerId = "38FA562F-EF2C-4367-983C-F15B205514DC";
paths = (
{
closed = 1;
nodes = (
"1116 616 LINE",
"1116 712 LINE",
"180 712 LINE",
"180 616 LINE"
);
}
);
width = 1296;
}
);
leftKerningGroup = math;
leftMetricsKey = plus;
widthMetricsKey = plus;
rightKerningGroup = math;
unicode = 2212;
},
{
color = 1;
glyphname = multiply;
lastChange = "2022-02-16 15:38:45 +0000";
layers = (
{
layerId = "38FA562F-EF2C-4367-983C-F15B205514DC";
paths = (
{
closed = 1;
nodes = (
"648 592 LINE",
"974 268 LINE",
"1042 336 LINE",
"718 662 LINE",
"1042 986 LINE",
"974 1058 LINE",
"648 732 LINE",
"324 1058 LINE",
"254 988 LINE",
"580 664 LINE",
"254 338 LINE",
"324 268 LINE"
);
}
);
width = 1296;
}
);
leftKerningGroup = math;
widthMetricsKey = plus;
rightKerningGroup = math;
unicode = 00D7;
},
{
color = 1;
glyphname = divide;
lastChange = "2022-02-16 15:38:45 +0000";
layers = (
{
layerId = "38FA562F-EF2C-4367-983C-F15B205514DC";
paths = (
{
closed = 1;
nodes = (
"1114 616 LINE",
"1114 712 LINE",
"180 712 LINE",
"180 616 LINE"
);
},
{
closed = 1;
nodes = (
"702 200 OFFCURVE",
"750 240 OFFCURVE",
"750 296 CURVE SMOOTH",
"750 352 OFFCURVE",
"702 392 OFFCURVE",
"648 392 CURVE SMOOTH",
"592 392 OFFCURVE",
"548 352 OFFCURVE",
"548 296 CURVE SMOOTH",
"548 240 OFFCURVE",
"592 200 OFFCURVE",
"648 200 CURVE SMOOTH"
);
},
{
closed = 1;
nodes = (
"706 932 OFFCURVE",
"750 974 OFFCURVE",
"750 1028 CURVE SMOOTH",
"750 1084 OFFCURVE",
"706 1124 OFFCURVE",
"648 1124 CURVE SMOOTH",
"592 1124 OFFCURVE",
"548 1084 OFFCURVE",
"548 1028 CURVE SMOOTH",
"548 972 OFFCURVE",
"592 932 OFFCURVE",
"648 932 CURVE SMOOTH"
);
}
);
width = 1296;
}
);
leftKerningGroup = math;
leftMetricsKey = plus;
widthMetricsKey = plus;
rightKerningGroup = math;
unicode = 00F7;
},
{
color = 1;
glyphname = equal;
lastChange = "2022-02-16 15:38:45 +0000";
layers = (
{
layerId = "38FA562F-EF2C-4367-983C-F15B205514DC";
paths = (
{
closed = 1;
nodes = (
"1116 774 LINE",
"1116 870 LINE",
"180 870 LINE",
"180 774 LINE"
);
},
{
closed = 1;
nodes = (
"1116 450 LINE",
"1116 546 LINE",
"180 546 LINE",
"180 450 LINE"
);
}
);
width = 1296;
}
);
leftKerningGroup = math;
leftMetricsKey = plus;
widthMetricsKey = plus;
rightKerningGroup = math;
unicode = 003D;
},
{
color = 1;
glyphname = notequal;
lastChange = "2022-02-16 15:38:45 +0000";
layers = (
{
layerId = "38FA562F-EF2C-4367-983C-F15B205514DC";
paths = (
{
closed = 1;
nodes = (
"940 1132 LINE",
"856 1174 LINE",
"358 200 LINE",
"444 158 LINE"
);
},
{
closed = 1;
nodes = (
"1116 774 LINE",
"1116 870 LINE",
"180 870 LINE",
"180 774 LINE"
);
},
{
closed = 1;
nodes = (
"1116 450 LINE",
"1116 546 LINE",
"180 546 LINE",
"180 450 LINE"
);
}
);
width = 1296;
}
);
leftKerningGroup = math;
widthMetricsKey = plus;
rightKerningGroup = math;
unicode = 2260;
},
{
color = 1;
glyphname = greater;
lastChange = "2022-02-16 15:38:45 +0000";
layers = (
{
guideLines = (
{
angle = 67.7944;
position = "{80, 489}";
}
);
layerId = "38FA562F-EF2C-4367-983C-F15B205514DC";
paths = (
{
closed = 1;
nodes = (
"1116 618 LINE",
"1116 710 LINE",
"210 1084 LINE",
"168 982 LINE",
"962 664 LINE",
"168 350 LINE",
"210 248 LINE"
);
}
);
width = 1296;
}
);
leftKerningGroup = math;
widthMetricsKey = plus;
rightKerningGroup = math;
rightMetricsKey = plus;
unicode = 003E;
},
{
color = 1;
glyphname = less;
lastChange = "2022-02-16 15:38:45 +0000";
layers = (
{
layerId = "38FA562F-EF2C-4367-983C-F15B205514DC";
paths = (
{
closed = 1;
nodes = (
"1128 350 LINE",
"334 668 LINE",
"1128 982 LINE",
"1086 1084 LINE",
"180 714 LINE",
"180 622 LINE",
"1086 248 LINE"
);
}
);
width = 1296;
}
);
leftKerningGroup = math;
leftMetricsKey = plus;
widthMetricsKey = plus;
rightKerningGroup = math;
unicode = 003C;
},
{
color = 1;
glyphname = greaterequal;
lastChange = "2022-02-16 15:38:45 +0000";
layers = (
{
layerId = "38FA562F-EF2C-4367-983C-F15B205514DC";
paths = (
{
closed = 1;
nodes = (
"1116 764 LINE",
"1116 856 LINE",
"210 1230 LINE",
"168 1128 LINE",
"962 810 LINE",
"168 496 LINE",
"210 394 LINE"
);
},
{
closed = 1;
nodes = (
"1116 106 LINE",
"1116 202 LINE",
"180 202 LINE",
"180 106 LINE"
);
}
);
width = 1296;
}
);
leftKerningGroup = math;
widthMetricsKey = plus;
rightKerningGroup = math;
unicode = 2265;
},
{
color = 1;
glyphname = lessequal;
lastChange = "2022-02-16 15:38:45 +0000";
layers = (
{
layerId = "38FA562F-EF2C-4367-983C-F15B205514DC";
paths = (
{
closed = 1;
nodes = (
"1128 496 LINE",
"334 814 LINE",
"1128 1128 LINE",
"1086 1230 LINE",
"180 860 LINE",
"180 768 LINE",
"1086 394 LINE"
);
},
{
closed = 1;
nodes = (
"1116 106 LINE",
"1116 202 LINE",
"180 202 LINE",
"180 106 LINE"
);
}
);
width = 1296;
}
);
leftKerningGroup = math;
widthMetricsKey = plus;
rightKerningGroup = math;
unicode = 2264;
},
{
color = 9;
glyphname = plusminus;
lastChange = "2022-02-16 15:38:40 +0000";
layers = (
{
layerId = "38FA562F-EF2C-4367-983C-F15B205514DC";
paths = (
{
closed = 1;
nodes = (
"698 366 LINE",
"698 762 LINE",
"1116 762 LINE",
"1116 858 LINE",
"698 858 LINE",
"698 1254 LINE",
"598 1254 LINE",
"598 858 LINE",
"180 858 LINE",
"180 762 LINE",
"598 762 LINE",
"598 366 LINE"
);
},
{
closed = 1;
nodes = (
"1116 106 LINE",
"1116 202 LINE",
"180 202 LINE",
"180 106 LINE"
);
}
);
width = 1296;
}
);
leftKerningGroup = math;
leftMetricsKey = plus;
widthMetricsKey = plus;
rightKerningGroup = math;
unicode = 00B1;
},
{
color = 1;
glyphname = approxequal;
lastChange = "2022-02-16 15:38:45 +0000";
layers = (
{
layerId = "38FA562F-EF2C-4367-983C-F15B205514DC";
paths = (
{
closed = 1;
nodes = (
"962 700 OFFCURVE",
"1054 746 OFFCURVE",
"1128 854 CURVE",
"1072 932 LINE",
"1018 844 OFFCURVE",
"942 796 OFFCURVE",
"870 796 CURVE SMOOTH",
"750 796 OFFCURVE",
"588 944 OFFCURVE",
"426 944 CURVE SMOOTH",
"330 944 OFFCURVE",
"238 894 OFFCURVE",
"166 788 CURVE",
"224 720 LINE",
"278 798 OFFCURVE",
"354 848 OFFCURVE",
"426 848 CURVE SMOOTH",
"544 848 OFFCURVE",
"712 700 OFFCURVE",
"870 700 CURVE SMOOTH"
);
},
{
closed = 1;
nodes = (
"962 380 OFFCURVE",
"1054 426 OFFCURVE",
"1128 534 CURVE",
"1072 612 LINE",
"1018 524 OFFCURVE",
"942 476 OFFCURVE",
"870 476 CURVE SMOOTH",
"750 476 OFFCURVE",
"588 624 OFFCURVE",
"426 624 CURVE SMOOTH",
"330 624 OFFCURVE",
"238 574 OFFCURVE",
"166 468 CURVE",
"224 400 LINE",
"278 478 OFFCURVE",
"354 528 OFFCURVE",
"426 528 CURVE SMOOTH",
"544 528 OFFCURVE",
"712 380 OFFCURVE",
"870 380 CURVE SMOOTH"
);
}
);
width = 1296;
}
);
leftKerningGroup = math;
widthMetricsKey = plus;
rightKerningGroup = math;
unicode = 2248;
},
{
color = 9;
glyphname = logicalnot;
lastChange = "2022-02-16 15:38:40 +0000";
layers = (
{
layerId = "38FA562F-EF2C-4367-983C-F15B205514DC";
paths = (
{
closed = 1;
nodes = (
"1116 458 LINE",
"1116 870 LINE",
"180 870 LINE",
"180 774 LINE",
"1016 774 LINE",
"1016 458 LINE"
);
}
);
width = 1296;
}
);
leftKerningGroup = math;
leftMetricsKey = plus;
widthMetricsKey = plus;
rightKerningGroup = math;
unicode = 00AC;
},
{
color = 1;
glyphname = asciitilde;
lastChange = "2022-02-16 15:38:45 +0000";
layers = (
{
layerId = "38FA562F-EF2C-4367-983C-F15B205514DC";
paths = (
{
closed = 1;
nodes = (
"962 540 OFFCURVE",
"1054 586 OFFCURVE",
"1128 694 CURVE",
"1072 772 LINE",
"1018 684 OFFCURVE",
"942 636 OFFCURVE",
"870 636 CURVE SMOOTH",
"750 636 OFFCURVE",
"588 784 OFFCURVE",
"426 784 CURVE SMOOTH",
"330 784 OFFCURVE",
"238 734 OFFCURVE",
"166 628 CURVE",
"224 560 LINE",
"278 638 OFFCURVE",
"354 688 OFFCURVE",
"426 688 CURVE SMOOTH",
"544 688 OFFCURVE",
"712 540 OFFCURVE",
"870 540 CURVE SMOOTH"
);
}
);
width = 1296;
}
);
leftKerningGroup = math;
widthMetricsKey = plus;
rightKerningGroup = math;
unicode = 007E;
},
{
color = 1;
glyphname = asciicircum;
lastChange = "2022-02-16 15:38:45 +0000";
layers = (
{
layerId = "38FA562F-EF2C-4367-983C-F15B205514DC";
paths = (
{
closed = 1;
nodes = (
"346 850 LINE",
"648 1310 LINE",
"950 850 LINE",
"1076 850 LINE",
"712 1400 LINE",
"584 1400 LINE",
"220 850 LINE"
);
}
);
width = 1296;
}
);
leftKerningGroup = math;
widthMetricsKey = plus;
rightKerningGroup = math;
unicode = 005E;
},
{
color = 1;
glyphname = infinity;
lastChange = "2022-02-16 15:38:45 +0000";
layers = (
{
layerId = "38FA562F-EF2C-4367-983C-F15B205514DC";
paths = (
{
closed = 1;
nodes = (
"1228 982 OFFCURVE",
"1079 1131 OFFCURVE",
"892 1131 CURVE SMOOTH",
"756 1131 OFFCURVE",
"666 1050 OFFCURVE",
"615 922 CURVE",
"580 1018 OFFCURVE",
"492 1098 OFFCURVE",
"364 1098 CURVE SMOOTH",
"190 1098 OFFCURVE",
"60 952 OFFCURVE",
"60 746 CURVE SMOOTH",
"60 542 OFFCURVE",
"188 397 OFFCURVE",
"364 397 CURVE SMOOTH",
"492 397 OFFCURVE",
"580 477 OFFCURVE",
"615 573 CURVE",
"666 437 OFFCURVE",
"756 360 OFFCURVE",
"892 360 CURVE SMOOTH",
"1079 360 OFFCURVE",
"1228 512 OFFCURVE",
"1228 746 CURVE SMOOTH"
);
},
{
closed = 1;
nodes = (
"1138 589 OFFCURVE",
"1057 459 OFFCURVE",
"900 459 CURVE SMOOTH",
"745 459 OFFCURVE",
"660 579 OFFCURVE",
"660 746 CURVE SMOOTH",
"660 907 OFFCURVE",
"745 1032 OFFCURVE",
"900 1032 CURVE SMOOTH",
"1057 1032 OFFCURVE",
"1138 899 OFFCURVE",
"1138 746 CURVE SMOOTH"
);
},
{
closed = 1;
nodes = (
"570 598 OFFCURVE",
"494 493 OFFCURVE",
"369 493 CURVE SMOOTH",
"244 493 OFFCURVE",
"150 595 OFFCURVE",
"150 747 CURVE SMOOTH",
"150 899 OFFCURVE",
"244 1002 OFFCURVE",
"369 1002 CURVE SMOOTH",
"494 1002 OFFCURVE",
"570 896 OFFCURVE",
"570 747 CURVE SMOOTH"
);
}
);
width = 1288;
}
);
unicode = 221E;
},
{
color = 1;
glyphname = micro;
lastChange = "2022-02-16 15:38:45 +0000";
layers = (
{
layerId = "38FA562F-EF2C-4367-983C-F15B205514DC";
paths = (
{
closed = 1;
nodes = (
"292 -420 LINE",
"274 92 LINE",
"344 4 OFFCURVE",
"448 -30 OFFCURVE",
"568 -30 CURVE SMOOTH",
"688 -30 OFFCURVE",
"804 14 OFFCURVE",
"894 126 CURVE",
"894 0 LINE",
"1006 0 LINE",
"1006 960 LINE",
"894 960 LINE",
"894 390 LINE SMOOTH",
"894 204 OFFCURVE",
"756 78 OFFCURVE",
"588 78 CURVE SMOOTH",
"420 78 OFFCURVE",
"282 204 OFFCURVE",
"282 390 CURVE SMOOTH",
"282 960 LINE",
"170 960 LINE",
"170 -420 LINE"
);
}
);
width = 1176;
}
);
leftKerningGroup = n;
leftMetricsKey = n;
rightKerningGroup = u;
rightMetricsKey = "=|n";
unicode = 00B5;
},
{
color = 1;
glyphname = percent;
lastChange = "2022-02-16 15:38:45 +0000";
layers = (
{
layerId = "38FA562F-EF2C-4367-983C-F15B205514DC";
paths = (
{
closed = 1;
nodes = (
"1452 1390 LINE",
"1376 1430 LINE",
"586 16 LINE",
"662 -30 LINE"
);
},
{
closed = 1;
nodes = (
"664 710 OFFCURVE",
"826 870 OFFCURVE",
"826 1066 CURVE SMOOTH",
"826 1260 OFFCURVE",
"664 1420 OFFCURVE",
"464 1420 CURVE SMOOTH",
"264 1420 OFFCURVE",
"100 1260 OFFCURVE",
"100 1066 CURVE SMOOTH",
"100 870 OFFCURVE",
"264 710 OFFCURVE",
"464 710 CURVE SMOOTH"
);
},
{
closed = 1;
nodes = (
"308 806 OFFCURVE",
"200 914 OFFCURVE",
"200 1066 CURVE SMOOTH",
"200 1218 OFFCURVE",
"308 1324 OFFCURVE",
"464 1324 CURVE SMOOTH",
"622 1324 OFFCURVE",
"726 1222 OFFCURVE",
"726 1066 CURVE SMOOTH",
"726 910 OFFCURVE",
"622 806 OFFCURVE",
"464 806 CURVE SMOOTH"
);
},
{
closed = 1;
nodes = (
"1776 -20 OFFCURVE",
"1938 140 OFFCURVE",
"1938 336 CURVE SMOOTH",
"1938 530 OFFCURVE",
"1776 690 OFFCURVE",
"1576 690 CURVE SMOOTH",
"1376 690 OFFCURVE",
"1212 530 OFFCURVE",
"1212 336 CURVE SMOOTH",
"1212 140 OFFCURVE",
"1376 -20 OFFCURVE",
"1576 -20 CURVE SMOOTH"
);
},
{
closed = 1;
nodes = (
"1420 76 OFFCURVE",
"1312 184 OFFCURVE",
"1312 336 CURVE SMOOTH",
"1312 488 OFFCURVE",
"1420 594 OFFCURVE",
"1576 594 CURVE SMOOTH",
"1734 594 OFFCURVE",
"1838 492 OFFCURVE",
"1838 336 CURVE SMOOTH",
"1838 180 OFFCURVE",
"1734 76 OFFCURVE",
"1576 76 CURVE SMOOTH"
);
}
);
width = 2038;
}
);
leftKerningGroup = percent;
rightKerningGroup = percent;
rightMetricsKey = "=|";
unicode = 0025;
},
{
color = 9;
glyphname = brevecomb;
lastChange = "2022-02-16 15:40:56 +0000";
layers = (
{
anchors = (
{
name = _top;
position = "{-586, 960}";
},
{
name = top;
position = "{-586, 1404}";
}
);
layerId = "38FA562F-EF2C-4367-983C-F15B205514DC";
paths = (
{
closed = 1;
nodes = (
"-396 1160 OFFCURVE",
"-256 1308 OFFCURVE",
"-262 1504 CURVE",
"-366 1504 LINE",
"-358 1356 OFFCURVE",
"-446 1256 OFFCURVE",
"-586 1256 CURVE SMOOTH",
"-726 1256 OFFCURVE",
"-816 1356 OFFCURVE",
"-810 1504 CURVE",
"-912 1504 LINE",
"-920 1306 OFFCURVE",
"-782 1160 OFFCURVE",
"-586 1160 CURVE SMOOTH"
);
}
);
width = 0;
}
);
leftKerningGroup = mark;
rightKerningGroup = mark;
unicode = 0306;
category = Mark;
},
{
color = 9;
glyphname = dieresis;
lastChange = "2022-02-16 15:38:40 +0000";
layers = (
{
anchors = (
{
name = _top;
position = "{540, 960}";
},
{
name = top;
position = "{540, 1284}";
}
);
layerId = "38FA562F-EF2C-4367-983C-F15B205514DC";
paths = (
{
closed = 1;
nodes = (
"410 1162 OFFCURVE",
"452 1204 OFFCURVE",
"452 1256 CURVE SMOOTH",
"452 1308 OFFCURVE",
"410 1350 OFFCURVE",
"358 1350 CURVE SMOOTH",
"306 1350 OFFCURVE",
"264 1308 OFFCURVE",
"264 1256 CURVE SMOOTH",
"264 1204 OFFCURVE",
"306 1162 OFFCURVE",
"358 1162 CURVE SMOOTH"
);
},
{
closed = 1;
nodes = (
"774 1162 OFFCURVE",
"816 1204 OFFCURVE",
"816 1256 CURVE SMOOTH",
"816 1308 OFFCURVE",
"774 1350 OFFCURVE",
"722 1350 CURVE SMOOTH",
"670 1350 OFFCURVE",
"628 1308 OFFCURVE",
"628 1256 CURVE SMOOTH",
"628 1204 OFFCURVE",
"670 1162 OFFCURVE",
"722 1162 CURVE SMOOTH"
);
}
);
width = 1000;
}
);
leftKerningGroup = spacingmark;
widthMetricsKey = endash;
rightKerningGroup = spacingmark;
unicode = 00A8;
category = Mark;
},
{
color = 1;
glyphname = grave;
lastChange = "2022-02-16 15:38:45 +0000";
layers = (
{
anchors = (
{
name = _top;
position = "{540, 960}";
}
);
layerId = "38FA562F-EF2C-4367-983C-F15B205514DC";
paths = (
{
closed = 1;
nodes = (
"620 1170 LINE",
"440 1504 LINE",
"314 1504 LINE",
"508 1170 LINE"
);
}
);
width = 1000;
}
);
leftKerningGroup = spacingmark;
widthMetricsKey = endash;
rightKerningGroup = spacingmark;
unicode = 0060;
category = Mark;
},
{
color = 9;
glyphname = acute;
lastChange = "2022-02-16 15:38:40 +0000";
layers = (
{
anchors = (
{
name = _top;
position = "{540, 960}";
}
);
layerId = "38FA562F-EF2C-4367-983C-F15B205514DC";
paths = (
{
closed = 1;
nodes = (
"584 1170 LINE",
"778 1504 LINE",
"658 1504 LINE",
"476 1170 LINE"
);
}
);
width = 1000;
}
);
leftKerningGroup = spacingmark;
widthMetricsKey = endash;
rightKerningGroup = spacingmark;
unicode = 00B4;
category = Mark;
},
{
color = 9;
glyphname = circumflex;
lastChange = "2022-02-16 15:38:40 +0000";
layers = (
{
anchors = (
{
name = _top;
position = "{1440, 960}";
},
{
name = top;
position = "{1440, 1444}";
},
{
name = top_right;
position = "{1748, 1224}";
}
);
layerId = "38FA562F-EF2C-4367-983C-F15B205514DC";
paths = (
{
closed = 1;
nodes = (
"1248 1170 LINE",
"1446 1426 LINE",
"1634 1170 LINE",
"1754 1170 LINE",
"1510 1504 LINE",
"1386 1504 LINE",
"1126 1170 LINE"
);
}
);
width = 1000;
}
);
leftKerningGroup = spacingmark;
widthMetricsKey = endash;
rightKerningGroup = spacingmark;
unicode = 02C6;
category = Mark;
},
{
color = 9;
glyphname = ring;
lastChange = "2022-02-16 15:38:40 +0000";
layers = (
{
anchors = (
{
name = _top;
position = "{540, 960}";
},
{
name = top;
position = "{540, 1464}";
}
);
layerId = "38FA562F-EF2C-4367-983C-F15B205514DC";
paths = (
{
closed = 1;
nodes = (
"674 1100 OFFCURVE",
"786 1200 OFFCURVE",
"786 1332 CURVE SMOOTH",
"786 1462 OFFCURVE",
"674 1566 OFFCURVE",
"540 1566 CURVE SMOOTH",
"404 1566 OFFCURVE",
"292 1462 OFFCURVE",
"292 1332 CURVE SMOOTH",
"292 1200 OFFCURVE",
"404 1100 OFFCURVE",
"540 1100 CURVE SMOOTH"
);
},
{
closed = 1;
nodes = (
"454 1188 OFFCURVE",
"396 1252 OFFCURVE",
"396 1332 CURVE SMOOTH",
"396 1412 OFFCURVE",
"454 1476 OFFCURVE",
"540 1476 CURVE SMOOTH",
"626 1476 OFFCURVE",
"682 1412 OFFCURVE",
"682 1332 CURVE SMOOTH",
"682 1252 OFFCURVE",
"626 1188 OFFCURVE",
"540 1188 CURVE SMOOTH"
);
}
);
width = 1000;
}
);
leftKerningGroup = spacingmark;
widthMetricsKey = endash;
rightKerningGroup = spacingmark;
unicode = 02DA;
category = Mark;
},
{
color = 9;
glyphname = tilde;
lastChange = "2022-02-16 15:38:40 +0000";
layers = (
{
anchors = (
{
name = _top;
position = "{540, 960}";
},
{
name = top;
position = "{540, 1344}";
}
);
layerId = "38FA562F-EF2C-4367-983C-F15B205514DC";
paths = (
{
closed = 1;
nodes = (
"300 1296 OFFCURVE",
"340 1340 OFFCURVE",
"396 1340 CURVE SMOOTH",
"482 1340 OFFCURVE",
"574 1236 OFFCURVE",
"684 1236 CURVE SMOOTH",
"768 1236 OFFCURVE",
"840 1302 OFFCURVE",
"882 1414 CURVE",
"808 1460 LINE",
"782 1382 OFFCURVE",
"740 1334 OFFCURVE",
"684 1334 CURVE SMOOTH",
"598 1334 OFFCURVE",
"506 1440 OFFCURVE",
"396 1440 CURVE SMOOTH",
"306 1440 OFFCURVE",
"238 1366 OFFCURVE",
"198 1260 CURVE",
"272 1216 LINE"
);
}
);
width = 1000;
}
);
leftKerningGroup = spacingmark;
widthMetricsKey = endash;
rightKerningGroup = spacingmark;
unicode = 02DC;
category = Mark;
},
{
color = 9;
glyphname = macron;
lastChange = "2022-02-16 15:38:40 +0000";
layers = (
{
anchors = (
{
name = _top;
position = "{540, 960}";
}
);
layerId = "38FA562F-EF2C-4367-983C-F15B205514DC";
paths = (
{
closed = 1;
nodes = (
"828 1230 LINE",
"828 1334 LINE",
"252 1334 LINE",
"252 1230 LINE"
);
}
);
width = 1000;
}
);
leftKerningGroup = spacingmark;
widthMetricsKey = endash;
rightKerningGroup = spacingmark;
unicode = 00AF;
category = Mark;
},
{
color = 9;
glyphname = cedilla;
lastChange = "2022-02-16 15:38:40 +0000";
layers = (
{
anchors = (
{
name = _bottom;
position = "{540, 0}";
}
);
layerId = "38FA562F-EF2C-4367-983C-F15B205514DC";
paths = (
{
closed = 1;
nodes = (
"618 -450 OFFCURVE",
"758 -402 OFFCURVE",
"758 -266 CURVE SMOOTH",
"758 -160 OFFCURVE",
"664 -102 OFFCURVE",
"538 -94 CURVE",
"578 40 LINE",
"496 40 LINE",
"442 -126 LINE",
"476 -186 LINE",
"562 -174 OFFCURVE",
"650 -200 OFFCURVE",
"650 -270 CURVE SMOOTH",
"650 -336 OFFCURVE",
"580 -360 OFFCURVE",
"520 -360 CURVE SMOOTH",
"456 -360 OFFCURVE",
"382 -336 OFFCURVE",
"358 -308 CURVE",
"320 -394 LINE",
"376 -430 OFFCURVE",
"444 -450 OFFCURVE",
"524 -450 CURVE SMOOTH"
);
}
);
width = 1000;
}
);
leftKerningGroup = spacingmark;
widthMetricsKey = endash;
rightKerningGroup = spacingmark;
unicode = 00B8;
category = Mark;
},
{
export = 0;
glyphname = "_part.Kaverticalstroke-cy";
lastChange = "2022-02-16 14:31:41 +0000";
layers = (
{
anchors = (
{
name = center;
position = "{516, 752}";
}
);
guideLines = (
{
angle = 90;
position = "{329, 700}";
},
{
angle = 180;
position = "{158, 376}";
}
);
layerId = "38FA562F-EF2C-4367-983C-F15B205514DC";
paths = (
{
closed = 1;
nodes = (
"1224 0 LINE",
"670 756 LINE",
"1136 1400 LINE",
"998 1400 LINE",
"528 754 LINE",
"1072 0 LINE"
);
},
{
closed = 1;
nodes = (
"316 0 LINE",
"316 698 LINE",
"610 698 LINE",
"610 806 LINE",
"316 806 LINE",
"316 1400 LINE",
"200 1400 LINE",
"200 0 LINE"
);
}
);
width = 1314;
}
);
leftMetricsKey = H;
rightMetricsKey = K;
},
{
export = 0;
glyphname = "_part.Tse-cy";
lastChange = "2022-02-16 14:31:41 +0000";
layers = (
{
anchors = (
{
name = bottom;
position = "{718, 0}";
},
{
name = descender;
position = "{1216, 0}";
}
);
layerId = "38FA562F-EF2C-4367-983C-F15B205514DC";
paths = (
{
closed = 1;
nodes = (
"1216 0 LINE",
"1216 1400 LINE",
"1100 1400 LINE",
"1100 108 LINE",
"316 108 LINE",
"316 1400 LINE",
"200 1400 LINE",
"200 0 LINE"
);
}
);
width = 1416;
}
);
leftMetricsKey = H;
rightMetricsKey = H;
},
{
export = 0;
glyphname = "_part.Zhe-cy";
lastChange = "2022-02-16 14:31:41 +0000";
layers = (
{
anchors = (
{
name = descender;
position = "{1912, 0}";
},
{
name = top;
position = "{1056, 1400}";
}
);
layerId = "38FA562F-EF2C-4367-983C-F15B205514DC";
paths = (
{
closed = 1;
nodes = (
"2022 0 LINE",
"1428 756 LINE",
"1934 1400 LINE",
"1796 1400 LINE",
"1286 754 LINE",
"1870 0 LINE"
);
},
{
closed = 1;
nodes = (
"236 0 LINE",
"822 756 LINE",
"322 1400 LINE",
"180 1400 LINE",
"682 752 LINE",
"90 0 LINE"
);
},
{
closed = 1;
nodes = (
"1114 0 LINE",
"1114 698 LINE",
"1368 698 LINE",
"1368 806 LINE",
"1114 806 LINE",
"1114 1400 LINE",
"998 1400 LINE",
"998 806 LINE",
"744 806 LINE",
"744 698 LINE",
"998 698 LINE",
"998 0 LINE"
);
}
);
width = 2112;
}
);
},
{
export = 0;
glyphname = "_part.kaverticalstroke-cy";
lastChange = "2022-02-16 15:14:28 +0000";
layers = (
{
anchors = (
{
name = center;
position = "{434, 512}";
}
);
guideLines = (
{
angle = 180;
position = "{283, 256}";
}
);
layerId = "38FA562F-EF2C-4367-983C-F15B205514DC";
paths = (
{
closed = 1;
nodes = (
"986 0 LINE",
"632 522 LINE",
"914 960 LINE",
"794 960 LINE",
"508 518 LINE",
"846 0 LINE"
);
},
{
closed = 1;
nodes = (
"282 0 LINE",
"280 460 LINE",
"566 460 LINE",
"566 564 LINE",
"280 564 LINE",
"282 960 LINE",
"170 960 LINE",
"170 0 LINE"
);
}
);
width = 1046;
}
);
leftMetricsKey = n;
},
